<svg xmlns="http://www.w3.org/2000/svg" viewBox="0 0 590.57 590.57"><defs><style>.cls-1{fill:#fff;}</style></defs><g id="Layer_2" data-name="Layer 2"><g id="Layer_1-2" data-name="Layer 1"><g id="Group_4352" data-name="Group 4352"><g id="Group_4353" data-name="Group 4353"><path id="Path_5336" data-name="Path 5336" class="cls-1" d="M255.69,353.7l101.43-58.42L255.69,236.87Z"/><path id="Path_5337" data-name="Path 5337" class="cls-1" d="M295.28,0C132.2,0,0,132.2,0,295.28S132.2,590.57,295.28,590.57,590.57,458.36,590.57,295.28,458.35,0,295.28,0ZM479.8,295.59a487.24,487.24,0,0,1-7.6,88.75,46.23,46.23,0,0,1-32.53,32.51c-28.88,7.6-144.39,7.6-144.39,7.6s-115.2,0-144.39-7.9A46.25,46.25,0,0,1,118.36,384a485.49,485.49,0,0,1-7.59-88.76,487.23,487.23,0,0,1,7.59-88.75,47.21,47.21,0,0,1,32.53-32.82c28.88-7.59,144.39-7.59,144.39-7.59s115.51,0,144.39,7.9a46.22,46.22,0,0,1,32.53,32.53A462.5,462.5,0,0,1,479.8,295.59Z"/></g></g></g></g></svg>