<svg xmlns="http://www.w3.org/2000/svg" width="164.954" height="53.963" viewBox="0 0 164.954 53.963"><defs><style>.a{fill:#fff5fc;}</style></defs><g transform="translate(-10.777 -6.252)"><g transform="translate(10.777 13.998)"><g transform="translate(1.294)"><g transform="translate(0 0.583)"><path class="a" d="M152.307,51.654a4.58,4.58,0,0,1-.109,1c-.12.631-.228.946-.315.946q-.073,0-.1-.391c-.033-.555-.054-.87-.054-.935q-.2-2.04-1.044-6.864-.237-1.338-.631-4-.2-.171-.163-.261c.054-.158.147-.391.272-.707a1.162,1.162,0,0,1,.185-.391A6.648,6.648,0,0,1,151,41.31a4.531,4.531,0,0,1,.566,1.468c-.054.033-.169-.033-.337-.218-.049-.054-.174-.185-.381-.392q.375,2.007,1.11,6.407a26.354,26.354,0,0,1,.348,3.078" transform="translate(-115.519 -39.713)"/><path class="a" d="M58.329,75.17a2.239,2.239,0,0,1-.489,1.544A18.784,18.784,0,0,1,55.1,78.509a10.327,10.327,0,0,1-3.47,1.588c-.674,0-1.012-.419-1.012-1.262a5.954,5.954,0,0,1,.533-2.371c.174-.4.294-.609.359-.6.093,0,.044.256-.163.767a3.814,3.814,0,0,0-.3,1.376c0,.6.261.9.783.9a9.153,9.153,0,0,0,3.2-1.425,16,16,0,0,0,2.97-1.882c0-.267-.326-.577-.99-.935l-1.534-.761a6.415,6.415,0,0,1-2.121-1.762c-.033-.005-.082-.049-.142-.13-.005-.033-.011-.228-.011-.587a2.032,2.032,0,0,1,.022-.566,2.48,2.48,0,0,1,.827.4c.462.283.685.446.663.5s-.163.076-.446.087a8.4,8.4,0,0,0,2.089,1.338,7.8,7.8,0,0,1,1.523.827,1.491,1.491,0,0,1,.457,1.153" transform="translate(-41.697 -62.627)"/><path class="a" d="M23.212,73.99l-.544.979-1.11-.653-.457.816-1.131-.663.544-.979,1.109.653.457-.816,1.131.663m3.4-9.606a1.513,1.513,0,0,1-.12.571c-.076.2-.141.3-.2.3q-.041,0-.277-.31t-.408-.31c-.326,0-.838.332-1.534,1.006s-1.044,1.18-1.044,1.528c0,.163.169.332.511.5a2.237,2.237,0,0,0,.849.261,4.45,4.45,0,0,1,1.555.337.732.732,0,0,1,.381.663,2.164,2.164,0,0,1-.435,1.4,7.752,7.752,0,0,1-2.763,1.86,9.613,9.613,0,0,1-3.894,1.033,2.9,2.9,0,0,1-2.926-1.893,4.188,4.188,0,0,1-.087-2.534,7.372,7.372,0,0,1,.576-1.621c.174-.348.283-.511.337-.489s.027.207-.1.566a6.394,6.394,0,0,0-.446,1.98,2.74,2.74,0,0,0,.7,1.925,2.969,2.969,0,0,0,2.317.881,8.055,8.055,0,0,0,2.871-.62,14.276,14.276,0,0,0,2.35-1.164c.653-.391.979-.62.979-.7,0-.2-.294-.337-.881-.4q-2.415-.269-2.415-1.349a4.641,4.641,0,0,1,1.262-2.817c.81-.99,1.5-1.49,2.078-1.49a.682.682,0,0,1,.533.266.907.907,0,0,1,.228.614m-9.485,2.7c-.138.491-.357.74-.66.74a.424.424,0,0,1-.38-.188,1.7,1.7,0,0,1-.265-.913,5.027,5.027,0,0,1,.123-.959,9.675,9.675,0,0,1,.5-1.7c.092-.23.169-.345.223-.345.019.008.031.035.031.077a1.073,1.073,0,0,1-.08.33q-.15.455-.437,1.714a1.705,1.705,0,0,0,.062,1.066.392.392,0,0,0,.36.253.3.3,0,0,0,.238-.111q.058-.08.173-.253.057-.138.092-.138c.092,0,.1.138.019.422" transform="translate(-15.823 -57.155)"/><path class="a" d="M88.711,46.008q-.473-2.57-.914-5.123l.381.381c.185.174.294.245.337.217a.064.064,0,0,0,.022-.044,10.31,10.31,0,0,0-.576-1.425,4.623,4.623,0,0,0-.653-1.273c-.033,0-.1.136-.2.4-.12.316-.207.555-.272.718-.033.06.033.142.185.239q.384,2.676.6,4.014a62.283,62.283,0,0,1,1,6.864c0,.087-.125.2-.375.332a1.412,1.412,0,0,1-.642.2,1.515,1.515,0,0,1-.157-.009,1.4,1.4,0,0,1-.641-.241A.819.819,0,0,1,86.524,51a.687.687,0,0,1-.1-.4c0-.065.008-.121.009-.168a.59.59,0,0,0-.009-.191c-.076-.033-.2.109-.359.4-.087.2-.185.391-.283.576a.761.761,0,0,1-.718.315q-.585-.021-.67-.411c.029-.195.078-.387.088-.584.026-.1.021-.159-.016-.169-.076-.016-.185.093-.337.315s-.267.384-.372.515a1.344,1.344,0,0,1-.117.1,2.125,2.125,0,0,1-1.08.539c-.052,0-.1.006-.158.007h-.02a1.166,1.166,0,0,1-.25-.037c-.025,0-.05-.01-.076-.017a.74.74,0,0,1-.461-.686,2.7,2.7,0,0,1,.043-.424c.017-.1,0-.163-.043-.174s-.136.033-.25.131l-.407.421-.183.187c-.076.069-.153.138-.231.2q-.088.074-.18.143a3.165,3.165,0,0,1-.324.215.919.919,0,0,1-.227.092,2.708,2.708,0,0,1-.643.091,2.068,2.068,0,0,1-.382-.03.529.529,0,0,1-.434-.471,1.483,1.483,0,0,1,.041-.45c.052-.218.086-.444.148-.66a1.862,1.862,0,0,1,.111-.3,5.083,5.083,0,0,1,.678-.3,8.739,8.739,0,0,0,.836-.342,2.411,2.411,0,0,0,.54-.316.579.579,0,0,0,.118-.158,2.258,2.258,0,0,0,.3-.732c-.558.188-1.073.478-1.634.66a5.6,5.6,0,0,1-.783.256l-.015,0a1.693,1.693,0,0,1-.972-.038,2.7,2.7,0,0,1-1.5-1.269c-.04-.065-.078-.131-.114-.2-.085-.2-.227-.487.006-.639a5.1,5.1,0,0,1,2.269-.525,12.067,12.067,0,0,1,1.567.175,3.282,3.282,0,0,0-1.889-.894,2.337,2.337,0,0,0-1.894.48,2.026,2.026,0,0,0-.682,1.373.9.9,0,0,0,.008.245,3.37,3.37,0,0,0,.184.667,2.986,2.986,0,0,0,.179.378,2.6,2.6,0,0,0,.449.586c.186.157.386.3.575.448a9.77,9.77,0,0,1-1.185.5,3.7,3.7,0,0,0-.276-.477,1.61,1.61,0,0,0-1.131-.838,1.119,1.119,0,0,0-.979.576,1.9,1.9,0,0,0-.381,1.1q0,.946,1.175.946a4,4,0,0,0,1.316-.174.813.813,0,0,1,.142.479c0,.294-.522.827-1.566,1.61a5.247,5.247,0,0,1-2.915,1.284,1.665,1.665,0,0,1-1.333-.566,2.078,2.078,0,0,1-.484-1.4,4.552,4.552,0,0,1,.12-1c.08-.337.118-.5.119-.5,0-.033-.011-.049-.022-.054-.087-.022-.207.212-.348.7a5.233,5.233,0,0,0-.239,1.545,2.682,2.682,0,0,0,.5,1.7,1.871,1.871,0,0,0,1.577.707,4.665,4.665,0,0,0,2.589-1.077,7.8,7.8,0,0,0,1.958-1.9,2.969,2.969,0,0,0,.4-1.636,8.98,8.98,0,0,0,2.42-1.183,4.027,4.027,0,0,0-.258,2.017.95.95,0,0,0,.582.675,1.987,1.987,0,0,0,1.3-.152,1.369,1.369,0,0,0,.288-.168,2.7,2.7,0,0,0,.878-.867c0,.778.359,1.164,1.066,1.164a2.072,2.072,0,0,0,1.762-1.229.812.812,0,0,0,.179.636.71.71,0,0,0,.571.277c.6,0,1.033-.386,1.316-1.153.016,0,.054.074.107.212l0,.006a1.807,1.807,0,0,0,.228.4,1.207,1.207,0,0,0,.981.489h.026a1.588,1.588,0,0,0,1.614-1.359,6.214,6.214,0,0,0,.217-1.49A28.492,28.492,0,0,0,88.711,46.008ZM74.137,50.694c-.348-.022-.522-.109-.522-.25a.241.241,0,0,1,.136-.185.452.452,0,0,1,.223-.087,1.208,1.208,0,0,1,.794.511A3.945,3.945,0,0,1,74.137,50.694Z" transform="translate(-55.273 -38.742)"/><path class="a" d="M72.676,56.1c-.09.321-.233.484-.431.484A.277.277,0,0,1,72,56.456a1.107,1.107,0,0,1-.173-.6,3.284,3.284,0,0,1,.08-.626,6.332,6.332,0,0,1,.328-1.108c.06-.15.11-.226.145-.226.013.005.02.023.02.05a.7.7,0,0,1-.053.216q-.1.3-.286,1.12a1.114,1.114,0,0,0,.04.7.256.256,0,0,0,.236.165.2.2,0,0,0,.155-.073c.025-.035.063-.09.113-.165.025-.06.045-.09.06-.09.06,0,.068.09.013.276" transform="translate(-57.468 -50.014)"/><path class="a" d="M57.065,106.323c.02.032.008.1-.04.208a.438.438,0,0,1-.108.168l-2.029.755a14.524,14.524,0,0,0-1.865.819.451.451,0,0,1,0-.248.357.357,0,0,1,.084-.2,38.217,38.217,0,0,1,3.958-1.506" transform="translate(-43.474 -88.998)"/><path class="a" d="M91.884,46.868c.085-.36.031-.542-.17-.542-.178,0-.271.074-.271.225,0,.108.147.213.441.317m.527.209a.548.548,0,0,1-.07.182c-.046.089-.073.135-.085.135a1.786,1.786,0,0,1-.434-.132,5.218,5.218,0,0,1-1.866,1.494q-.117.058-.592.244a2.266,2.266,0,0,1-.507.166,2.144,2.144,0,0,1,.5-.317,8.746,8.746,0,0,0,2.362-1.634c-.348-.159-.527-.349-.527-.573a.811.811,0,0,1,.225-.465.593.593,0,0,1,.426-.279c.17,0,.256.19.256.573a1.266,1.266,0,0,1-.077.441q.395.128.395.163" transform="translate(-70.133 -44.065)"/><path class="a" d="M122.977,53.718c.085-.36.031-.542-.17-.542-.178,0-.271.074-.271.225,0,.108.147.213.441.318m.527.209a.555.555,0,0,1-.07.182c-.046.089-.074.135-.085.135a1.788,1.788,0,0,1-.434-.132,5.215,5.215,0,0,1-1.866,1.494q-.116.058-.592.244a2.267,2.267,0,0,1-.507.166,2.136,2.136,0,0,1,.5-.317,8.739,8.739,0,0,0,2.362-1.634c-.348-.159-.526-.348-.526-.573a.811.811,0,0,1,.225-.465.592.592,0,0,1,.426-.279c.17,0,.256.19.256.573a1.266,1.266,0,0,1-.077.441q.395.128.395.163" transform="translate(-93.255 -49.159)"/><path class="a" d="M119.4,99.449c0,.279-.1.421-.309.421a.3.3,0,0,1-.212-.085c-.03-.024-.061-.018-.088.024a.476.476,0,0,1-.421.224.3.3,0,0,1-.185-.052.637.637,0,0,0-.609.012,3.589,3.589,0,0,0-.546.436c-.148.121-.294.245-.436.37a3.657,3.657,0,0,1-.842.473,1.864,1.864,0,0,1-.533.16c-.024,0-.039-.006-.039-.024a.412.412,0,0,1,.139-.073,4.314,4.314,0,0,0,.506-.224,4.656,4.656,0,0,0,1.045-.794,2.685,2.685,0,0,1,.794-.621.479.479,0,0,1,.509-.024.337.337,0,0,0,.209.073.42.42,0,0,0,.424-.3c.039-.121.088-.185.148-.185.015,0,.021.018.012.061-.024.091-.03.142-.012.16a.209.209,0,0,0,.248.064c.073-.015.082-.048.024-.1-.043-.024-.052-.061-.024-.112.048-.115.079-.173.1-.173.066,0,.1.094.1.285" transform="translate(-89.709 -83.674)"/><path class="a" d="M37.064,55.59a1.666,1.666,0,0,1-.272.974.72.72,0,0,1-.554.391.357.357,0,0,1-.288-.135,1.226,1.226,0,0,1-.777.449c-.326,0-.495-.192-.495-.577a1.945,1.945,0,0,1,.168-.641c.109-.288.2-.436.277-.436.06,0,.087.058.071.179-.033.263-.049.4-.049.4,0,.083.065.128.2.128a.682.682,0,0,0,.538-.314c.163-.205.239-.314.223-.314.07,0,.119.051.141.16s.054.154.1.154a.467.467,0,0,0,.418-.314,1.313,1.313,0,0,1,.179-.314q.114,0,.114.211" transform="translate(-29.845 -51.114)"/><path class="a" d="M126.68,67.386a1.666,1.666,0,0,1-.272.974.719.719,0,0,1-.554.391.356.356,0,0,1-.288-.134,1.226,1.226,0,0,1-.777.448c-.326,0-.494-.192-.494-.577a1.947,1.947,0,0,1,.168-.641c.109-.288.2-.436.277-.436.06,0,.087.058.071.179-.033.263-.049.4-.049.4,0,.083.065.128.2.128a.681.681,0,0,0,.538-.314c.163-.205.239-.314.223-.314.07,0,.119.052.141.16s.054.154.1.154a.467.467,0,0,0,.418-.314,1.317,1.317,0,0,1,.179-.314q.114,0,.114.211" transform="translate(-96.487 -59.886)"/><path class="a" d="M100.008,98.69a1.617,1.617,0,0,1-1.345.672c-.388-.009-.586-.163-.586-.462a1.7,1.7,0,0,1,.178-.611,1.573,1.573,0,0,1,.376-.574.662.662,0,0,1-.324-.476.928.928,0,0,1,.249-.5c.166-.21.32-.317.463-.317q.178,0,.178.266a.639.639,0,0,1-.052.215c-.032.084-.063.131-.095.131A.121.121,0,0,1,99,96.955a.133.133,0,0,0-.13-.117.346.346,0,0,0-.162.079c-.075.047-.115.1-.115.149,0,.163.15.247.455.247a.571.571,0,0,0,.293-.168c.087-.089.154-.131.21-.117.032,0,.028.1-.016.308a.38.38,0,0,1-.162.149,2.037,2.037,0,0,0-.649.518c-.269.266-.4.462-.4.592,0,.187.182.285.55.285a2.361,2.361,0,0,0,1.052-.3c.063-.023.107-.033.13-.018s.008.065-.047.13" transform="translate(-76.99 -81.632)"/></g><g transform="translate(34.472)"><path class="a" d="M304.08,48.074a4.58,4.58,0,0,1-.109,1c-.12.631-.228.946-.316.946q-.073,0-.1-.391c-.033-.555-.054-.87-.054-.935q-.2-2.04-1.044-6.864-.236-1.338-.631-4-.2-.171-.163-.261c.054-.158.147-.391.272-.707a1.162,1.162,0,0,1,.185-.391,6.647,6.647,0,0,1,.653,1.262,4.531,4.531,0,0,1,.566,1.468c-.054.033-.169-.033-.337-.218-.049-.054-.174-.185-.381-.392Q303,40.6,303.732,45a26.412,26.412,0,0,1,.348,3.078" transform="translate(-262.856 -36.468)"/><path class="a" d="M264.79,48.672a2.718,2.718,0,0,0-.984.245,14.451,14.451,0,0,1-.52-2.171q-.579-4.536-.827-7.255c.2.207.315.326.359.37.163.2.272.277.337.25v-.065a11.472,11.472,0,0,0-.479-1.4c-.321-.848-.522-1.273-.6-1.273-.033,0-.1.136-.2.4-.087.163-.2.391-.337.685-.016.065.043.158.163.272a71.141,71.141,0,0,0,.859,8.2,15.32,15.32,0,0,0,.506,2.274c0,.011.005.021.008.032a5.9,5.9,0,0,1-1.849.642.362.362,0,0,0-.078.01,1.134,1.134,0,0,1-.66-.285,1.107,1.107,0,0,1-.239-.359c-.087-.174-.152-.261-.185-.261s-.076.163-.13.489a5.3,5.3,0,0,0-.087.577,3.873,3.873,0,0,1,.392.723,3.084,3.084,0,0,1,.391,1.256c0,.212-.577.707-1.719,1.479a5.139,5.139,0,0,1-2.741,1.044,1.607,1.607,0,0,1-1.849-1.784,4.382,4.382,0,0,1,.228-1.273,3.558,3.558,0,0,0,.152-.62c-.076-.044-.163.022-.272.2a5.074,5.074,0,0,0-.533,2.415q0,2.178,2.056,2.175a5.413,5.413,0,0,0,2.622-.935,5.835,5.835,0,0,0,2.078-1.827,2.558,2.558,0,0,0,.277-.93,3.56,3.56,0,0,0,.049-1,3.631,3.631,0,0,0,1.347-.315c.364-.174.729-.348,1.087-.522.5.892,1.023,1.338,1.577,1.338.62,0,.924-.56.924-1.675A1,1,0,0,0,264.79,48.672Zm.359,1.719a1.128,1.128,0,0,1-.859-.533,1.292,1.292,0,0,1,.652-.022.635.635,0,0,1,.316.174.418.418,0,0,1,.163.261C265.421,50.353,265.329,50.391,265.149,50.391Z" transform="translate(-227.342 -37.14)"/><g transform="translate(5.966 5.376)"><path class="a" d="M194.883,68.8l-1.131-.663-.544.979,1.131.663Z" transform="translate(-188.172 -65.391)"/><path class="a" d="M198.849,62.226a2.881,2.881,0,0,0-.979-.62,7.315,7.315,0,0,0-3.1-.109q-3.133.326-4.7.533a17.054,17.054,0,0,1-3.633.043c-.886-.12-1.327-.315-1.327-.6s.446-.718,1.327-1.338a7.486,7.486,0,0,1,3.7-1.631.306.306,0,0,1,.25.087,1.431,1.431,0,0,0,.2.228c.065,0,.141-.125.217-.37a1.966,1.966,0,0,0,.12-.566c0-.3-.12-.446-.359-.446a7.3,7.3,0,0,0-3.72,1.6c-1.577,1.088-2.36,2.121-2.36,3.1,0,.522.511.843,1.523.957a19.4,19.4,0,0,0,4.253-.131q3.361-.383,4.634-.511a6.316,6.316,0,0,1,2.2.087,2.286,2.286,0,0,1,1.632,1.229q-3.1.6-6.9,1.044a54.394,54.394,0,0,1-6.07.446l-.015,0-.014,0q-4.463,0-5.547-1.827c-.1-.169-.169-.25-.2-.25s-.087.19-.168.571a2.775,2.775,0,0,0-.1.614,3.78,3.78,0,0,1,.935,2,.426.426,0,0,1-.13.316,8.566,8.566,0,0,1-1.827,1.338,6.147,6.147,0,0,1-2.85,1,1.6,1.6,0,0,1-1.827-1.784,5.046,5.046,0,0,1,.2-1.273,3.479,3.479,0,0,0,.163-.642c-.082-.033-.163.044-.25.218a4.949,4.949,0,0,0-.555,2.415q0,2.178,2.067,2.175a6.137,6.137,0,0,0,3.209-1.24,5.3,5.3,0,0,0,1.958-1.827,3.249,3.249,0,0,0,.272-1.36,11.114,11.114,0,0,0,4.405.62h.007a64.96,64.96,0,0,0,7.625-.685q4.34-.612,5.1-.8c.212-.044.414-.087.6-.13.044,0,.163-.207.359-.615a3.86,3.86,0,0,0,.294-.7A1.543,1.543,0,0,0,198.849,62.226Z" transform="translate(-173.563 -57.44)"/></g><path class="a" d="M164.462,102.122l-.544.979-1.109-.653-.457.816-1.131-.663.544-.979,1.109.653.457-.816,1.131.664" transform="translate(-158.419 -84.798)"/><path class="a" d="M160.83,63.423a1.516,1.516,0,0,1-.119.571c-.076.2-.142.3-.2.3q-.041,0-.277-.31t-.408-.31c-.326,0-.838.332-1.534,1.006s-1.044,1.18-1.044,1.528c0,.163.169.332.511.5a2.238,2.238,0,0,0,.849.261,4.451,4.451,0,0,1,1.555.337.733.733,0,0,1,.381.663,2.164,2.164,0,0,1-.435,1.4,7.756,7.756,0,0,1-2.763,1.86,9.613,9.613,0,0,1-3.894,1.033,2.9,2.9,0,0,1-2.926-1.893,4.189,4.189,0,0,1-.087-2.534,7.37,7.37,0,0,1,.576-1.621c.174-.348.283-.511.337-.489s.027.207-.1.566a6.4,6.4,0,0,0-.446,1.98,2.739,2.739,0,0,0,.7,1.925,2.969,2.969,0,0,0,2.317.881,8.055,8.055,0,0,0,2.871-.62,14.317,14.317,0,0,0,2.35-1.164c.653-.392.979-.62.979-.7,0-.2-.294-.337-.881-.4q-2.415-.269-2.415-1.349a4.641,4.641,0,0,1,1.262-2.817c.81-.99,1.5-1.49,2.078-1.49a.682.682,0,0,1,.533.266.907.907,0,0,1,.228.615" transform="translate(-150.292 -55.858)"/><path class="a" d="M249.118,51.559a1.181,1.181,0,0,1-.1.292c-.068.16-.124.247-.168.259q-2.929.983-4.649,1.59-3.259,1.138-4.665,1.765a.681.681,0,0,1,.124-.356.8.8,0,0,1,.22-.251q4.026-1.684,9.242-3.3" transform="translate(-216.655 -47.69)"/><path class="a" d="M202.121,98.757c.02.032.008.1-.04.208a.439.439,0,0,1-.108.168l-2.029.755a14.514,14.514,0,0,0-1.865.819.448.448,0,0,1,0-.248.356.356,0,0,1,.084-.2,38.114,38.114,0,0,1,3.958-1.506" transform="translate(-185.816 -82.789)"/><path class="a" d="M285.583,96.866c0-.217-.076-.326-.232-.326q-.2,0-.2.13c0,.018.051.054.156.1a.884.884,0,0,0,.271.09m.253-.087c0,.293-.051.441-.159.441a1.141,1.141,0,0,1-.774-.3,1.094,1.094,0,0,1-.217.477,4.59,4.59,0,0,1-1.324.709c-.611.275-.977.427-1.092.463-.5.1-.926.181-1.288.231h-.08c-.018-.007-.025-.018-.014-.029s.022-.033.072-.044c.13-.036.47-.166,1.027-.383.629-.246,1.089-.434,1.375-.565a4.983,4.983,0,0,0,1.3-.694.8.8,0,0,0,.2-.268,1.256,1.256,0,0,1,.235-.423c.116-.152.217-.228.3-.228a.384.384,0,0,1,.3.2.691.691,0,0,1,.141.409" transform="translate(-247.404 -80.866)"/><path class="a" d="M169.658,45.838c.085-.36.031-.542-.17-.542-.178,0-.271.074-.271.225,0,.108.147.213.441.317m.526.209a.552.552,0,0,1-.069.182c-.047.089-.074.135-.085.135a1.8,1.8,0,0,1-.434-.132,5.218,5.218,0,0,1-1.866,1.494q-.117.058-.592.244a2.276,2.276,0,0,1-.507.167,2.143,2.143,0,0,1,.5-.317,8.748,8.748,0,0,0,2.362-1.634c-.348-.159-.527-.349-.527-.573a.811.811,0,0,1,.225-.465.593.593,0,0,1,.426-.279c.17,0,.256.19.256.573a1.26,1.26,0,0,1-.077.441q.395.128.395.163" transform="translate(-162.441 -42.716)"/><path class="a" d="M173.053,56.737a1.668,1.668,0,0,1-.271.974.72.72,0,0,1-.554.391.356.356,0,0,1-.288-.135,1.227,1.227,0,0,1-.777.448c-.326,0-.494-.192-.494-.577a1.942,1.942,0,0,1,.168-.641c.108-.288.2-.436.277-.436.06,0,.087.058.071.179-.033.263-.049.4-.049.4,0,.083.065.128.2.128a.682.682,0,0,0,.538-.314c.163-.205.239-.314.223-.314.071,0,.119.051.141.16s.054.154.1.154a.467.467,0,0,0,.418-.314,1.306,1.306,0,0,1,.179-.314q.114,0,.114.211" transform="translate(-165.444 -51.384)"/><path class="a" d="M214.5,44.679c.037.044.037.154,0,.336s-.065.27-.117.27c0,0-.037-.055-.117-.176s-.154-.182-.248-.182c-.178,0-.3.391-.384,1.185s-.145,1.18-.21,1.164c-.075,0-.154-.171-.248-.524a2.087,2.087,0,0,0-.519-1.014.28.28,0,0,1-.056.088c-.037.017-.14-.027-.318-.143s-.262-.215-.276-.3c-.037-.408.023-.612.192-.612.3-.011.631.37.977,1.152a4.19,4.19,0,0,0,.21.562c.037-.375.089-.75.154-1.13.1-.689.262-1.031.477-1.014.164,0,.323.11.482.342" transform="translate(-196.176 -42.32)"/><path class="a" d="M241.552,96.067c.037.044.037.154,0,.336s-.065.27-.117.27c0,0-.037-.055-.117-.176s-.154-.182-.248-.182c-.178,0-.3.391-.384,1.185s-.145,1.18-.21,1.164c-.075,0-.154-.171-.248-.524a2.089,2.089,0,0,0-.519-1.014.29.29,0,0,1-.056.088c-.037.017-.14-.027-.318-.143s-.262-.215-.276-.3c-.037-.408.024-.612.192-.612.3-.011.631.37.977,1.152a4.229,4.229,0,0,0,.21.562c.037-.375.089-.75.154-1.13.1-.689.262-1.031.477-1.014.164,0,.322.11.481.342" transform="translate(-216.295 -80.534)"/><path class="a" d="M279.94,63.733q0-.035-.283-.241a2.565,2.565,0,0,0-.3-.2c-.024,0-.061.061-.108.194a1.043,1.043,0,0,0-.066.269.188.188,0,0,0,.213.212,1.089,1.089,0,0,0,.316-.085c.151-.057.226-.109.226-.146m.231-.194c0,.6-.269.911-.812.911-.269,0-.406-.165-.406-.505a1.932,1.932,0,0,1,.368-1.1c.061-.207.113-.311.151-.311s.047.024.019.08a.589.589,0,0,0-.057.231q.736.439.736.694" transform="translate(-245.97 -55.852)"/></g><g transform="translate(73.661 0.69)"><path class="a" d="M407.328,57.5a4.578,4.578,0,0,1-.109,1c-.12.631-.228.946-.315.946q-.073,0-.1-.392c-.033-.555-.054-.87-.054-.935q-.2-2.039-1.044-6.864-.236-1.337-.631-4-.2-.171-.163-.261c.054-.158.147-.391.272-.707a1.161,1.161,0,0,1,.185-.391,6.649,6.649,0,0,1,.653,1.262,4.522,4.522,0,0,1,.566,1.468c-.054.033-.169-.033-.337-.218-.049-.054-.174-.185-.381-.391q.375,2.007,1.11,6.406a26.361,26.361,0,0,1,.348,3.078" transform="translate(-378.823 -44.167)"/><path class="a" d="M349.727,72.99l-1.131-.664-.544.979,1.131.664Z" transform="translate(-336.542 -63.824)"/><path class="a" d="M382.685,95.582l1.131.664.544-.979-1.131-.663Z" transform="translate(-362.296 -80.39)"/><path class="a" d="M328.354,47.439q-.326-1.982-.685-3.97c.212.212.337.348.381.4.163.185.272.256.337.228v-.044a9.324,9.324,0,0,0-.566-1.425,5.263,5.263,0,0,0-.642-1.273c-.033,0-.12.179-.272.533q-.155.408-.2.555c-.016.06.038.152.152.272.239,1.664.435,2.871.577,3.633q.571,3.279.674,4.656a.814.814,0,0,1-.446.729,1.63,1.63,0,0,1-.868.27.141.141,0,0,0-.05-.009,1.03,1.03,0,0,1-.816-.337,1.136,1.136,0,0,1-.163-.892c.016-.13-.016-.2-.087-.2a1.3,1.3,0,0,0-.381.2,8.351,8.351,0,0,1-2.415.892A11.355,11.355,0,0,1,320.27,52q-2.5,0-3.121-.794a.834.834,0,0,1-.2-.859c.038-.1.011-.142-.065-.142-.125,0-.326.228-.609.686-.413.685-.87,1.022-1.359,1.022a.37.37,0,0,0-.052.006,1.028,1.028,0,0,1-.78-.475,6.778,6.778,0,0,1-.62-2.23q-.359-2.3-.555-3.426-.62-4.128-1.066-5.8c-.141-.555-.228-.827-.272-.827a2.971,2.971,0,0,0-.158.593,5.2,5.2,0,0,0-.136.7c0-.044.272,1.5.8,4.612s.8,4.938.8,5.46a.98.98,0,0,1-.49.87,13.266,13.266,0,0,1-2.632,1.24,9.87,9.87,0,0,1-3.318.7,3.009,3.009,0,0,1-2.04-.647A2.127,2.127,0,0,1,303.666,51a4.8,4.8,0,0,1,.152-.957c.1-.343.109-.522.043-.533-.076-.054-.168.06-.283.326a4.573,4.573,0,0,0-.424,1.849,2.67,2.67,0,0,0,.783,2.012,3.2,3.2,0,0,0,2.36.816,10.116,10.116,0,0,0,3.23-.707,12.248,12.248,0,0,0,2.871-1.447,2,2,0,0,0,.729-1.425c.234,1.266.725,1.946,1.467,2.051a.116.116,0,0,0,.061.017c.025,0,.049,0,.073,0s.048,0,.074,0a.37.37,0,0,0,.12-.021,1.6,1.6,0,0,0,1.158-.827,6.566,6.566,0,0,1,.4-.631q.49,1.566,3.523,1.566h0a11.3,11.3,0,0,0,3.056-.489,8.256,8.256,0,0,0,2.317-.946q.122,1.435,1.11,1.436a.379.379,0,0,0,.1-.014,1.882,1.882,0,0,0,1.565-.911,3.556,3.556,0,0,0,.511-2A17,17,0,0,0,328.354,47.439Z" transform="translate(-303.155 -39.161)"/><path class="a" d="M315.978,71.958a4.105,4.105,0,0,0,1.588-.234,2.987,2.987,0,0,0,.653-.7,1.916,1.916,0,0,0,.446-1.044q0-.425-.669-.424t-.669-.13c0-.3.228-.484.674-.555.043-.016.12-.152.223-.413a1.718,1.718,0,0,0,.158-.522q0-.065-.1-.065c-.234,0-.56.288-.973.854a2.611,2.611,0,0,0-.626,1.408q0,.571,1.273.588a1.993,1.993,0,0,1-.87.6c-.37.147-.751.3-1.142.468-.119.043-.174.082-.174.109C315.771,71.952,315.842,71.969,315.978,71.958Z" transform="translate(-312.537 -60.509)"/><path class="a" d="M328.753,56.716c-.09.321-.233.484-.431.484a.277.277,0,0,1-.248-.123,1.107,1.107,0,0,1-.173-.6,3.289,3.289,0,0,1,.08-.627,6.358,6.358,0,0,1,.328-1.108c.06-.15.11-.226.146-.226.013.005.02.023.02.05a.706.706,0,0,1-.053.216q-.1.3-.286,1.12a1.117,1.117,0,0,0,.04.7.256.256,0,0,0,.236.165.2.2,0,0,0,.155-.073q.038-.053.113-.165c.025-.06.045-.09.06-.09.06,0,.068.09.013.276" transform="translate(-321.557 -50.583)"/><path class="a" d="M377.442,77.725c-.09.321-.233.484-.431.484a.277.277,0,0,1-.248-.123,1.109,1.109,0,0,1-.173-.6,3.282,3.282,0,0,1,.08-.627A6.293,6.293,0,0,1,377,75.756c.06-.15.11-.226.145-.226.013,0,.02.023.02.05a.7.7,0,0,1-.053.216q-.1.3-.286,1.12a1.116,1.116,0,0,0,.04.7.256.256,0,0,0,.236.165.2.2,0,0,0,.155-.073q.038-.053.113-.166c.025-.06.045-.09.06-.09.06,0,.068.09.013.276" transform="translate(-357.764 -66.206)"/><path class="a" d="M368.555,66.271a1.18,1.18,0,0,1-.1.292c-.068.16-.124.247-.168.259q-2.929.983-4.649,1.59-3.259,1.138-4.665,1.765a.681.681,0,0,1,.124-.356.8.8,0,0,1,.22-.251q4.026-1.684,9.242-3.3" transform="translate(-344.661 -59.321)"/><path class="a" d="M318.8,48.556c.085-.36.031-.542-.17-.542-.178,0-.271.074-.271.225,0,.108.147.213.441.318m.527.209a.553.553,0,0,1-.07.182c-.046.089-.074.136-.085.136a1.8,1.8,0,0,1-.434-.132,5.215,5.215,0,0,1-1.866,1.495q-.116.058-.592.244a2.266,2.266,0,0,1-.507.166,2.137,2.137,0,0,1,.5-.317,8.734,8.734,0,0,0,2.362-1.634c-.348-.159-.527-.348-.527-.573a.81.81,0,0,1,.225-.465.592.592,0,0,1,.426-.279c.17,0,.255.19.255.573a1.26,1.26,0,0,1-.077.441q.395.128.4.163" transform="translate(-312.537 -45.428)"/><path class="a" d="M369.97,47.95c.025.03.025.129,0,.3-.016.067-.044.07-.088,0a.252.252,0,0,0-.22-.155c-.129,0-.195.089-.195.274-.016.333-.031.729-.05,1.184.041,0,.126.063.251.189a.833.833,0,0,1,.2.248.416.416,0,0,1-.031.2c-.028.078-.05.118-.069.118a1.729,1.729,0,0,0-.562.167c-.195.089-.289.178-.279.263.317,1.813.477,2.806.477,2.968,0,.122-.013.185-.038.185s-.028-.041-.038-.1c-.056-.4-.157-.984-.3-1.739a8.808,8.808,0,0,1-.207-1.258.869.869,0,0,1,.195-.563.642.642,0,0,1,.4-.259.273.273,0,0,0-.188-.059q-.08,0-.132.122t-.075.122c-.006,0-.013-.022-.013-.074a.764.764,0,0,1,.075-.318c.057-.14.126-.215.207-.215a1.458,1.458,0,0,0-.157-.392,1.131,1.131,0,0,0-.283-.429c-.016.081-.031.126-.05.126a.748.748,0,0,1-.257-.152q-.207-.15-.207-.211c0-.274.038-.415.119-.415a.659.659,0,0,1,.433.259,2.5,2.5,0,0,1,.452.792v-.015c0-.163,0-.429.013-.807q.047-.578.283-.577a.472.472,0,0,1,.333.215" transform="translate(-351.628 -45.537)"/><path class="a" d="M349.93,57.208q0-.035-.283-.24a2.582,2.582,0,0,0-.3-.2c-.024,0-.061.061-.108.194a1.047,1.047,0,0,0-.066.269.188.188,0,0,0,.212.213,1.086,1.086,0,0,0,.316-.085c.151-.057.226-.108.226-.146m.231-.193c0,.6-.269.911-.812.911-.269,0-.406-.165-.406-.505a1.929,1.929,0,0,1,.368-1.1c.061-.208.113-.311.151-.311s.047.024.019.08a.589.589,0,0,0-.056.231q.736.439.736.694" transform="translate(-337.205 -51.691)"/></g></g><g transform="translate(0.046 21.471)"><g transform="translate(0 1.686)"><g transform="translate(61.361)"><rect class="a" width="43.299" height="0.385"/></g><rect class="a" width="43.299" height="0.385"/></g><g transform="translate(44.711)"><path class="a" d="M187.305,121.166c-.1-.354-.271-.753-.745-.753a.58.58,0,0,0-.621.6c0,.388.26.576.719.8.478.233.975.493.975,1.1a1.139,1.139,0,0,1-1.272,1.061,1.73,1.73,0,0,1-.564-.09,1.838,1.838,0,0,1-.279-.116,8.342,8.342,0,0,1-.154-.877l.169-.049c.094.35.369.926.945.926a.6.6,0,0,0,.651-.648c0-.4-.3-.587-.73-.813-.391-.2-.93-.47-.93-1.076a1.056,1.056,0,0,1,1.178-1,2.406,2.406,0,0,1,.73.132c.023.2.049.421.1.783Z" transform="translate(-185.363 -120.221)"/><path class="a" d="M197.783,123.883v-.158c.35-.049.4-.1.324-.32s-.18-.493-.3-.809H196.6c-.094.252-.169.467-.241.685-.12.335-.075.4.35.444v.158h-1.242v-.158c.365-.056.444-.094.643-.583l1.182-2.872.2-.049c.361.975.723,1.953,1.1,2.921.181.486.26.546.625.583v.158Zm-.553-2.906h-.011c-.181.456-.358.926-.527,1.37h1.031Z" transform="translate(-192.875 -120.221)"/><path class="a" d="M214.27,124.123v-.158c.455-.045.478-.083.47-.662l-.019-2.21H214.7l-1.377,3h-.113l-1.268-2.921h-.015l-.083,1.547a8.542,8.542,0,0,0-.011.907c.011.259.143.3.516.335v.166h-1.321v-.166c.324-.03.433-.109.478-.327.03-.192.064-.429.109-1.02l.083-1.106c.049-.715.015-.745-.489-.794v-.166h.96l1.276,2.706,1.295-2.706h.986v.166c-.493.042-.527.06-.508.606l.053,1.987c.019.579.034.617.523.662v.158Z" transform="translate(-204.447 -120.461)"/><path class="a" d="M233.016,123.883v-.158c.35-.049.4-.1.324-.32s-.181-.493-.3-.809H231.83c-.094.252-.169.467-.241.685-.12.335-.075.4.35.444v.158H230.7v-.158c.365-.056.444-.094.644-.583l1.182-2.872.2-.049c.361.975.722,1.953,1.1,2.921.18.486.26.546.625.583v.158Zm-.553-2.906h-.011c-.181.456-.358.926-.527,1.37h1.031Z" transform="translate(-219.075 -120.221)"/></g></g><g transform="translate(0 26.875)"><path class="a" d="M15.436,145.927c-.235-.849-.65-1.806-1.788-1.806a1.392,1.392,0,0,0-1.49,1.436c0,.93.623,1.381,1.725,1.914,1.146.56,2.338,1.183,2.338,2.636,0,1.417-1.21,2.546-3.051,2.546a4.157,4.157,0,0,1-1.354-.216,4.348,4.348,0,0,1-.668-.28,20.067,20.067,0,0,1-.37-2.1l.406-.117c.226.839.885,2.221,2.266,2.221a1.44,1.44,0,0,0,1.562-1.553c0-.957-.722-1.408-1.751-1.95-.939-.47-2.23-1.129-2.23-2.582a2.532,2.532,0,0,1,2.826-2.411,5.762,5.762,0,0,1,1.751.316c.054.47.117,1.011.235,1.878Z" transform="translate(-10.777 -143.056)"/><path class="a" d="M40.184,160.927a1.066,1.066,0,0,1-.686-.262,1.185,1.185,0,0,1-.325-.56,4.492,4.492,0,0,1-1.553.822,1.631,1.631,0,0,1-1.661-1.625c0-.659.361-1.056,1.092-1.291a8.509,8.509,0,0,0,2.077-.858v-.235c0-.948-.433-1.454-1.074-1.454a.767.767,0,0,0-.569.235,2.072,2.072,0,0,0-.406.894.419.419,0,0,1-.433.325.664.664,0,0,1-.614-.587c0-.2.171-.361.433-.542a6.2,6.2,0,0,1,2.049-.93,1.808,1.808,0,0,1,1.12.334,1.986,1.986,0,0,1,.641,1.67v2.374c0,.587.235.786.478.786a1.051,1.051,0,0,0,.479-.145l.135.352Zm-1.056-3.313c-.271.135-.813.388-1.092.515-.524.226-.813.488-.813.975a.942.942,0,0,0,.921,1,1.6,1.6,0,0,0,.984-.433Z" transform="translate(-29.503 -151.384)"/><path class="a" d="M64.581,160.641a9.436,9.436,0,0,0-1.056.208c-.37.1-.731.19-1.011.262l-.09-.072V160.1a10.76,10.76,0,0,1-.948.677,2.1,2.1,0,0,1-1.065.334c-.939,0-1.7-.56-1.7-1.977v-2.519c0-.722-.108-.785-.451-.867l-.361-.09v-.316c.271-.009.632-.054,1.011-.09s.776-.108,1.011-.144c-.036.406-.036,1.038-.036,1.914V158.8c0,1.1.56,1.444,1.156,1.444a2,2,0,0,0,1.381-.587v-3.042c0-.722-.117-.8-.551-.876l-.478-.081v-.316a12.583,12.583,0,0,0,1.264-.108,8.339,8.339,0,0,0,.93-.126v4.352c0,.686.108.776.632.812l.361.018Z" transform="translate(-45.82 -151.568)"/><path class="a" d="M94.164,150.348a18.441,18.441,0,0,0-2.185.5V150l-.794.469a2.37,2.37,0,0,1-1.029.379,2.681,2.681,0,0,1-2.555-2.808,3.416,3.416,0,0,1,3.512-3.259,3,3,0,0,1,.866.145v-1.86c0-.858-.09-.894-1.038-.957v-.343a13.591,13.591,0,0,0,2.2-.46v7.827c0,.722.1.785.641.84l.379.036Zm-2.185-4.379a1.656,1.656,0,0,0-1.363-.686c-.569,0-1.688.478-1.688,2.392,0,1.58,1,2.3,1.833,2.3a2.317,2.317,0,0,0,1.219-.415Z" transform="translate(-67.906 -141.302)"/><path class="a" d="M115.2,153.31v-.352c.84-.082.939-.163.939-1.084V149.22c0-.831-.045-.894-.84-1.029v-.316a10.008,10.008,0,0,0,2-.506v4.505c0,.912.09.984.948,1.084v.352Zm.7-7.746a.738.738,0,0,1,.74-.74.708.708,0,0,1,.7.74.717.717,0,0,1-.722.713A.741.741,0,0,1,115.9,145.563Z" transform="translate(-88.43 -143.92)"/><path class="a" d="M144.827,150.179a13.454,13.454,0,0,1-.785,2.095,12.619,12.619,0,0,1-2.591.379c-3.485,0-5.038-2.3-5.038-4.388,0-2.781,2.248-4.6,5.381-4.6a11.453,11.453,0,0,1,2.51.379c.108.749.208,1.318.289,2.067l-.406.09a2.473,2.473,0,0,0-2.745-2.04,3.553,3.553,0,0,0-3.53,3.828c0,2.492,1.526,4.153,3.647,4.153,1.4,0,2.167-.749,2.88-2.113Z" transform="translate(-104.204 -143.056)"/><path class="a" d="M178.11,159.6a3.11,3.11,0,0,1-2.266,1.327,2.635,2.635,0,0,1-2.627-2.8,3.3,3.3,0,0,1,.858-2.257,2.834,2.834,0,0,1,2.022-1.011h.009a2.088,2.088,0,0,1,2.058,2.031c0,.253-.072.37-.316.424-.244.036-1.923.172-3.476.226.027,1.706,1.029,2.428,1.959,2.428a2.233,2.233,0,0,0,1.553-.659Zm-2.329-4.244c-.578,0-1.156.515-1.345,1.616.713,0,1.426,0,2.176-.027.235-.009.316-.081.316-.253a1.225,1.225,0,0,0-1.138-1.336Z" transform="translate(-131.574 -151.384)"/><path class="a" d="M200.448,160.644v-.352c.767-.082.858-.19.858-1.12v-2.149c0-.921-.37-1.472-1.192-1.472a2.389,2.389,0,0,0-1.408.65v3.051c0,.9.072.957.849,1.039v.352h-2.979v-.352c.894-.108.966-.172.966-1.056v-2.654c0-.858-.09-.912-.794-1.038v-.334a9,9,0,0,0,1.959-.523v1.065c.271-.2.56-.406.9-.632a2,2,0,0,1,1.11-.388c1.065,0,1.742.749,1.742,2.059v2.465c0,.9.081.939.858,1.039v.352Z" transform="translate(-148.944 -151.254)"/><path class="a" d="M227.954,155.745a1.27,1.27,0,0,1-.569.18c-.894,0-1.39-.505-1.39-1.571v-3.792h-.912l-.063-.153.37-.4H226v-.957l.984-.921.181.036v1.842h1.5a.387.387,0,0,1-.09.551H227.16v3.332c0,1.065.46,1.246.794,1.246a1.876,1.876,0,0,0,.812-.226l.117.361Z" transform="translate(-170.097 -146.383)"/><path class="a" d="M247.177,156.157c.442-.722.993-1.427,1.616-1.427a.762.762,0,0,1,.812.677.787.787,0,0,1-.469.713.33.33,0,0,1-.361-.036.8.8,0,0,0-.587-.271c-.343,0-.749.388-1.038,1.092v2.356c0,.867.063.948,1.111,1.03v.352h-3.205v-.352c.812-.082.93-.163.93-1.03v-2.735c0-.84-.072-.894-.822-1v-.3a8.811,8.811,0,0,0,1.986-.541v1.472Z" transform="translate(-184.995 -151.254)"/><path class="a" d="M270.691,160.927a1.067,1.067,0,0,1-.686-.262,1.19,1.19,0,0,1-.325-.56,4.492,4.492,0,0,1-1.553.822,1.631,1.631,0,0,1-1.661-1.625c0-.659.361-1.056,1.092-1.291a8.509,8.509,0,0,0,2.077-.858v-.235c0-.948-.433-1.454-1.074-1.454a.767.767,0,0,0-.569.235,2.066,2.066,0,0,0-.406.894.42.42,0,0,1-.434.325.664.664,0,0,1-.614-.587c0-.2.172-.361.433-.542a6.2,6.2,0,0,1,2.049-.93,1.809,1.809,0,0,1,1.12.334,1.985,1.985,0,0,1,.641,1.67v2.374c0,.587.235.786.478.786a1.05,1.05,0,0,0,.479-.145l.135.352Zm-1.056-3.313c-.271.135-.812.388-1.092.515-.524.226-.813.488-.813.975a.942.942,0,0,0,.921,1,1.6,1.6,0,0,0,.984-.433Z" transform="translate(-200.917 -151.384)"/><path class="a" d="M288.057,150.691v-.352c.84-.1.957-.172.957-1.056v-6.194c0-.894-.09-.921-.921-1v-.325a12.406,12.406,0,0,0,2.077-.46v7.981c0,.894.117.975.993,1.056v.352Z" transform="translate(-216.973 -141.302)"/><path class="a" d="M314.432,148.409c1.382.18,2.438.758,2.438,2.085a2.239,2.239,0,0,1-1.282,2,5.79,5.79,0,0,1-2.691.524h-3.106v-.379c1.156-.081,1.246-.171,1.246-1.282v-5.245c0-1.129-.063-1.21-1.129-1.282v-.4h3.575a3.494,3.494,0,0,1,2.068.46,1.819,1.819,0,0,1,.758,1.508,2.121,2.121,0,0,1-1.878,1.959Zm-1.553-.172c1.463,0,2.077-.569,2.077-1.661a1.583,1.583,0,0,0-1.761-1.7,1.459,1.459,0,0,0-.749.163c-.117.081-.153.235-.153.641v2.555Zm-.587,3.088c0,.984.262,1.237,1.111,1.228a1.835,1.835,0,0,0,2.013-1.923c0-1.327-.921-1.932-2.564-1.932h-.56Z" transform="translate(-233.136 -143.633)"/><path class="a" d="M346.1,160.927a1.067,1.067,0,0,1-.686-.262,1.187,1.187,0,0,1-.325-.56,4.491,4.491,0,0,1-1.553.822,1.631,1.631,0,0,1-1.661-1.625c0-.659.361-1.056,1.093-1.291a8.511,8.511,0,0,0,2.076-.858v-.235c0-.948-.433-1.454-1.074-1.454a.767.767,0,0,0-.569.235,2.066,2.066,0,0,0-.406.894.419.419,0,0,1-.433.325.664.664,0,0,1-.614-.587c0-.2.172-.361.433-.542a6.2,6.2,0,0,1,2.05-.93,1.808,1.808,0,0,1,1.12.334,1.986,1.986,0,0,1,.641,1.67v2.374c0,.587.235.786.479.786a1.049,1.049,0,0,0,.478-.145l.135.352Zm-1.056-3.313c-.271.135-.812.388-1.092.515-.524.226-.813.488-.813.975a.942.942,0,0,0,.921,1,1.6,1.6,0,0,0,.984-.433Z" transform="translate(-256.995 -151.384)"/><path class="a" d="M368.219,160.644v-.352c.767-.082.858-.19.858-1.12v-2.149c0-.921-.37-1.472-1.192-1.472a2.388,2.388,0,0,0-1.408.65v3.051c0,.9.072.957.849,1.039v.352h-2.979v-.352c.894-.108.966-.172.966-1.056v-2.654c0-.858-.09-.912-.794-1.038v-.334a9.009,9.009,0,0,0,1.959-.523v1.065c.271-.2.56-.406.9-.632a2,2,0,0,1,1.111-.388c1.065,0,1.742.749,1.742,2.059v2.465c0,.9.081.939.858,1.039v.352Z" transform="translate(-273.705 -151.254)"/><path class="a" d="M397.643,150.718c-.614-.668-1.454-1.76-2.158-2.6-.163-.2-.271-.271-.388-.271a.54.54,0,0,0-.2.018V149.3c0,.876.117.939.975,1.039v.352h-3.106v-.352c.894-.1.984-.19.984-1.039v-6.212c0-.858-.081-.93-.894-1.011v-.316a11.929,11.929,0,0,0,2.04-.46v6.22a1.605,1.605,0,0,0,.831-.46,8.214,8.214,0,0,0,.921-1.155c.271-.4.217-.506-.4-.578v-.361l2.817-.117v.343a2.736,2.736,0,0,0-1.769.768,15.785,15.785,0,0,0-1.129,1.219c.28.406,1.67,1.986,2.094,2.438a1.922,1.922,0,0,0,1.327.722v.352Z" transform="translate(-294.841 -141.302)"/></g></g><g transform="translate(121.768 6.252)"><g transform="translate(19.556 16.3)"><g transform="translate(0 15.869)"><path class="a" d="M522.322,131.735a11.848,11.848,0,0,1-1.356.935c.112.129.233.258.35.387,0,.148,0,.3,0,.446-.386.145-.853.238-1.078.62a3.612,3.612,0,0,0-.23,1.732c.771,0,1.54.005,2.311,0C522.317,134.481,522.3,133.108,522.322,131.735Zm-.945,3.344H520.9c.015-.612.475-.584.475-.584Z" transform="translate(-520.012 -131.735)"/><path class="a" d="M569.019,139.428c-.24-.452-.611-.967-1.182-.956a1.3,1.3,0,0,0-1.049.594,2.737,2.737,0,0,0-.323,1.8c.443.1.934-.015,1.4.053-.165.744-1.016.851-1.649.768l.036.266a4.366,4.366,0,0,0,1.076.317A2.01,2.01,0,0,0,569.019,139.428Zm-1.278.757a.43.43,0,1,1,.43-.43A.43.43,0,0,1,567.74,140.185Z" transform="translate(-554.368 -136.743)"/><path class="a" d="M537.034,134.879h-.969l2.161,2.359H536.3v-.021a1.184,1.184,0,0,0-.023-.254.629.629,0,0,1,.005.069l-.013-.092.008.023c-.005-.033-.005-.064-.01-.095a1.159,1.159,0,0,0-1.128-1,.05.05,0,0,0-.021,0H532.7c-.128-.118-.259-.238-.387-.351a11.689,11.689,0,0,1-.936,1.356l.815-.008.526,0h2.433v.374h-3.774v.955h.7c2.1.012,4.857,0,7.03,0l.294.326h.961l-2.915-3.451A.541.541,0,0,0,537.034,134.879Z" transform="translate(-528.461 -134.073)"/></g><g transform="translate(0.008)"><path class="a" d="M567.471,75.592a3.019,3.019,0,0,0-.336-.523c.111-.256.4-.441.363-.751,0-.158,0-.316,0-.474.006-.559,0-1.117,0-1.677,0-.153,0-.306.006-.459l.165-.084.116-.058.027-.014.074-.038a4.2,4.2,0,0,1-.381-.33c-.106-.1-.207-.207-.307-.315l-.213-.231-.158-.171c-.1-.111-.208-.221-.317-.326q-.006.639-.011,1.279,0,.373,0,.747c0,.334,0,.668,0,1-.007.229.01.483,0,.731a1.721,1.721,0,0,1-.1.562c-.031,0-.068,0-.108,0h-.006l-.129,0v0h-.244a1.722,1.722,0,0,1-.1-.562c-.01-.248.007-.5,0-.731,0-.334,0-.668,0-1q0-.373,0-.747-.005-.639-.011-1.279c-.109.105-.213.215-.317.326l-.158.171-.214.231c-.1.107-.2.213-.307.315a4.222,4.222,0,0,1-.381.33l.074.038.027.014.116.058.165.084c0,.153,0,.306.006.459,0,.559-.007,1.118,0,1.677,0,.158,0,.316,0,.474-.035.31.252.5.363.751a3.02,3.02,0,0,0-.336.523c-.045.551,0,1.1-.028,1.655H567.5C567.468,76.7,567.515,76.144,567.471,75.592Zm-.945.757h-.746v-.49l.2-.256h.337l.2.256Z" transform="translate(-553.046 -70.063)"/><path class="a" d="M556.582,72.245c-.046-.348.281-.543.472-.78a2.25,2.25,0,0,1-.927-.75,1.933,1.933,0,0,0-.552-.617c.01,2.371-.02,4.745.016,7.117h1C556.591,75.558,556.576,73.9,556.582,72.245Z" transform="translate(-546.464 -70.03)"/><path class="a" d="M528.235,77.019c.036-1.671-.021-3.555-.008-5.206-.047-.312.216-.5.408-.69-.589-.29-.872-.914-1.391-1.288.01,2.055.014,4.112-.006,6.169q-2.452-.013-4.9.023c.022-1.074-.014-2.147.011-3.222a12.585,12.585,0,0,1-1.382.924c.13.128.265.255.4.378-.006.167-.017.336-.033.5a2.288,2.288,0,0,0-1.029.593,3.261,3.261,0,0,0-.254,1.816Zm-7.3-.965.006-.016c.053-.525.469-.5.469-.5v.584h-.475c0-.024,0-.046.005-.068Z" transform="translate(-520.042 -69.834)"/></g><g transform="translate(0.024 7.943)"><g transform="translate(7.243 0.068)"><path class="a" d="M560.34,106.576a3.017,3.017,0,0,0-.336-.523c.111-.256.4-.441.363-.752,0-.158,0-.316,0-.474.006-.559,0-1.117,0-1.676,0-.153,0-.306.006-.459l.165-.084.116-.058.027-.014.074-.037a4.275,4.275,0,0,1-.381-.33c-.106-.1-.207-.208-.307-.315l-.213-.231-.158-.171c-.1-.111-.208-.221-.317-.326q-.007.639-.011,1.279,0,.373,0,.747c0,.334,0,.668,0,1-.007.229.009.483,0,.731a1.723,1.723,0,0,1-.1.562h-.114l-.129,0v0h-.244a1.722,1.722,0,0,1-.1-.562c-.01-.248.007-.5,0-.731,0-.334,0-.668,0-1q0-.373,0-.747-.005-.639-.011-1.279c-.109.105-.213.215-.317.326l-.158.171-.213.231c-.1.107-.2.213-.307.315a4.306,4.306,0,0,1-.381.33l.074.037.027.014.116.058.165.084c0,.153,0,.306.006.459,0,.559-.007,1.118,0,1.676,0,.158,0,.316,0,.474-.035.311.252.5.363.752a3.014,3.014,0,0,0-.336.523c-.045.551,0,1.1-.028,1.655h2.693C560.337,107.68,560.384,107.128,560.34,106.576Zm-.945.758h-.746v-.49l.2-.256h.337l.2.256Z" transform="translate(-555.003 -101.114)"/><path class="a" d="M549.368,103.33c-.034-.286.223-.446.41-.606.022-.041.066-.124.089-.165-.71-.189-.915-.971-1.507-1.3.014,2.357.084,4.714.031,7.072h1C549.4,106.663,549.408,105,549.368,103.33Z" transform="translate(-548.361 -101.211)"/><path class="a" d="M573.075,103.229c-.046-.348.281-.543.472-.78a2.249,2.249,0,0,1-.927-.75,1.936,1.936,0,0,0-.552-.617c.01,2.372-.02,4.745.016,7.117h1C573.084,106.541,573.069,104.885,573.075,103.229Z" transform="translate(-565.989 -101.081)"/></g><path class="a" d="M526.036,101.5a2.684,2.684,0,0,0-.537-.688,4.662,4.662,0,0,0-.028.682c.047,1.852-.028,3.706.013,5.558-.427,0-.854.014-1.278.009.013-1.389-.012-2.78,0-4.169-.045-.3.234-.483.4-.689a9.363,9.363,0,0,1-1.4-1.327c.041,2.061.032,4.124,0,6.184l-.8.01q.013-1.622-.005-3.243a11.018,11.018,0,0,1-1.349.938.9.9,0,0,1,.373.9,1.952,1.952,0,0,0-1.076.612,3.156,3.156,0,0,0-.236,1.723h6.332c-.031-1.314-.078-2.629-.015-3.945a5.9,5.9,0,0,1,.036-1.377,2.319,2.319,0,0,1,.428-.488A2.243,2.243,0,0,1,526.036,101.5Zm-4.565,5.668H521c.015-.612.475-.584.475-.584Z" transform="translate(-520.106 -100.817)"/></g></g><g transform="translate(3.166 4.598)"><path class="a" d="M466.995,56.528a22.644,22.644,0,0,1,3.873-6.154,2.3,2.3,0,0,1,.709.578,12.754,12.754,0,0,0-1.1,1.392,24.172,24.172,0,0,0-1.57,2.4c-.256.483-.493.978-.725,1.474.3.153.815.369,1.009-.049a18.6,18.6,0,0,1,2.413-3.822,2.345,2.345,0,0,1,.653-.74,5.478,5.478,0,0,0,.571,1.5c-.281.038-.63-.1-.854.123a22.2,22.2,0,0,0-2.232,3.639.822.822,0,0,1-.958.424A6.79,6.79,0,0,1,466.995,56.528Z" transform="translate(-464.196 -43.661)"/><path class="a" d="M494.78,24.712c.451-.215.932-.355,1.4-.524.464.777-.012,1.61-.309,2.344.727.639,1.786.979,2.134,1.97.353.887-.436,1.614-.653,2.422-1.143-.916-2.386-1.69-3.569-2.555-.261-.227-.542.156-.809.208a2.728,2.728,0,0,1-.6-.532l-.144.074a9.435,9.435,0,0,1,1.517-.9c.539.184.854.722,1.357.978.666.373,1.214,1.11,2.04,1.088a1.785,1.785,0,0,0-.381-.955,12.34,12.34,0,0,0-2.145-1.46c.154-.441.51-.8.532-1.293a21.18,21.18,0,0,0-2.836,1.428c-.8.407-1.475.988-2.227,1.461-.3.208-.528.492-.819.7-.594.408-1.03,1-1.616,1.416-.109-.3-.469-.619-.34-.934a23.17,23.17,0,0,1,5.123-3.813A22.427,22.427,0,0,1,494.78,24.712Z" transform="translate(-479.284 -24.188)"/><path class="a" d="M503.545,163.543c.276-.313.339-.837.74-1.015.188.644.268,1.315.479,1.954a2.59,2.59,0,0,0-.754.283c-.786,1.267-1.594,2.523-2.365,3.8-.277.083-.55-.165-.794-.276s-.055-.362.038-.5a19.52,19.52,0,0,0,1.2-1.954C502.614,165.091,502.978,164.252,503.545,163.543Z" transform="translate(-489.287 -127.063)"/><path class="a" d="M469.221,98.82c-.042.008-.124.023-.166.029-.98,1.621-2.073,3.171-3.043,4.8-.228.041-.378-.147-.529-.277a22.181,22.181,0,0,1-1.916-1.9,22.1,22.1,0,0,1,1.915-1.5c-.339-.249-.721-.429-1.061-.674-.27.666-.966.98-1.465,1.448a11.5,11.5,0,0,1-1.468-2.071c.691-.346,1.287-.848,1.991-1.171,0-.038,0-.116-.005-.155-.275-.262-.569-.5-.84-.762a3.923,3.923,0,0,1-1.71,1.228c-.427-.61-.622-1.345-1.051-1.952.033-.04.1-.116.136-.155.748-.262,1.452-.621,2.173-.949a3.832,3.832,0,0,1-.854-.922,3.759,3.759,0,0,1-1.82,1.042,19.606,19.606,0,0,1-1.325-5.275,12.131,12.131,0,0,1,2.315,1c-.046-.394-.063-.79-.134-1.178-.495-.237-1.051-.368-1.571-.556a9.99,9.99,0,0,1,1.512-.689c-.014-.431-.035-.862-.081-1.291-.408.2-.69.567-1.08.79-.367.212-.734.419-1.1.629a14.309,14.309,0,0,1-.066-2.268,31.985,31.985,0,0,1,.4-3.377,2.528,2.528,0,0,0,1.755-.4c.341-.308.741-.541,1.084-.848q-.272-.035-.541-.057a2.556,2.556,0,0,0-.868-1.308,1.547,1.547,0,0,0-1.08-.269.871.871,0,0,0-.464.229,1.849,1.849,0,0,0-.574,1.2l-.066-.03a1.3,1.3,0,0,1-.72-.551c-.284-.5-.081-1.084-.088-1.621a1.963,1.963,0,0,0-.621,2.084c.175.577.7.891,1.166,1.224a22.75,22.75,0,0,0,8.824,22.9l.109-.173h0a.35.35,0,0,0,.05-.078c.064-.1.129-.2.193-.307.783-1.251,1.6-2.481,2.379-3.731.151-.231.461-.23.7-.335C469.5,99.986,469.36,99.4,469.221,98.82Zm-10.09-18.27a.635.635,0,1,1-.635.635A.635.635,0,0,1,459.131,80.55Z" transform="translate(-456.076 -64.947)"/><g transform="translate(15.119 22.499)"><g transform="translate(24.329 2.188)"><path class="a" d="M609.952,121.72c.405-.418.827-.821,1.24-1.234.328.141.6.446.989.413,1.607,0,3.2.21,4.814.2a16.011,16.011,0,0,1-.872,3.7c.272.29.63.583.63,1.019a1.593,1.593,0,0,1-.547,1.464,2.281,2.281,0,0,1-1.222.406,20.213,20.213,0,0,1-1.068,1.969c.454.408,1.09.745,1.187,1.407a1.252,1.252,0,0,1-.753,1.355c-.021-.328-.005-.658-.01-.988a5.952,5.952,0,0,0-1.815-1.19,2.04,2.04,0,0,0-.991-.158,9.112,9.112,0,0,0-.074-1.617,12.694,12.694,0,0,0,1.511.795,11.459,11.459,0,0,0,1.133-1.912,1.751,1.751,0,0,1-.208-2.234,1.9,1.9,0,0,1,1.387-.741,19.067,19.067,0,0,0,.615-2.288,26.119,26.119,0,0,0-2.943-.279A22.194,22.194,0,0,0,609.952,121.72Zm4.591,4.028c-.3.4.092.826.429,1.034.238-.074.541-.042.725-.243.238-.182.2-.525.137-.781A.729.729,0,0,0,614.543,125.747Z" transform="translate(-609.952 -120.486)"/></g><path class="a" d="M516.524,170.655c.383-.789,1.363-.76,2.022-1.187a11.756,11.756,0,0,0,.381,1.664c.3.906.431,1.861.727,2.77.2.068.53-.049.662.176a5.357,5.357,0,0,1,.182.831c-.579-.064-1.143-.21-1.717-.3a17.341,17.341,0,0,0-.961-3.748l-.289.023a2.929,2.929,0,0,0,.064,2.239c.116.417.224.836.367,1.245a5.366,5.366,0,0,0-1.116.373c0,.053,0,.159,0,.211a19.531,19.531,0,0,0,4.256.951,23.062,23.062,0,0,0,4.609.054c-.07.331-.164.657-.265.98a22.643,22.643,0,0,1-5.187-.2,23.736,23.736,0,0,1-5.208-1.4c.146-.882,1.039-1.223,1.7-1.653C516.593,172.69,516.086,171.641,516.524,170.655Z" transform="translate(-515.05 -154.723)"/><path class="a" d="M611.079,113.38a18.615,18.615,0,0,1,1.589-1.429c.252.143.428.438.731.477,1.547.067,3.1.033,4.642.189-.011.309-.029.617-.046.927C615.689,113.515,613.384,113.425,611.079,113.38Z" transform="translate(-586.461 -111.951)"/><path class="a" d="M573.065,161.026a1.236,1.236,0,0,1,1.417.165,2.994,2.994,0,0,1,.943.943,22.188,22.188,0,0,1-2.455,2.634,24.869,24.869,0,0,1-4.764,3.3,23.061,23.061,0,0,1-3.037,1.274,19.979,19.979,0,0,1-2.877.785c.04.534.231,1.146-.1,1.626a1.307,1.307,0,0,1-1.145.291,2.1,2.1,0,0,0,.4-.513,5.012,5.012,0,0,0-.22-1.75,2.506,2.506,0,0,0-.685-1.124,5.812,5.812,0,0,0,1.133-1.08c.152.548.318,1.1.426,1.655a29.223,29.223,0,0,0,3.847-1.176,22.481,22.481,0,0,0,7.443-5.045,6.15,6.15,0,0,1,.908-.878c-.234-.193-.518-.491-.85-.334a6.155,6.155,0,0,0-.747.657,21.215,21.215,0,0,1-4.839,3.705c-.548.263-1.092.537-1.634.81-.676.334-1.425.474-2.1.8a3.175,3.175,0,0,1-.547.132c.476-.621.755-1.356,1.176-2.013.3-.5.5-1.058.817-1.549a8.159,8.159,0,0,1-.6,2.195,19.668,19.668,0,0,0,6.591-4.19C572.1,161.954,572.413,161.283,573.065,161.026Z" transform="translate(-548.875 -148.329)"/><circle class="a" cx="0.56" cy="0.56" r="0.56" transform="translate(11.12 17.169)"/></g><g transform="translate(28.699 0.013)"><path class="a" d="M570.013,24.238c.334.088.662.2.994.3-.352,1.329-.857,2.606-1.2,3.935-.2.864-.624,1.651-.808,2.518-.336-.609-.656-1.23-.97-1.847.235-.194.539-.336.66-.639.22-.505.308-1.058.5-1.576A22.846,22.846,0,0,0,570.013,24.238Z" transform="translate(-568.025 -24.238)"/><g transform="translate(2.041 0.78)"><path class="a" d="M578.008,27.279a9.8,9.8,0,0,1,1.9.874,22.735,22.735,0,0,1,8.139,7.311c.538.649.849,1.444,1.32,2.137a23.015,23.015,0,0,1,1.621,3.98,20.079,20.079,0,0,1,.984,6.062c-.451.009-.9.033-1.348.038a1.863,1.863,0,0,0,.306-1,17.573,17.573,0,0,0-.637-4.205c-.281-.725-.478-1.479-.759-2.2a23.182,23.182,0,0,0-2.963-5.256l-.155-.064a4.249,4.249,0,0,0-.39.6c0,.316.239.547.41.786A21.143,21.143,0,0,1,590.1,46.53c-.57-.382-1.006-.923-1.547-1.341-.412-.314-.8-.659-1.229-.95a3.67,3.67,0,0,1-.314-.334,6.943,6.943,0,0,1,2.05,1.1,19.3,19.3,0,0,0-1.119-3.93,18.218,18.218,0,0,0-1.337-2.838c-.4-.743-.98-1.383-1.332-2.151a1.512,1.512,0,0,1,.686-1.788,9.413,9.413,0,0,0-1.406-1.527c-.39.617-1.276.985-1.172,1.834A7.393,7.393,0,0,0,582,34.186c.6-.726,1.254-1.4,1.851-2.127a21.357,21.357,0,0,0-2.221-1.714c-.446.6-1.077,1.19-1,2.008a4.377,4.377,0,0,0-1.291-.376c.44-.775,1.023-1.451,1.5-2.2a18.416,18.416,0,0,0-2.222-1.2c-.229,1.06-.647,2.062-.9,3.112-.188.869-.524,1.7-.723,2.562l-.2-.005c-.18-.575-.647-1-.812-1.579.164-.045.325-.1.487-.16a8.306,8.306,0,0,0,.511-1.684C577.4,29.668,577.69,28.468,578.008,27.279Z" transform="translate(-575.988 -27.279)"/></g><circle class="a" cx="0.56" cy="0.56" r="0.56" transform="translate(8.142 1.213)"/><circle class="a" cx="0.56" cy="0.56" r="0.56" transform="translate(7.208 8.636)"/></g></g><path class="a" d="M474.064,6.459q-.386-.048-.776-.084c-.849-.08-1.709-.123-2.579-.123s-1.73.043-2.579.123q-.39.037-.776.084a26.981,26.981,0,1,0,6.71,0Zm-3.355.562q1.311,0,2.59.128a2.613,2.613,0,0,1-5.179,0Q469.4,7.023,470.708,7.021Zm-2.534,12.414a13.865,13.865,0,0,1,5.068,0q.373.068.74.156a14.032,14.032,0,1,1-6.548,0Q467.8,19.5,468.174,19.435Zm2.534-1a14.863,14.863,0,0,0-2.61.234,2.613,2.613,0,0,1,5.219,0A14.86,14.86,0,0,0,470.708,18.433ZM468.092,12.8a2.616,2.616,0,1,1,2.616,2.616A2.619,2.619,0,0,1,468.092,12.8Zm2.616,46.649a26.213,26.213,0,0,1-3.343-52.212A3.373,3.373,0,0,0,469.173,9.8a3.368,3.368,0,0,0,0,6,3.37,3.37,0,0,0-1.837,3c0,.009,0,.017,0,.026a14.8,14.8,0,1,0,6.742,0c0-.009,0-.017,0-.026a3.369,3.369,0,0,0-1.837-3,3.368,3.368,0,0,0,0-6,3.374,3.374,0,0,0,1.808-2.564,26.213,26.213,0,0,1-3.343,52.212Z" transform="translate(-443.727 -6.252)"/></g></g></svg>