<svg xmlns="http://www.w3.org/2000/svg" width="33.129" height="33.129" viewBox="0 0 33.129 33.129"><defs><style>.a{fill:#fff;}</style></defs><path class="a" d="M16.564,33.129A16.565,16.565,0,0,1,4.852,4.852,16.565,16.565,0,1,1,28.277,28.277,16.457,16.457,0,0,1,16.564,33.129ZM7.442,23.976h0a11.2,11.2,0,0,0,6.082,1.77A10.808,10.808,0,0,0,21.9,22.079a11.668,11.668,0,0,0,2.9-7.61v-.5a9.156,9.156,0,0,0,1.92-2.068,7.377,7.377,0,0,1-2.274.62,4,4,0,0,0,1.742-2.185,8.323,8.323,0,0,1-2.509.975,3.968,3.968,0,0,0-6.851,2.716,4.522,4.522,0,0,0,.089.916,11.323,11.323,0,0,1-8.15-4.134,3.841,3.841,0,0,0-.531,1.978,3.968,3.968,0,0,0,1.772,3.307,4.125,4.125,0,0,1-1.8-.5v.059A3.945,3.945,0,0,0,11.4,19.517a3.9,3.9,0,0,1-1.033.148,5.761,5.761,0,0,1-.715-.056l-.024,0a4,4,0,0,0,3.691,2.745,7.923,7.923,0,0,1-4.931,1.683c-.3,0-.577-.026-.87-.053Z"/></svg>