<svg xmlns="http://www.w3.org/2000/svg" viewBox="0 0 260.57 260.57"><defs><style>.cls-1{fill:#fff;}</style></defs><g id="Layer_2" data-name="Layer 2"><g id="Layer_1-2" data-name="Layer 1"><path id="Path_5338" data-name="Path 5338" class="cls-1" d="M155.58,130.28a25.3,25.3,0,1,1-25.3-25.3,25.29,25.29,0,0,1,25.3,25.3Z"/><path id="Path_5339" data-name="Path 5339" class="cls-1" d="M189.45,85.52A25.16,25.16,0,0,0,175,71.11,41.85,41.85,0,0,0,161,68.5c-8-.37-10.41-.44-30.68-.44s-22.66.07-30.67.44a41.85,41.85,0,0,0-14.09,2.61A25.16,25.16,0,0,0,71.1,85.52a41.85,41.85,0,0,0-2.61,14.09c-.36,8-.44,10.4-.44,30.67s.08,22.67.44,30.68a41.85,41.85,0,0,0,2.61,14.09,25.19,25.19,0,0,0,14.41,14.41,42.1,42.1,0,0,0,14.09,2.61c8,.36,10.4.44,30.67.44s22.67-.08,30.68-.44A42.1,42.1,0,0,0,175,189.46a25.19,25.19,0,0,0,14.41-14.41A42.1,42.1,0,0,0,192.06,161c.36-8,.44-10.41.44-30.68s-.08-22.66-.44-30.67A41.85,41.85,0,0,0,189.45,85.52Zm-59.14,83.73a39,39,0,1,1,39-39h0A39,39,0,0,1,130.31,169.25Zm40.52-70.38a9.11,9.11,0,1,1,9.11-9.11,9.1,9.1,0,0,1-9.11,9.11h0Z"/><path id="Path_5340" data-name="Path 5340" class="cls-1" d="M130.28,0A130.29,130.29,0,1,0,260.57,130.28,130.28,130.28,0,0,0,130.28,0Zm74.37,161.13a55,55,0,0,1-3.48,18.16,38.23,38.23,0,0,1-21.85,21.87,55,55,0,0,1-18.16,3.48c-8,.36-10.52.45-30.85.45s-22.86-.09-30.84-.45a55,55,0,0,1-18.16-3.48A38.25,38.25,0,0,1,59.4,179.32a54.94,54.94,0,0,1-3.47-18.16c-.37-8-.46-10.53-.46-30.85s.09-22.86.45-30.84A54.7,54.7,0,0,1,59.4,81.31,38.27,38.27,0,0,1,81.28,59.43,55,55,0,0,1,99.44,56c8-.36,10.52-.45,30.84-.45s22.87.09,30.85.46a54.75,54.75,0,0,1,18.16,3.48,38.24,38.24,0,0,1,21.88,21.88,55,55,0,0,1,3.48,18.16c.36,8,.44,10.52.44,30.84S205,153.15,204.65,161.13Z"/></g></g></svg>