<svg xmlns="http://www.w3.org/2000/svg" xmlns:xlink="http://www.w3.org/1999/xlink" width="389.326" height="322.638" viewBox="0 0 389.326 322.638"><defs><style>.a,.j{fill:none;}.b{fill:url(#a);}.c{fill:#efa035;}.d{fill:#da2f36;}.e{fill:rgba(239,160,53,0.5);}.f{clip-path:url(#b);}.g{fill:#84b740;}.h{fill:#259bd6;}.i{fill:#27292d;}.j{stroke:rgba(0,0,0,0.5);stroke-width:0.5px;}.k{clip-path:url(#c);}.l,.u{fill:#fff;}.m{fill:url(#d);}.n{clip-path:url(#e);}.o{fill:#e9e9e9;}.o,.u{mix-blend-mode:overlay;isolation:isolate;}.p{clip-path:url(#f);}.q{clip-path:url(#g);}.r{fill:#00579f;}.s{fill:#faa61a;}.t{fill:url(#h);}</style><linearGradient id="a" x1="-0.062" y1="1.187" x2="1.446" y2="-0.442" gradientUnits="objectBoundingBox"><stop offset="0" stop-color="#fff"/><stop offset="1" stop-color="#243655"/></linearGradient><clipPath id="b"><path class="a" d="M2690.185,1406.064l37.338-18.953v12.9l-37.338,18.953Z" transform="translate(-2690.185 -1387.111)"/></clipPath><clipPath id="c"><path class="a" d="M2615.987,1439.553l13.068-6.634v16.765l-13.068,6.633Z" transform="translate(-2615.987 -1432.92)"/></clipPath><linearGradient id="d" x1="0.041" y1="-0.139" x2="1.341" y2="2.369" xlink:href="#a"/><clipPath id="e"><path class="a" d="M2592.659,1405.832,2630,1424.221v12.9l-37.338-18.388Z" transform="translate(-2592.659 -1405.832)"/></clipPath><clipPath id="f"><path class="a" d="M2518.461,1367.773l13.068,6.436v16.765l-13.068-6.436Z" transform="translate(-2518.461 -1367.773)"/></clipPath><clipPath id="g"><path class="a" d="M2204.575,1167.963l37.41,18.7v14.828l-37.41-18.7Z" transform="translate(-2204.575 -1167.963)"/></clipPath><linearGradient id="h" x1="0" y1="-0.106" x2="1.115" y2="1.849" xlink:href="#a"/></defs><g transform="translate(194.866 0.818)"><path class="b" d="M-2705.861,5541.155v128.076l-194.459,97.744V5638.044" transform="translate(2900.32 -5541.155)"/><g transform="translate(12.837 24.68)"><g transform="translate(126.708 69.16)"><ellipse class="c" cx="15.067" cy="9.186" rx="15.067" ry="9.186" transform="matrix(0.587, -0.809, 0.809, 0.587, 14.223, 24.39)"/><ellipse class="d" cx="15.067" cy="9.186" rx="15.067" ry="9.186" transform="matrix(0.587, -0.809, 0.809, 0.587, 0, 31.61)"/><ellipse class="e" cx="15.067" cy="9.186" rx="15.067" ry="9.186" transform="matrix(0.587, -0.809, 0.809, 0.587, 14.223, 24.39)"/></g><g transform="translate(131.433 0)"><g class="f"><g transform="translate(0 0.802)"><path class="g" d="M2705.979,1401.522l-15.794,8.018v5.45l15.794-8.018Z" transform="translate(-2690.185 -1383.953)"/><path class="h" d="M2705.979,1395.689l-15.794,8.018v5.455l15.794-8.017Z" transform="translate(-2690.185 -1385.556)"/><path class="i" d="M2715.547,1399.926l-.071.05a3.562,3.562,0,0,1-.511.328c-.413.209-.9.238-.9-.792a1.691,1.691,0,0,1,.853-1.666l.005,0a2.41,2.41,0,0,1,.562-.173l.061-.012Zm.127-5.2-.127.089v1.9l-.113.023-.033.008a2.749,2.749,0,0,0-.7.228,3.341,3.341,0,0,0-1.861,3.16c0,1.384.749,1.8,2.058,1.136a6.679,6.679,0,0,0,1.374-.9,1.132,1.132,0,0,0,.516-.951v-5.465C2716.424,1394.216,2716.044,1394.476,2715.674,1394.727Z" transform="translate(-2683.958 -1386.031)"/><path class="i" d="M2719.121,1397.595l-.065.052-.235.183a3.973,3.973,0,0,1-.567.381c-.361.182-.578.108-.578-.208,0-.2.089-.594.681-.894l.764-.389Zm-.538-3.16a8.409,8.409,0,0,0-1.567,1.077l-.394.321.131.855.385-.326a7.421,7.421,0,0,1,1.28-.874c.169-.085.685-.347.685.231v.253l-.718.365c-1.308.664-1.914,1.4-1.914,2.331,0,.792.559.984,1.5.509a7.711,7.711,0,0,0,1.041-.675l.02-.015.019,0,.118-.041c.366-.117.745-.242,1.115-.357v-3.031C2720.28,1394.073,2719.707,1393.864,2718.583,1394.435Z" transform="translate(-2682.959 -1385.987)"/><path class="i" d="M2711.974,1401.225l-.066.052-.234.183a3.9,3.9,0,0,1-.566.38c-.362.184-.577.108-.577-.208a1.021,1.021,0,0,1,.676-.891l.763-.387Zm-.535-3.163a8.45,8.45,0,0,0-1.566,1.076l-.394.321.131.857.385-.326a7.352,7.352,0,0,1,1.28-.874c.168-.085.685-.347.685.231v.253l-.718.365c-1.308.664-1.918,1.406-1.918,2.333,0,.792.558.984,1.5.506a7.674,7.674,0,0,0,1.041-.673l.02-.016.019,0,.112-.037c.371-.12.746-.242,1.116-.353v-3.03C2713.136,1397.695,2712.563,1397.491,2711.439,1398.062Z" transform="translate(-2684.925 -1384.99)"/><path class="i" d="M2708.478,1399.819a5.493,5.493,0,0,0-1.273.936l-.046.048-.043-.013a1.828,1.828,0,0,0-1.139.292,7.48,7.48,0,0,0-1.346.893,1.2,1.2,0,0,0-.554.98v3.463l1.247-.632v-3.2l.061-.051a2.616,2.616,0,0,1,.549-.38c.361-.184.543-.076.543.311v2.74l1.229-.623v-2.793a.756.756,0,0,0-.038-.263l-.041-.061.084-.082a2.515,2.515,0,0,1,.609-.441c.249-.125.545-.173.545.312v2.74l1.224-.622v-2.865C2710.09,1399.49,2709.565,1399.266,2708.478,1399.819Z" transform="translate(-2686.367 -1384.502)"/><path class="i" d="M2719.555,1391.558a5.39,5.39,0,0,1-.727.3l-.07.021v-1.87a.713.713,0,0,0-.034-.25l-.038-.059.081-.075c.019-.019.038-.033.061-.055l.014-.017.084-.073a.146.146,0,0,1,.033-.025,4.3,4.3,0,0,1,.643-.4l0,0c.764-.389.854.271.854.8A1.756,1.756,0,0,1,2719.555,1391.558Zm-.006-3.554-.032.016a4.089,4.089,0,0,0-1.717,1.474,1.841,1.841,0,0,0-.224.839v1.927a.764.764,0,0,1-.038.263l-.042.1-2.265,1.15v-1.34h0c-.028-1.4-.835-1.767-2-1.174l-.135.069-1,.51c-.046.368-.084.631-.132,1l1.136-.576c.6-.3.908.063.908.87v1.35l-.08,0a.991.991,0,0,0-.266.1l-1.961,1c-.037.277-.084.635-.137,1l6.026-3.06c.207-.148.447-.308.653-.447a3.573,3.573,0,0,0,1.261-.4,3.889,3.889,0,0,0,2.157-3.4C2721.647,1387.878,2720.826,1387.385,2719.55,1388Z" transform="translate(-2684.312 -1387.741)"/><path class="i" d="M2711.038,1397.455l.056-.029c1.308-.664,1.918-1.42,1.918-2.523,0-.792-.558-1.14-1.5-.664l-1.2.612c-.361.183-.577.079-.577-.281,0-.242.089-.589.681-.889l2.635-1.339c.056-.382.084-.621.135-1l-2.737,1.39a2.925,2.925,0,0,0-1.918,2.45c0,.914.557,1.107,1.5.63l1.206-.612c.361-.182.576,0,.576.315a1.1,1.1,0,0,1-.674.969l-.2.1-3.859,1.949-.7.357c-.6.3-1.012.165-1.012-.648v-.558a1.963,1.963,0,0,1,1.012-1.883l1.145-.582c.051-.386.084-.631.131-.994l-1.427.724-.135.069a3.7,3.7,0,0,0-2,3.241v.631c.029,1.4.835,1.665,2,1.072l.135-.069,1-.509,2.092-1.057,1.246-.634Z" transform="translate(-2686.367 -1386.751)"/></g></g></g><g transform="translate(0 88.473)"><path class="j" d="M2593.655,1454.447a4.983,4.983,0,0,1,2.488-4.058l7.935-4.027,7.935-4.028a1.576,1.576,0,0,1,2.49,1.53v11.5a4.987,4.987,0,0,1-2.49,4.058l-15.87,8.055a1.575,1.575,0,0,1-2.488-1.531Zm.961.291a3.3,3.3,0,0,1,1.648-2.69l4.567-2.319a1.045,1.045,0,0,1,1.649,1.017,3.3,3.3,0,0,1-1.649,2.691l-4.567,2.318A1.044,1.044,0,0,1,2594.616,1454.738Zm1.648-3.013a3.9,3.9,0,0,0-1.96,3.171,1.234,1.234,0,0,0,1.96,1.182l4.567-2.319a3.9,3.9,0,0,0,1.96-3.171,1.234,1.234,0,0,0-1.96-1.182Zm-1.648,7.849a3.3,3.3,0,0,1,1.648-2.69l4.567-2.319a1.045,1.045,0,0,1,1.649,1.017,3.3,3.3,0,0,1-1.649,2.69l-4.567,2.319A1.045,1.045,0,0,1,2594.616,1459.574Zm1.648-3.012a3.9,3.9,0,0,0-1.96,3.17,1.234,1.234,0,0,0,1.96,1.182l4.567-2.319a3.9,3.9,0,0,0,1.96-3.171,1.234,1.234,0,0,0-1.96-1.182Zm-1.648,7.848a3.3,3.3,0,0,1,1.648-2.69l4.567-2.319a1.045,1.045,0,0,1,1.649,1.017,3.3,3.3,0,0,1-1.649,2.691l-4.567,2.318A1.044,1.044,0,0,1,2594.616,1464.41Zm1.648-3.012a3.9,3.9,0,0,0-1.96,3.17,1.234,1.234,0,0,0,1.96,1.182l4.567-2.319a3.9,3.9,0,0,0,1.96-3.17,1.234,1.234,0,0,0-1.96-1.182Zm9.171-12.152a3.3,3.3,0,0,1,1.648-2.69l4.568-2.319a1.045,1.045,0,0,1,1.648,1.017,3.305,3.305,0,0,1-1.648,2.691l-4.568,2.318A1.044,1.044,0,0,1,2605.436,1449.246Zm1.648-3.013a3.9,3.9,0,0,0-1.959,3.171,1.233,1.233,0,0,0,1.959,1.182l4.568-2.319a3.9,3.9,0,0,0,1.959-3.17,1.234,1.234,0,0,0-1.959-1.182Zm-1.648,7.849a3.3,3.3,0,0,1,1.648-2.69l4.568-2.319a1.044,1.044,0,0,1,1.648,1.017,3.3,3.3,0,0,1-1.648,2.69l-4.568,2.319A1.044,1.044,0,0,1,2605.436,1454.083Zm1.648-3.012a3.9,3.9,0,0,0-1.959,3.17,1.234,1.234,0,0,0,1.959,1.182l4.568-2.319a3.9,3.9,0,0,0,1.959-3.171,1.234,1.234,0,0,0-1.959-1.182Zm-1.648,7.848a3.3,3.3,0,0,1,1.648-2.69l4.568-2.319a1.045,1.045,0,0,1,1.648,1.017,3.3,3.3,0,0,1-1.648,2.691l-4.568,2.318A1.044,1.044,0,0,1,2605.436,1458.918Zm1.648-3.013a3.9,3.9,0,0,0-1.959,3.17,1.233,1.233,0,0,0,1.959,1.182l4.568-2.319a3.9,3.9,0,0,0,1.959-3.17,1.234,1.234,0,0,0-1.959-1.182Z" transform="translate(-2574.207 -1432.861)"/><g transform="translate(47.918)"><g class="k"><g transform="translate(-0.005 1.355)"><path class="l" d="M2617.518,1443.834c-.257-.255-.786-.073-1.173.381s-.472,1.026-.214,1.282c.013.006,1.357,1.313-.014,4.184-.243.509-.129.98.258,1.028a.832.832,0,0,0,.443-.1,1.789,1.789,0,0,0,.715-.749,6.862,6.862,0,0,0,.743-4.569A3.262,3.262,0,0,0,2617.518,1443.834Zm2.988-3.161c-.271-.233-.8-.051-1.173.409s-.458,1.034-.186,1.267c.03.014,2.274,2.051-.057,7.5-.228.518-.072.953.329.978a.818.818,0,0,0,.4-.1,1.63,1.63,0,0,0,.729-.8c1.473-3.451,1.4-5.761,1.058-7.1A4.228,4.228,0,0,0,2620.506,1440.673Zm8.207-2.635a8.9,8.9,0,0,0-1.858-3.934c-.243-.249-.729-.1-1.1.33s-.471.969-.229,1.218a7.715,7.715,0,0,1,1.645,3.5,13.194,13.194,0,0,1,.216,4.469,21.509,21.509,0,0,1-1.874,6.373c-.228.488-.1.923.287.942a.819.819,0,0,0,.4-.089,1.6,1.6,0,0,0,.686-.734,24.082,24.082,0,0,0,2.087-7.1A14.949,14.949,0,0,0,2628.712,1438.037Zm-3.546,2.23a5.7,5.7,0,0,0-1.429-2.88c-.258-.241-.772-.065-1.145.381s-.458,1-.2,1.245a5.23,5.23,0,0,1,1.173,2.481,9.931,9.931,0,0,1,.129,3.353,19.752,19.752,0,0,1-1.359,5.068c-.2.5-.042.923.359.919a.845.845,0,0,0,.371-.1,1.664,1.664,0,0,0,.729-.814,21.819,21.819,0,0,0,1.53-5.755A11.185,11.185,0,0,0,2625.166,1440.267Z" transform="translate(-2615.983 -1433.982)"/></g></g></g><g transform="translate(0 24.787)"><path class="h" d="M2589.6,1456.213l-11.2,5.686v3.693l11.2-5.686Z" transform="translate(-2578.4 -1456.213)"/><path class="g" d="M2589.6,1460.352l-11.2,5.686v3.693l11.2-5.686Z" transform="translate(-2578.4 -1455.076)"/></g></g></g></g><g transform="translate(194.459 96.819)"><path class="m" d="M-2900.32,5541.155v128.076l194.459,97.744V5638.044" transform="translate(2900.32 -5541.155)"/><g transform="translate(12.839 64.157)"><g transform="translate(133.703 62.783)"><g class="n"><g transform="translate(-0.001)"><path class="g" d="M2608.453,1419.444l-15.8-7.779v5.45l15.8,7.779Z" transform="translate(-2592.658 -1404.229)"/><path class="h" d="M2608.453,1413.611l-15.8-7.779v5.455l15.8,7.779Z" transform="translate(-2592.658 -1405.832)"/><path class="i" d="M2618.02,1428.377l-.07-.02a2.609,2.609,0,0,1-.512-.184,1.709,1.709,0,0,1-.9-1.692c0-.529.086-1.192.853-.813l.005,0a3.775,3.775,0,0,1,.564.389l.06.049Zm.127-5.071-.127-.038v1.9l-.112-.089-.032-.026a4.274,4.274,0,0,0-.7-.47c-1.537-.757-1.861.288-1.861,1.3a3.488,3.488,0,0,0,2.059,3.195,4.608,4.608,0,0,0,1.374.478c.379.061.515-.052.515-.436v-5.464C2618.9,1423.544,2618.517,1423.424,2618.148,1423.305Z" transform="translate(-2586.431 -1401.04)"/><path class="i" d="M2621.595,1429.987l-.065-.013-.234-.052a2.7,2.7,0,0,1-.569-.187.913.913,0,0,1-.576-.784c0-.2.089-.5.68-.214l.765.376Zm-.539-3.7a5.524,5.524,0,0,0-1.567-.49l-.394-.073.131.988.385.057a4.818,4.818,0,0,1,1.28.408,1.057,1.057,0,0,1,.685.914v.254l-.718-.354c-1.308-.644-1.913-.51-1.913.418a2.359,2.359,0,0,0,1.5,2,5.369,5.369,0,0,0,1.041.367l.02.005.018.014.117.077c.366.249.746.5,1.117.758v-3.03A2.576,2.576,0,0,0,2621.056,1426.287Z" transform="translate(-2585.433 -1400.364)"/><path class="i" d="M2614.446,1426.466l-.065-.013-.235-.052a2.627,2.627,0,0,1-.567-.186.914.914,0,0,1-.578-.785c0-.2.09-.5.676-.216l.765.376Zm-.534-3.7a5.489,5.489,0,0,0-1.567-.49l-.394-.073.131.988.385.059a4.837,4.837,0,0,1,1.28.407,1.055,1.055,0,0,1,.685.915v.252l-.718-.353c-1.308-.645-1.917-.512-1.917.416a2.364,2.364,0,0,0,1.5,2.007,5.456,5.456,0,0,0,1.041.366l.02.005.018.014.113.075c.37.25.745.5,1.116.764v-3.031A2.559,2.559,0,0,0,2613.912,1422.768Z" transform="translate(-2587.398 -1401.332)"/><path class="i" d="M2610.95,1421.323a3.049,3.049,0,0,0-1.271-.335h-.047l-.042-.055a3.311,3.311,0,0,0-1.139-.848,5.157,5.157,0,0,0-1.346-.454c-.4-.07-.553.053-.553.427v3.464l1.248.613v-3.2l.06.01a1.679,1.679,0,0,1,.55.168.9.9,0,0,1,.545.855v2.74l1.229.606v-2.793a1.177,1.177,0,0,0-.038-.3l-.042-.1.085,0a1.49,1.49,0,0,1,.609.17.91.91,0,0,1,.545.855v2.74l1.224.6v-2.866A2.469,2.469,0,0,0,2610.95,1421.323Z" transform="translate(-2588.84 -1402.044)"/><path class="i" d="M2622.028,1423.786a6.516,6.516,0,0,1-.727-.426l-.07-.05v-1.87a1.235,1.235,0,0,0-.032-.283l-.038-.1.079.006a.485.485,0,0,1,.061.005l.014,0,.085.013a.076.076,0,0,1,.032.006,3.382,3.382,0,0,1,.643.238l.005,0a1.671,1.671,0,0,1,.854,1.653C2622.929,1424.01,2622.437,1423.987,2622.028,1423.786Zm0-3.558-.033-.016c-.718-.353-1.453-.511-1.716-.242a.8.8,0,0,0-.226.612v1.929a.439.439,0,0,1-.037.224l-.042.063-2.265-1.115v-1.341l-.005,0a3.58,3.58,0,0,0-2-3.177l-.135-.066-1-.495c-.047.323-.086.546-.132.868l1.135.558a1.879,1.879,0,0,1,.909,1.78v1.35l-.079-.083a1.392,1.392,0,0,0-.268-.171l-1.959-.965c-.039.239-.085.551-.136.86l6.026,2.968c.205.057.445.136.652.2a5.449,5.449,0,0,0,1.261.859c1.309.645,2.158.154,2.158-1.244A3.844,3.844,0,0,0,2622.024,1420.227Z" transform="translate(-2586.785 -1402.873)"/><path class="i" d="M2613.51,1420.991l.056.028c1.309.644,1.919.5,1.919-.6a2.572,2.572,0,0,0-1.5-2.161l-1.206-.593a.964.964,0,0,1-.576-.858c0-.242.088-.5.679-.209l2.635,1.3c.056-.326.086-.536.136-.866l-2.739-1.349c-1.276-.627-1.918-.39-1.918.532a2.381,2.381,0,0,0,1.5,2.126l1.2.594a1.066,1.066,0,0,1,.578.891c0,.2-.089.583-.676.294l-.2-.1-3.86-1.911-.7-.347a1.761,1.761,0,0,1-1.012-1.66v-.559c0-.845.323-1.21,1.012-.871l1.145.564c.051-.334.084-.546.131-.863l-1.426-.7-.136-.066c-1.167-.575-1.975-.162-2,1.238v.632a3.428,3.428,0,0,0,2,3.075l.136.066,1,.495,2.092,1.035,1.247.613Z" transform="translate(-2588.84 -1403.766)"/></g></g></g><g transform="translate(0 0)"><path class="o" d="M2496.128,1359.487a1.6,1.6,0,0,1,2.49-1.568l7.935,3.907,7.934,3.907a4.894,4.894,0,0,1,2.49,4.021v11.5a1.6,1.6,0,0,1-2.49,1.568l-15.868-7.815a4.893,4.893,0,0,1-2.49-4.021Zm.962,1.253a1.057,1.057,0,0,1,1.647-1.043l4.568,2.25a3.238,3.238,0,0,1,1.648,2.666,1.057,1.057,0,0,1-1.648,1.042l-4.568-2.249A3.245,3.245,0,0,1,2497.09,1360.74Zm1.647-1.365a1.248,1.248,0,0,0-1.958,1.213,3.832,3.832,0,0,0,1.958,3.141l4.568,2.249a1.248,1.248,0,0,0,1.959-1.211,3.826,3.826,0,0,0-1.959-3.141Zm-1.647,6.2a1.056,1.056,0,0,1,1.647-1.042l4.568,2.25a3.238,3.238,0,0,1,1.648,2.664,1.057,1.057,0,0,1-1.648,1.043l-4.568-2.25A3.241,3.241,0,0,1,2497.09,1365.575Zm1.647-1.364a1.248,1.248,0,0,0-1.958,1.211,3.829,3.829,0,0,0,1.958,3.141l4.568,2.25a1.249,1.249,0,0,0,1.959-1.213,3.826,3.826,0,0,0-1.959-3.14Zm-1.647,6.2a1.057,1.057,0,0,1,1.647-1.043l4.568,2.25a3.238,3.238,0,0,1,1.648,2.666,1.057,1.057,0,0,1-1.648,1.041l-4.568-2.249A3.245,3.245,0,0,1,2497.09,1370.412Zm1.647-1.365a1.248,1.248,0,0,0-1.958,1.212,3.833,3.833,0,0,0,1.958,3.141l4.568,2.249a1.248,1.248,0,0,0,1.959-1.211,3.826,3.826,0,0,0-1.959-3.141Zm9.173-2.978a1.057,1.057,0,0,1,1.647-1.043l4.569,2.25a3.241,3.241,0,0,1,1.647,2.664,1.057,1.057,0,0,1-1.647,1.043l-4.569-2.25A3.24,3.24,0,0,1,2507.91,1366.069Zm1.647-1.365a1.248,1.248,0,0,0-1.958,1.211,3.827,3.827,0,0,0,1.958,3.141l4.569,2.25a1.248,1.248,0,0,0,1.958-1.211,3.828,3.828,0,0,0-1.958-3.141Zm-1.647,6.2a1.057,1.057,0,0,1,1.647-1.043l4.569,2.25a3.245,3.245,0,0,1,1.647,2.666,1.057,1.057,0,0,1-1.647,1.043l-4.569-2.25A3.242,3.242,0,0,1,2507.91,1370.9Zm1.647-1.364a1.247,1.247,0,0,0-1.958,1.211,3.827,3.827,0,0,0,1.958,3.141l4.569,2.25a1.248,1.248,0,0,0,1.958-1.212,3.83,3.83,0,0,0-1.958-3.141Zm-1.647,6.2a1.057,1.057,0,0,1,1.647-1.043l4.569,2.25a3.241,3.241,0,0,1,1.647,2.666,1.056,1.056,0,0,1-1.647,1.042l-4.569-2.25A3.24,3.24,0,0,1,2507.91,1375.741Zm1.647-1.365a1.248,1.248,0,0,0-1.958,1.211,3.827,3.827,0,0,0,1.958,3.141l4.569,2.25a1.248,1.248,0,0,0,1.958-1.211,3.828,3.828,0,0,0-1.958-3.141Z" transform="translate(-2476.682 -1353.016)"/><g transform="translate(48.736 17.354)"><g class="p"><g transform="translate(-0.005 4.93)"><path class="l" d="M2519.99,1372.814a1.3,1.3,0,0,0-1.172-.793c-.386.067-.473.555-.216,1.068.016.021,1.359,2.671-.014,4.17-.243.267-.129.852.258,1.285a1.577,1.577,0,0,0,.444.347.624.624,0,0,0,.714-.035,4.206,4.206,0,0,0,.744-3.824A9.619,9.619,0,0,0,2519.99,1372.814Zm2.988-.173c-.271-.506-.8-.853-1.172-.763s-.458.575-.186,1.081c.028.043,2.273,4.324-.057,7.439-.229.288-.072.881.329,1.307a1.446,1.446,0,0,0,.4.3c.3.148.586.131.729-.07a7.514,7.514,0,0,0,1.058-6.044A12.473,12.473,0,0,0,2522.979,1372.641Zm8.208,5.572a25.261,25.261,0,0,0-1.859-5.794,1.231,1.231,0,0,0-1.1-.771c-.371.061-.472.5-.228.989a21.951,21.951,0,0,1,1.645,5.144,15.169,15.169,0,0,1,.214,4.684,8.638,8.638,0,0,1-1.873,4.5c-.23.259-.1.823.286,1.228a1.527,1.527,0,0,0,.4.313.557.557,0,0,0,.686-.049,9.649,9.649,0,0,0,2.088-5.009A17.384,17.384,0,0,0,2531.186,1378.213Zm-3.546-1.318a16.581,16.581,0,0,0-1.43-4.308,1.252,1.252,0,0,0-1.144-.764c-.372.074-.458.547-.2,1.045a14.568,14.568,0,0,1,1.171,3.652,11.086,11.086,0,0,1,.129,3.483,8.513,8.513,0,0,1-1.358,3.708,1.148,1.148,0,0,0,.357,1.278,1.461,1.461,0,0,0,.372.269.556.556,0,0,0,.729-.084,9.535,9.535,0,0,0,1.53-4.225A12.646,12.646,0,0,0,2527.641,1376.895Z" transform="translate(-2518.457 -1371.641)"/></g></g></g><path class="h" d="M2492.074,1358.25l-11.2-5.516v3.693l11.2,5.516Z" transform="translate(-2480.874 -1352.734)"/><path class="g" d="M2492.074,1362.39l-11.2-5.517v3.693l11.2,5.516Z" transform="translate(-2480.874 -1351.597)"/></g><g transform="translate(0.001 42.665)"><g class="q" transform="translate(0)"><g transform="translate(-0.001 0.285)"><path class="r" d="M2219.962,1190.193l-3.031-1.516,1.9-13.406,3.03,1.515Z" transform="translate(-2203.75 -1167.76)"/><path class="r" d="M2230.64,1181.45a10.992,10.992,0,0,0-2.719-1.97c-2.992-1.5-5.1-.6-5.113,2.192-.024,2.049,1.51,3.962,2.656,5.223,1.173,1.287,1.571,1.946,1.571,2.572-.012.956-.947.931-1.82.495a9.165,9.165,0,0,1-2.844-2.185l-.4-.429-.424,3.009a13.6,13.6,0,0,0,3.38,2.454c3.18,1.589,5.249.7,5.273-2.266.013-1.628-.8-3.284-2.543-5.18-1.061-1.187-1.709-1.954-1.709-2.626.012-.6.548-.962,1.745-.364a7.7,7.7,0,0,1,2.257,1.678l.274.289Z" transform="translate(-2203.442 -1167.527)"/><path class="r" d="M2234.14,1192.08c.249-.7,1.21-3.411,1.21-3.411-.013.025.249-.715.4-1.175l.211,1.343s.574,3.723.7,4.5Zm3.74-7.4-2.344-1.171c-.723-.362-1.273-.377-1.584.4l-4.5,10.912,3.18,1.589s.524-1.51.636-1.836l3.891,1.946c.087.547.362,2.334.362,2.334l2.806,1.4Z" transform="translate(-2202.914 -1167.226)"/><path class="r" d="M2215.026,1173.319l-2.968,8.3-.324-2.147a20.284,20.284,0,0,0-4.19-8.111l2.718,13.911,3.2,1.6,4.764-11.957Z" transform="translate(-2204.376 -1168.021)"/><path class="s" d="M2209.5,1170.667l-4.875-2.437-.05.265a21.885,21.885,0,0,1,7.358,11.192l-1.06-7.127A2.493,2.493,0,0,0,2209.5,1170.667Z" transform="translate(-2204.574 -1168.23)"/></g></g></g></g></g><path class="t" d="M-2900.32,5541.155v128.076l194.459,97.744V5638.044" transform="translate(2900.32 -5541.155)"/><g transform="translate(9.633 22.785)"><path class="o" d="M2496.128,1359.487a1.6,1.6,0,0,1,2.49-1.568l7.935,3.907,7.934,3.907a4.894,4.894,0,0,1,2.49,4.021v11.5a1.6,1.6,0,0,1-2.49,1.568l-15.868-7.815a4.893,4.893,0,0,1-2.49-4.021Zm.962,1.253a1.057,1.057,0,0,1,1.647-1.043l4.568,2.25a3.238,3.238,0,0,1,1.648,2.666,1.057,1.057,0,0,1-1.648,1.042l-4.568-2.249A3.245,3.245,0,0,1,2497.09,1360.74Zm1.647-1.365a1.248,1.248,0,0,0-1.958,1.213,3.832,3.832,0,0,0,1.958,3.141l4.568,2.249a1.248,1.248,0,0,0,1.959-1.211,3.826,3.826,0,0,0-1.959-3.141Zm-1.647,6.2a1.056,1.056,0,0,1,1.647-1.042l4.568,2.25a3.238,3.238,0,0,1,1.648,2.664,1.057,1.057,0,0,1-1.648,1.043l-4.568-2.25A3.241,3.241,0,0,1,2497.09,1365.575Zm1.647-1.364a1.248,1.248,0,0,0-1.958,1.211,3.829,3.829,0,0,0,1.958,3.141l4.568,2.25a1.249,1.249,0,0,0,1.959-1.213,3.826,3.826,0,0,0-1.959-3.14Zm-1.647,6.2a1.057,1.057,0,0,1,1.647-1.043l4.568,2.25a3.238,3.238,0,0,1,1.648,2.666,1.057,1.057,0,0,1-1.648,1.041l-4.568-2.249A3.245,3.245,0,0,1,2497.09,1370.412Zm1.647-1.365a1.248,1.248,0,0,0-1.958,1.212,3.833,3.833,0,0,0,1.958,3.141l4.568,2.249a1.248,1.248,0,0,0,1.959-1.211,3.826,3.826,0,0,0-1.959-3.141Zm9.173-2.978a1.057,1.057,0,0,1,1.647-1.043l4.569,2.25a3.241,3.241,0,0,1,1.647,2.664,1.057,1.057,0,0,1-1.647,1.043l-4.569-2.25A3.24,3.24,0,0,1,2507.91,1366.069Zm1.647-1.365a1.248,1.248,0,0,0-1.958,1.211,3.827,3.827,0,0,0,1.958,3.141l4.569,2.25a1.248,1.248,0,0,0,1.958-1.211,3.828,3.828,0,0,0-1.958-3.141Zm-1.647,6.2a1.057,1.057,0,0,1,1.647-1.043l4.569,2.25a3.245,3.245,0,0,1,1.647,2.666,1.057,1.057,0,0,1-1.647,1.043l-4.569-2.25A3.242,3.242,0,0,1,2507.91,1370.9Zm1.647-1.364a1.247,1.247,0,0,0-1.958,1.211,3.827,3.827,0,0,0,1.958,3.141l4.569,2.25a1.248,1.248,0,0,0,1.958-1.212,3.83,3.83,0,0,0-1.958-3.141Zm-1.647,6.2a1.057,1.057,0,0,1,1.647-1.043l4.569,2.25a3.241,3.241,0,0,1,1.647,2.666,1.056,1.056,0,0,1-1.647,1.042l-4.569-2.25A3.24,3.24,0,0,1,2507.91,1375.741Zm1.647-1.365a1.248,1.248,0,0,0-1.958,1.211,3.827,3.827,0,0,0,1.958,3.141l4.569,2.25a1.248,1.248,0,0,0,1.958-1.211,3.828,3.828,0,0,0-1.958-3.141Z" transform="translate(-2476.681 -1314.099)"/><g transform="translate(0.001 0)"><g class="p"><g transform="translate(-0.005 4.93)"><path class="l" d="M2519.99,1372.814a1.3,1.3,0,0,0-1.172-.793c-.386.067-.473.555-.216,1.068.016.021,1.359,2.671-.014,4.17-.243.267-.129.852.258,1.285a1.577,1.577,0,0,0,.444.347.624.624,0,0,0,.714-.035,4.206,4.206,0,0,0,.744-3.824A9.619,9.619,0,0,0,2519.99,1372.814Zm2.988-.173c-.271-.506-.8-.853-1.172-.763s-.458.575-.186,1.081c.028.043,2.273,4.324-.057,7.439-.229.288-.072.881.329,1.307a1.446,1.446,0,0,0,.4.3c.3.148.586.131.729-.07a7.514,7.514,0,0,0,1.058-6.044A12.473,12.473,0,0,0,2522.979,1372.641Zm8.208,5.572a25.261,25.261,0,0,0-1.859-5.794,1.231,1.231,0,0,0-1.1-.771c-.371.061-.472.5-.228.989a21.951,21.951,0,0,1,1.645,5.144,15.169,15.169,0,0,1,.214,4.684,8.638,8.638,0,0,1-1.873,4.5c-.23.259-.1.823.286,1.228a1.527,1.527,0,0,0,.4.313.557.557,0,0,0,.686-.049,9.649,9.649,0,0,0,2.088-5.009A17.384,17.384,0,0,0,2531.186,1378.213Zm-3.546-1.318a16.581,16.581,0,0,0-1.43-4.308,1.252,1.252,0,0,0-1.144-.764c-.372.074-.458.547-.2,1.045a14.568,14.568,0,0,1,1.171,3.652,11.086,11.086,0,0,1,.129,3.483,8.513,8.513,0,0,1-1.358,3.708,1.148,1.148,0,0,0,.357,1.278,1.461,1.461,0,0,0,.372.269.556.556,0,0,0,.729-.084,9.535,9.535,0,0,0,1.53-4.225A12.646,12.646,0,0,0,2527.641,1376.895Z" transform="translate(-2518.457 -1371.641)"/></g></g></g><g transform="translate(0.001 83.924)"><g class="n"><g transform="translate(-0.001)"><path class="g" d="M2608.453,1419.444l-15.8-7.779v5.45l15.8,7.779Z" transform="translate(-2592.658 -1404.229)"/><path class="h" d="M2608.453,1413.611l-15.8-7.779v5.455l15.8,7.779Z" transform="translate(-2592.658 -1405.832)"/><path class="i" d="M2618.02,1428.377l-.07-.02a2.609,2.609,0,0,1-.512-.184,1.709,1.709,0,0,1-.9-1.692c0-.529.086-1.192.853-.813l.005,0a3.775,3.775,0,0,1,.564.389l.06.049Zm.127-5.071-.127-.038v1.9l-.112-.089-.032-.026a4.274,4.274,0,0,0-.7-.47c-1.537-.757-1.861.288-1.861,1.3a3.488,3.488,0,0,0,2.059,3.195,4.608,4.608,0,0,0,1.374.478c.379.061.515-.052.515-.436v-5.464C2618.9,1423.544,2618.517,1423.424,2618.148,1423.305Z" transform="translate(-2586.431 -1401.04)"/><path class="i" d="M2621.595,1429.987l-.065-.013-.234-.052a2.7,2.7,0,0,1-.569-.187.913.913,0,0,1-.576-.784c0-.2.089-.5.68-.214l.765.376Zm-.539-3.7a5.524,5.524,0,0,0-1.567-.49l-.394-.073.131.988.385.057a4.818,4.818,0,0,1,1.28.408,1.057,1.057,0,0,1,.685.914v.254l-.718-.354c-1.308-.644-1.913-.51-1.913.418a2.359,2.359,0,0,0,1.5,2,5.369,5.369,0,0,0,1.041.367l.02.005.018.014.117.077c.366.249.746.5,1.117.758v-3.03A2.576,2.576,0,0,0,2621.056,1426.287Z" transform="translate(-2585.433 -1400.364)"/><path class="i" d="M2614.446,1426.466l-.065-.013-.235-.052a2.627,2.627,0,0,1-.567-.186.914.914,0,0,1-.578-.785c0-.2.09-.5.676-.216l.765.376Zm-.534-3.7a5.489,5.489,0,0,0-1.567-.49l-.394-.073.131.988.385.059a4.837,4.837,0,0,1,1.28.407,1.055,1.055,0,0,1,.685.915v.252l-.718-.353c-1.308-.645-1.917-.512-1.917.416a2.364,2.364,0,0,0,1.5,2.007,5.456,5.456,0,0,0,1.041.366l.02.005.018.014.113.075c.37.25.745.5,1.116.764v-3.031A2.559,2.559,0,0,0,2613.912,1422.768Z" transform="translate(-2587.398 -1401.332)"/><path class="i" d="M2610.95,1421.323a3.049,3.049,0,0,0-1.271-.335h-.047l-.042-.055a3.311,3.311,0,0,0-1.139-.848,5.157,5.157,0,0,0-1.346-.454c-.4-.07-.553.053-.553.427v3.464l1.248.613v-3.2l.06.01a1.679,1.679,0,0,1,.55.168.9.9,0,0,1,.545.855v2.74l1.229.606v-2.793a1.177,1.177,0,0,0-.038-.3l-.042-.1.085,0a1.49,1.49,0,0,1,.609.17.91.91,0,0,1,.545.855v2.74l1.224.6v-2.866A2.469,2.469,0,0,0,2610.95,1421.323Z" transform="translate(-2588.84 -1402.044)"/><path class="i" d="M2622.028,1423.786a6.516,6.516,0,0,1-.727-.426l-.07-.05v-1.87a1.235,1.235,0,0,0-.032-.283l-.038-.1.079.006a.485.485,0,0,1,.061.005l.014,0,.085.013a.076.076,0,0,1,.032.006,3.382,3.382,0,0,1,.643.238l.005,0a1.671,1.671,0,0,1,.854,1.653C2622.929,1424.01,2622.437,1423.987,2622.028,1423.786Zm0-3.558-.033-.016c-.718-.353-1.453-.511-1.716-.242a.8.8,0,0,0-.226.612v1.929a.439.439,0,0,1-.037.224l-.042.063-2.265-1.115v-1.341l-.005,0a3.58,3.58,0,0,0-2-3.177l-.135-.066-1-.495c-.047.323-.086.546-.132.868l1.135.558a1.879,1.879,0,0,1,.909,1.78v1.35l-.079-.083a1.392,1.392,0,0,0-.268-.171l-1.959-.965c-.039.239-.085.551-.136.86l6.026,2.968c.205.057.445.136.652.2a5.449,5.449,0,0,0,1.261.859c1.309.645,2.158.154,2.158-1.244A3.844,3.844,0,0,0,2622.024,1420.227Z" transform="translate(-2586.785 -1402.873)"/><path class="i" d="M2613.51,1420.991l.056.028c1.309.644,1.919.5,1.919-.6a2.572,2.572,0,0,0-1.5-2.161l-1.206-.593a.964.964,0,0,1-.576-.858c0-.242.088-.5.679-.209l2.635,1.3c.056-.326.086-.536.136-.866l-2.739-1.349c-1.276-.627-1.918-.39-1.918.532a2.381,2.381,0,0,0,1.5,2.126l1.2.594a1.066,1.066,0,0,1,.578.891c0,.2-.089.583-.676.294l-.2-.1-3.86-1.911-.7-.347a1.761,1.761,0,0,1-1.012-1.66v-.559c0-.845.323-1.21,1.012-.871l1.145.564c.051-.334.084-.546.131-.863l-1.426-.7-.136-.066c-1.167-.575-1.975-.162-2,1.238v.632a3.428,3.428,0,0,0,2,3.075l.136.066,1,.495,2.092,1.035,1.247.613Z" transform="translate(-2588.84 -1403.766)"/></g></g></g><g transform="translate(0 38.917)"><path class="h" d="M2492.074,1358.25l-11.2-5.516v3.693l11.2,5.516Z" transform="translate(-2480.874 -1352.734)"/><path class="g" d="M2492.074,1362.39l-11.2-5.517v3.693l11.2,5.516Z" transform="translate(-2480.874 -1351.597)"/></g><g transform="translate(136.909 66.037)"><g class="q" transform="translate(0)"><g transform="translate(-0.001 0.285)"><path class="r" d="M2219.962,1190.193l-3.031-1.516,1.9-13.406,3.03,1.515Z" transform="translate(-2203.75 -1167.76)"/><path class="r" d="M2230.64,1181.45a10.992,10.992,0,0,0-2.719-1.97c-2.992-1.5-5.1-.6-5.113,2.192-.024,2.049,1.51,3.962,2.656,5.223,1.173,1.287,1.571,1.946,1.571,2.572-.012.956-.947.931-1.82.495a9.165,9.165,0,0,1-2.844-2.185l-.4-.429-.424,3.009a13.6,13.6,0,0,0,3.38,2.454c3.18,1.589,5.249.7,5.273-2.266.013-1.628-.8-3.284-2.543-5.18-1.061-1.187-1.709-1.954-1.709-2.626.012-.6.548-.962,1.745-.364a7.7,7.7,0,0,1,2.257,1.678l.274.289Z" transform="translate(-2203.442 -1167.527)"/><path class="r" d="M2234.14,1192.08c.249-.7,1.21-3.411,1.21-3.411-.013.025.249-.715.4-1.175l.211,1.343s.574,3.723.7,4.5Zm3.74-7.4-2.344-1.171c-.723-.362-1.273-.377-1.584.4l-4.5,10.912,3.18,1.589s.524-1.51.636-1.836l3.891,1.946c.087.547.362,2.334.362,2.334l2.806,1.4Z" transform="translate(-2202.914 -1167.226)"/><path class="r" d="M2215.026,1173.319l-2.968,8.3-.324-2.147a20.284,20.284,0,0,0-4.19-8.111l2.718,13.911,3.2,1.6,4.764-11.957Z" transform="translate(-2204.376 -1168.021)"/><path class="s" d="M2209.5,1170.667l-4.875-2.437-.05.265a21.885,21.885,0,0,1,7.358,11.192l-1.06-7.127A2.493,2.493,0,0,0,2209.5,1170.667Z" transform="translate(-2204.574 -1168.23)"/></g></g></g></g><g transform="translate(0.407 96.819)"><path class="b" d="M-2705.861,5541.155v128.076l-194.459,97.744V5638.044" transform="translate(2900.32 -5541.155)"/><g transform="translate(12.786 21.841)"><g transform="translate(126.759 0)"><ellipse class="c" cx="15.067" cy="9.186" rx="15.067" ry="9.186" transform="matrix(0.587, -0.809, 0.809, 0.587, 14.223, 24.39)"/><ellipse class="d" cx="15.067" cy="9.186" rx="15.067" ry="9.186" transform="matrix(0.587, -0.809, 0.809, 0.587, 0, 31.61)"/><ellipse class="e" cx="15.067" cy="9.186" rx="15.067" ry="9.186" transform="matrix(0.587, -0.809, 0.809, 0.587, 14.223, 24.39)"/></g><g transform="translate(0 150.11)"><g class="f"><g transform="translate(0 0.802)"><path class="g" d="M2705.979,1401.522l-15.794,8.018v5.45l15.794-8.018Z" transform="translate(-2690.185 -1383.953)"/><path class="h" d="M2705.979,1395.689l-15.794,8.018v5.455l15.794-8.017Z" transform="translate(-2690.185 -1385.556)"/><path class="i" d="M2715.547,1399.926l-.071.05a3.562,3.562,0,0,1-.511.328c-.413.209-.9.238-.9-.792a1.691,1.691,0,0,1,.853-1.666l.005,0a2.41,2.41,0,0,1,.562-.173l.061-.012Zm.127-5.2-.127.089v1.9l-.113.023-.033.008a2.749,2.749,0,0,0-.7.228,3.341,3.341,0,0,0-1.861,3.16c0,1.384.749,1.8,2.058,1.136a6.679,6.679,0,0,0,1.374-.9,1.132,1.132,0,0,0,.516-.951v-5.465C2716.424,1394.216,2716.044,1394.476,2715.674,1394.727Z" transform="translate(-2683.958 -1386.031)"/><path class="i" d="M2719.121,1397.595l-.065.052-.235.183a3.973,3.973,0,0,1-.567.381c-.361.182-.578.108-.578-.208,0-.2.089-.594.681-.894l.764-.389Zm-.538-3.16a8.409,8.409,0,0,0-1.567,1.077l-.394.321.131.855.385-.326a7.421,7.421,0,0,1,1.28-.874c.169-.085.685-.347.685.231v.253l-.718.365c-1.308.664-1.914,1.4-1.914,2.331,0,.792.559.984,1.5.509a7.711,7.711,0,0,0,1.041-.675l.02-.015.019,0,.118-.041c.366-.117.745-.242,1.115-.357v-3.031C2720.28,1394.073,2719.707,1393.864,2718.583,1394.435Z" transform="translate(-2682.959 -1385.987)"/><path class="i" d="M2711.974,1401.225l-.066.052-.234.183a3.9,3.9,0,0,1-.566.38c-.362.184-.577.108-.577-.208a1.021,1.021,0,0,1,.676-.891l.763-.387Zm-.535-3.163a8.45,8.45,0,0,0-1.566,1.076l-.394.321.131.857.385-.326a7.352,7.352,0,0,1,1.28-.874c.168-.085.685-.347.685.231v.253l-.718.365c-1.308.664-1.918,1.406-1.918,2.333,0,.792.558.984,1.5.506a7.674,7.674,0,0,0,1.041-.673l.02-.016.019,0,.112-.037c.371-.12.746-.242,1.116-.353v-3.03C2713.136,1397.695,2712.563,1397.491,2711.439,1398.062Z" transform="translate(-2684.925 -1384.99)"/><path class="i" d="M2708.478,1399.819a5.493,5.493,0,0,0-1.273.936l-.046.048-.043-.013a1.828,1.828,0,0,0-1.139.292,7.48,7.48,0,0,0-1.346.893,1.2,1.2,0,0,0-.554.98v3.463l1.247-.632v-3.2l.061-.051a2.616,2.616,0,0,1,.549-.38c.361-.184.543-.076.543.311v2.74l1.229-.623v-2.793a.756.756,0,0,0-.038-.263l-.041-.061.084-.082a2.515,2.515,0,0,1,.609-.441c.249-.125.545-.173.545.312v2.74l1.224-.622v-2.865C2710.09,1399.49,2709.565,1399.266,2708.478,1399.819Z" transform="translate(-2686.367 -1384.502)"/><path class="i" d="M2719.555,1391.558a5.39,5.39,0,0,1-.727.3l-.07.021v-1.87a.713.713,0,0,0-.034-.25l-.038-.059.081-.075c.019-.019.038-.033.061-.055l.014-.017.084-.073a.146.146,0,0,1,.033-.025,4.3,4.3,0,0,1,.643-.4l0,0c.764-.389.854.271.854.8A1.756,1.756,0,0,1,2719.555,1391.558Zm-.006-3.554-.032.016a4.089,4.089,0,0,0-1.717,1.474,1.841,1.841,0,0,0-.224.839v1.927a.764.764,0,0,1-.038.263l-.042.1-2.265,1.15v-1.34h0c-.028-1.4-.835-1.767-2-1.174l-.135.069-1,.51c-.046.368-.084.631-.132,1l1.136-.576c.6-.3.908.063.908.87v1.35l-.08,0a.991.991,0,0,0-.266.1l-1.961,1c-.037.277-.084.635-.137,1l6.026-3.06c.207-.148.447-.308.653-.447a3.573,3.573,0,0,0,1.261-.4,3.889,3.889,0,0,0,2.157-3.4C2721.647,1387.878,2720.826,1387.385,2719.55,1388Z" transform="translate(-2684.312 -1387.741)"/><path class="i" d="M2711.038,1397.455l.056-.029c1.308-.664,1.918-1.42,1.918-2.523,0-.792-.558-1.14-1.5-.664l-1.2.612c-.361.183-.577.079-.577-.281,0-.242.089-.589.681-.889l2.635-1.339c.056-.382.084-.621.135-1l-2.737,1.39a2.925,2.925,0,0,0-1.918,2.45c0,.914.557,1.107,1.5.63l1.206-.612c.361-.182.576,0,.576.315a1.1,1.1,0,0,1-.674.969l-.2.1-3.859,1.949-.7.357c-.6.3-1.012.165-1.012-.648v-.558a1.963,1.963,0,0,1,1.012-1.883l1.145-.582c.051-.386.084-.631.131-.994l-1.427.724-.135.069a3.7,3.7,0,0,0-2,3.241v.631c.029,1.4.835,1.665,2,1.072l.135-.069,1-.509,2.092-1.057,1.246-.634Z" transform="translate(-2686.367 -1386.751)"/></g></g></g><g transform="translate(0.051 80.676)"><path class="u" d="M2593.655,1454.447a4.983,4.983,0,0,1,2.488-4.058l7.935-4.027,7.935-4.028a1.576,1.576,0,0,1,2.49,1.53v11.5a4.987,4.987,0,0,1-2.49,4.058l-15.87,8.055a1.575,1.575,0,0,1-2.488-1.531Zm.961.291a3.3,3.3,0,0,1,1.648-2.69l4.567-2.319a1.045,1.045,0,0,1,1.649,1.017,3.3,3.3,0,0,1-1.649,2.691l-4.567,2.318A1.044,1.044,0,0,1,2594.616,1454.738Zm1.648-3.013a3.9,3.9,0,0,0-1.96,3.171,1.234,1.234,0,0,0,1.96,1.182l4.567-2.319a3.9,3.9,0,0,0,1.96-3.171,1.234,1.234,0,0,0-1.96-1.182Zm-1.648,7.849a3.3,3.3,0,0,1,1.648-2.69l4.567-2.319a1.045,1.045,0,0,1,1.649,1.017,3.3,3.3,0,0,1-1.649,2.69l-4.567,2.319A1.045,1.045,0,0,1,2594.616,1459.574Zm1.648-3.012a3.9,3.9,0,0,0-1.96,3.17,1.234,1.234,0,0,0,1.96,1.182l4.567-2.319a3.9,3.9,0,0,0,1.96-3.171,1.234,1.234,0,0,0-1.96-1.182Zm-1.648,7.848a3.3,3.3,0,0,1,1.648-2.69l4.567-2.319a1.045,1.045,0,0,1,1.649,1.017,3.3,3.3,0,0,1-1.649,2.691l-4.567,2.318A1.044,1.044,0,0,1,2594.616,1464.41Zm1.648-3.012a3.9,3.9,0,0,0-1.96,3.17,1.234,1.234,0,0,0,1.96,1.182l4.567-2.319a3.9,3.9,0,0,0,1.96-3.17,1.234,1.234,0,0,0-1.96-1.182Zm9.171-12.152a3.3,3.3,0,0,1,1.648-2.69l4.568-2.319a1.045,1.045,0,0,1,1.648,1.017,3.305,3.305,0,0,1-1.648,2.691l-4.568,2.318A1.044,1.044,0,0,1,2605.436,1449.246Zm1.648-3.013a3.9,3.9,0,0,0-1.959,3.171,1.233,1.233,0,0,0,1.959,1.182l4.568-2.319a3.9,3.9,0,0,0,1.959-3.17,1.234,1.234,0,0,0-1.959-1.182Zm-1.648,7.849a3.3,3.3,0,0,1,1.648-2.69l4.568-2.319a1.044,1.044,0,0,1,1.648,1.017,3.3,3.3,0,0,1-1.648,2.69l-4.568,2.319A1.044,1.044,0,0,1,2605.436,1454.083Zm1.648-3.012a3.9,3.9,0,0,0-1.959,3.17,1.234,1.234,0,0,0,1.959,1.182l4.568-2.319a3.9,3.9,0,0,0,1.959-3.171,1.234,1.234,0,0,0-1.959-1.182Zm-1.648,7.848a3.3,3.3,0,0,1,1.648-2.69l4.568-2.319a1.045,1.045,0,0,1,1.648,1.017,3.3,3.3,0,0,1-1.648,2.691l-4.568,2.318A1.044,1.044,0,0,1,2605.436,1458.918Zm1.648-3.013a3.9,3.9,0,0,0-1.959,3.17,1.233,1.233,0,0,0,1.959,1.182l4.568-2.319a3.9,3.9,0,0,0,1.959-3.17,1.234,1.234,0,0,0-1.959-1.182Z" transform="translate(-2574.207 -1422.225)"/><g transform="translate(155.917)"><g class="k"><g transform="translate(-0.005 1.355)"><path class="l" d="M2617.518,1443.834c-.257-.255-.786-.073-1.173.381s-.472,1.026-.214,1.282c.013.006,1.357,1.313-.014,4.184-.243.509-.129.98.258,1.028a.832.832,0,0,0,.443-.1,1.789,1.789,0,0,0,.715-.749,6.862,6.862,0,0,0,.743-4.569A3.262,3.262,0,0,0,2617.518,1443.834Zm2.988-3.161c-.271-.233-.8-.051-1.173.409s-.458,1.034-.186,1.267c.03.014,2.274,2.051-.057,7.5-.228.518-.072.953.329.978a.818.818,0,0,0,.4-.1,1.63,1.63,0,0,0,.729-.8c1.473-3.451,1.4-5.761,1.058-7.1A4.228,4.228,0,0,0,2620.506,1440.673Zm8.207-2.635a8.9,8.9,0,0,0-1.858-3.934c-.243-.249-.729-.1-1.1.33s-.471.969-.229,1.218a7.715,7.715,0,0,1,1.645,3.5,13.194,13.194,0,0,1,.216,4.469,21.509,21.509,0,0,1-1.874,6.373c-.228.488-.1.923.287.942a.819.819,0,0,0,.4-.089,1.6,1.6,0,0,0,.686-.734,24.082,24.082,0,0,0,2.087-7.1A14.949,14.949,0,0,0,2628.712,1438.037Zm-3.546,2.23a5.7,5.7,0,0,0-1.429-2.88c-.258-.241-.772-.065-1.145.381s-.458,1-.2,1.245a5.23,5.23,0,0,1,1.173,2.481,9.931,9.931,0,0,1,.129,3.353,19.752,19.752,0,0,1-1.359,5.068c-.2.5-.042.923.359.919a.845.845,0,0,0,.371-.1,1.664,1.664,0,0,0,.729-.814,21.819,21.819,0,0,0,1.53-5.755A11.185,11.185,0,0,0,2625.166,1440.267Z" transform="translate(-2615.983 -1433.982)"/></g></g></g><g transform="translate(0 35.423)"><path class="h" d="M2589.6,1456.213l-11.2,5.686v3.693l11.2-5.686Z" transform="translate(-2578.4 -1456.213)"/><path class="g" d="M2589.6,1460.352l-11.2,5.686v3.693l11.2-5.686Z" transform="translate(-2578.4 -1455.076)"/></g></g></g></g></svg>