<svg xmlns="http://www.w3.org/2000/svg" xmlns:xlink="http://www.w3.org/1999/xlink" width="385.947" height="313.846" viewBox="0 0 385.947 313.846"><defs><style>.a{fill:url(#a);}.b{fill:url(#e);}.c{fill:#fff;}.d{fill:#ececec;}.e{fill:url(#f);}.f{fill:url(#g);}.g{fill:url(#h);}.h{fill:none;stroke:#fff;stroke-dasharray:6 5;}.i{fill:#243655;}.j{fill:url(#i);}.k{fill:url(#j);}.l{fill:url(#k);}.m{fill:#b7bec9;}.n{fill:#9ab0d3;}.o{fill:url(#l);}</style><linearGradient id="a" x1="0.5" x2="0.5" y2="1" gradientUnits="objectBoundingBox"><stop offset="0" stop-color="#243655"/><stop offset="1" stop-color="#fff"/></linearGradient><linearGradient id="e" x1="3.087" y1="-1.514" x2="-0.345" y2="1.457" gradientUnits="objectBoundingBox"><stop offset="0" stop-color="#717d91"/><stop offset="1" stop-color="#fff"/></linearGradient><linearGradient id="f" x1="0.077" y1="0.365" x2="0.713" y2="1.288" gradientUnits="objectBoundingBox"><stop offset="0" stop-color="#fff"/><stop offset="1" stop-color="#243655"/></linearGradient><linearGradient id="g" x1="0.967" y1="0.024" x2="-0.712" y2="1.952" xlink:href="#f"/><linearGradient id="h" x1="0" y1="0.087" x2="1.218" y2="1.54" xlink:href="#f"/><linearGradient id="i" x1="1.207" y1="-0.083" x2="-0.925" y2="1.258" gradientUnits="objectBoundingBox"><stop offset="0" stop-color="#fff"/><stop offset="1" stop-color="#62d8fb"/></linearGradient><linearGradient id="j" x1="1.207" y1="-0.083" x2="-0.925" y2="1.258" xlink:href="#f"/><linearGradient id="k" x1="1.717" y1="-0.733" x2="-0.278" y2="0.454" xlink:href="#a"/><linearGradient id="l" x1="0.338" y1="1" x2="1" y2="0" xlink:href="#a"/></defs><g transform="translate(0)"><g transform="translate(-627.523 -2346.461)"><path class="a" d="M1012.351,2536.788l-29.477,15.153-30.14-15.153c0-1.195.14-19.027.14-19.027l29.93,15.152,29.547-15.152Z" transform="translate(0 4.025)"/><path class="a" d="M983.212,2484l30.228,31.071L983.4,2530.223l-30.419-15.152Z" transform="translate(0.03)"/></g><g transform="translate(-776.788 -2242.12)"><path class="a" d="M1012.351,2536.788l-29.477,15.153-30.14-15.153c0-1.195.14-19.027.14-19.027l29.93,15.152,29.547-15.152Z" transform="translate(0 4.025)"/><path class="a" d="M983.212,2484l30.228,31.071L983.4,2530.223l-30.419-15.152Z" transform="translate(0.03)"/></g><g transform="translate(1347.63 7633.045)"><path class="b" d="M-1181.017-7678.457v-15.559l-5.026-3.03-206.151,109.229,8.27,17.88Z" transform="translate(50 64)"/><g transform="translate(165.068 261.536)"><path class="c" d="M3117.167,932.852c-2.3,1.363-3.681-21.72-3.613-21.714l-4.74-2.867c-.007.006,1.3,1.486-.09,2.168L2912.4,1010.968l26.622,12.433,175.619-86.836A4.655,4.655,0,0,0,3117.167,932.852Z" transform="translate(-4410.295 -8789.465)"/></g><g transform="translate(45 62)"><path class="c" d="M3117.167,932.852c-2.3,1.363-3.681-21.72-3.613-21.714l-4.74-2.867c-.007.006,1.3,1.486-.09,2.168L2912.4,1010.968l26.622,12.433,175.619-86.836A4.655,4.655,0,0,0,3117.167,932.852Z" transform="translate(-4276.227 -8586.929)"/><path class="d" d="M-1301.033-7890.071l-197.888,102.106,6.2,3.089,196.287-102.374Z" transform="translate(133.581 211.6)"/></g><g transform="translate(61.04 66)"><path class="c" d="M3117.167,932.852c-2.3,1.363-3.681-21.72-3.613-21.714l-4.74-2.867c-.007.006,1.3,1.486-.09,2.168L2912.4,1010.968l26.622,12.433,175.619-86.836A4.655,4.655,0,0,0,3117.167,932.852Z" transform="translate(-4276.227 -8586.929)"/><path class="d" d="M-1301.033-7890.071l-202.641,104.734,6.2,3.089,201.04-105Z" transform="translate(133.581 211.6)"/></g><path class="e" d="M-1237.866-7869.218l2.221,161.253-217.325,103.7-48.391-21.652V-7784l46.947,21.569Z" transform="translate(154.173 262.021)"/><path class="f" d="M-1291.313-7895.078l-211.9,110.2,47.2,22.79,217.407-107.1-4.856-2.4-212,104.6-37.261-17.887,206.007-107.38Z" transform="translate(155.581 262.083)"/><path class="g" d="M-1397.188-7585.606l46.448,21.821,1.628,157.3-48.076-21.139Z" transform="translate(50 64)"/><path class="h" d="M-1397.188-7439.475l47.725,20.421,208.217-100.251-2.728-133.189-205.489,101.834-47.725-23.992" transform="translate(50 64)"/><path class="d" d="M-1304-7887.294l-194.917,99.329,6.2,3.089,193.316-99.6Z" transform="translate(167.581 267.6)"/><g transform="translate(153.253 271.12)"><path class="i" d="M3088.192,954.821l11.363,6.031v18.115l-11.363-6.038Z" transform="translate(-4324.343 -8782.288)"/><path class="j" d="M3132.389,969.471v37.113a4.89,4.89,0,0,1-2.419,3.863l-73.556,39.1a.717.717,0,0,1-.14.064c-5.557,2.923-10.6,3.3-14.295,1.546-1.12-.534-5.429-2.843-6.48-3.469-3.333-1.984-5.362-5.894-5.362-11.375,0-11.3,8.643-25.129,19.508-31.476l.014-.013,68.942-36.637a4.015,4.015,0,0,0,.363-.232c.966-.707.84-1.7-.363-2.343l-8.936-4.75v-6.037l20.306,10.787a4.961,4.961,0,0,1,2.377,3.425A2.225,2.225,0,0,1,3132.389,969.471Z" transform="translate(-4345.814 -8782.288)"/><path class="k" d="M3132.389,969.471v37.113a4.89,4.89,0,0,1-2.419,3.863l-73.556,39.1a.717.717,0,0,1-.14.064c-5.557,2.923-10.6,3.3-14.295,1.546-1.12-.534-5.429-2.843-6.48-3.469-3.333-1.984-5.362-5.894-5.362-11.375,0-11.3,8.643-25.129,19.508-31.476l.014-.013,68.942-36.637a4.015,4.015,0,0,0,.363-.232c.966-.707.84-1.7-.363-2.343l-8.936-4.75v-6.037l20.306,10.787a4.961,4.961,0,0,1,2.377,3.425A2.225,2.225,0,0,1,3132.389,969.471Z" transform="translate(-4345.814 -8782.288)"/><path class="l" d="M3130.856,966.769v37.113a4.89,4.89,0,0,1-2.419,3.863l-73.556,39.1a.726.726,0,0,1-.14.064c-7.244,3.81-13.621,3.3-17.258-.63-2.027-2.2-3.2-5.459-3.2-9.629,0-11.676,9.229-26.031,20.6-32.08l70.3-37.359,3.259-1.725c1.188-.644,2.181-.257,2.376.85A2.225,2.225,0,0,1,3130.856,966.769Z" transform="translate(-4344.281 -8779.586)"/><path class="m" d="M3046.726,1017.7c0,5,3.815,7.029,8.521,4.528s8.52-8.584,8.52-13.587-3.814-7.029-8.52-4.528S3046.726,1012.7,3046.726,1017.7Z" transform="translate(-4344.334 -8769.698)"/><path class="n" d="M3063.389,1004.91l-2.526-1.328-12.32,19.054,2.894,1.535Z" transform="translate(-4343.661 -8769.559)"/><path class="o" d="M3048.8,1018.9c0,5,3.813,7.029,8.52,4.529s8.521-8.584,8.521-13.587-3.815-7.029-8.522-4.529S3048.8,1013.9,3048.8,1018.9Z" transform="translate(-4343.567 -8769.386)"/></g></g></g></svg>