<svg xmlns="http://www.w3.org/2000/svg" width="36.755" height="34.68" viewBox="0 0 36.755 34.68"><defs><style>.a{fill:none;stroke:#01dbff;stroke-linecap:round;}</style></defs><g transform="translate(0.926 0.938)"><path class="a" d="M67.08,1298.3l-6.873,4.326" transform="translate(-40.258 -1292.421)"/><path class="a" d="M67.08,1298.3l-6.873,4.326" transform="translate(-32.281 -1288.094)"/><path class="a" d="M6.873,0,0,4.326" transform="matrix(0.454, 0.891, -0.891, 0.454, 10.885, 4.001)"/><path class="a" d="M6.873,0,0,4.326" transform="matrix(0.454, 0.891, -0.891, 0.454, 3.856, 8.702)"/><path class="a" d="M6.873,0,0,4.326" transform="matrix(0.454, 0.891, -0.891, 0.454, 23.805, 21.61)"/><path class="a" d="M6.889,0,0,4.157" transform="translate(20.539 26.838) rotate(120)"/><path class="a" d="M6.889,0,0,4.157" transform="translate(20.539 2.079) rotate(120)"/><path class="a" d="M6.873,0,0,4.326" transform="matrix(0.454, 0.891, -0.891, 0.454, 31.781, 16.671)"/><path class="a" d="M67.08,1298.3l-6.873,4.326" transform="translate(-53.178 -1274.811)"/><path class="a" d="M67.08,1298.3l-6.873,4.326" transform="translate(-60.207 -1279.751)"/></g></svg>