<svg xmlns="http://www.w3.org/2000/svg" xmlns:xlink="http://www.w3.org/1999/xlink" width="542.735" height="372.211" viewBox="0 0 542.735 372.211"><defs><style>.a{fill:url(#a);}.b,.d{mix-blend-mode:overlay;isolation:isolate;}.c,.d,.f{fill:#fff;}.e,.g,.h,.i,.j,.k{fill:none;}.e,.f,.g,.h,.i{stroke:#fff;stroke-miterlimit:10;}.e,.g,.h,.j,.k{stroke-width:3px;}.g,.h{stroke-linejoin:bevel;}.h,.j,.k{stroke-linecap:round;}.j{stroke:#2f405d;}.j,.k{stroke-linejoin:round;}.k{stroke:#475670;}</style><linearGradient id="a" x1="1" y1="0.762" x2="-0.367" y2="0.156" gradientUnits="objectBoundingBox"><stop offset="0" stop-color="#fff"/><stop offset="1" stop-color="#243655"/></linearGradient></defs><g transform="translate(-542.031 -183.557)"><g transform="translate(-187 -7.928)"><g transform="translate(827 194.985)"><path class="a" d="M-2733.356,5517v254.024l-86.85,43.887V5560.178" transform="translate(2906.756 -5473.437)"/><path class="a" d="M-2939.036,5605.162v158.682l86.549,43.568V5559.2l-86.549-42" transform="translate(2939.036 -5473.264)"/><path class="a" d="M-2851.829,5514.148l-87.207,44,87.207,43.126,86.11-43.126Z" transform="translate(2939.036 -5514.148)"/></g><g class="b" transform="translate(835.569 288.041)"><g transform="translate(88.987)"><path class="c" d="M235.25,1742.267l67.057-34.236v11.206l-67.094,34.236Z" transform="translate(-235.213 -1708.031)"/><path class="c" d="M235.25,1789.167l67.057-34.236v11.206l-67.094,34.236Z" transform="translate(-235.213 -1724.016)"/><path class="c" d="M235.25,1836.067l67.057-34.236v11.206l-67.094,34.236Z" transform="translate(-235.213 -1740.001)"/><path class="c" d="M235.25,1882.967l67.057-34.236v11.206l-67.094,34.236Z" transform="translate(-235.213 -1755.986)"/><path class="c" d="M235.25,1929.867l67.057-34.236v11.206l-67.094,34.236Z" transform="translate(-235.213 -1771.972)"/><path class="c" d="M235.25,1976.767l67.057-34.236v11.206l-67.094,34.236Z" transform="translate(-235.213 -1787.957)"/></g><g transform="translate(0)"><path class="c" d="M167.27,1742.267l-67.057-34.236v11.206l67.094,34.236Z" transform="translate(-100.213 -1708.031)"/><path class="c" d="M167.27,1789.167l-67.057-34.236v11.206l67.094,34.236Z" transform="translate(-100.213 -1724.016)"/><path class="c" d="M167.27,1836.067l-67.057-34.236v11.206l67.094,34.236Z" transform="translate(-100.213 -1740.001)"/><path class="c" d="M167.27,1882.967l-67.057-34.236v11.206l67.094,34.236Z" transform="translate(-100.213 -1755.986)"/><path class="c" d="M167.27,1929.867l-67.057-34.236v11.206l67.094,34.236Z" transform="translate(-100.213 -1771.972)"/><path class="c" d="M167.27,1976.767l-67.057-34.236v11.206l67.094,34.236Z" transform="translate(-100.213 -1787.957)"/></g></g><ellipse class="d" cx="27.96" cy="19.42" rx="27.96" ry="19.42" transform="translate(885.649 219.823)"/></g><g transform="translate(-116.602 23.072)"><g transform="translate(930 163.985)"><path class="a" d="M-2733.356,5517v254.024l-86.85,43.887V5560.178" transform="translate(2906.756 -5473.437)"/><path class="a" d="M-2939.036,5605.162v158.682l86.549,43.568V5559.2l-86.549-42" transform="translate(2939.036 -5473.264)"/><path class="a" d="M-2851.829,5514.148l-87.207,44,87.207,43.126,86.11-43.126Z" transform="translate(2939.036 -5514.148)"/></g><g class="b" transform="translate(-691.314 -2843.139)"><g transform="translate(1637.261 3072.771)"><path class="e" d="M1706.851,3131.322V3275.16l12.789,6.333" transform="translate(-1661.545 -3108.963)"/><path class="e" d="M1674.48,3114.721V3258.56l12.789,6.333" transform="translate(-1652.122 -3104.13)"/><path class="e" d="M1642.939,3099.781V3243.62l12.79,6.333" transform="translate(-1642.939 -3099.781)"/></g><line class="e" y1="243.968" transform="translate(1728.461 3091.6)"/><line class="e" y1="240.743" transform="translate(1752.585 3082.774)"/><line class="e" y1="245.522" transform="translate(1776.709 3066.299)"/><g transform="translate(1616.969 3003.482)"><g transform="translate(61.304 23.872)"><path class="f" d="M253.819,4988.609l-31.2,15.856,31.2,15.542,30.808-15.542Z" transform="translate(-222.618 -4988.609)"/><path class="g" d="M288.5,5038.724v13.789l30.985-15.777V5023" transform="translate(-258.032 -5007.095)"/><path class="h" d="M253.7,5052.4l-30.735-15.368-.349-13.629,31.2,15.135Z" transform="translate(-222.618 -5007.313)"/></g></g></g></g><path class="a" d="M-2733.356,5517v70.024l-86.85,45.887v-72.733Z" transform="translate(3633.457 -5077.143)"/><path class="a" d="M-2939.036,5588.844l86.549,43.568V5559.2l-86.549-42" transform="translate(3665.736 -5076.969)"/><path class="a" d="M-2851.829,5514.148l-87.207,44,87.207,43.126,86.11-43.126Z" transform="translate(3665.736 -5117.854)"/><g class="b"><g class="b" transform="translate(-83.717 132.103)"><path class="c" d="M-16139.222-2469.652l-63.269-30.287,63.269-29.745Z" transform="translate(17031 2808)"/><path class="c" d="M-16202.49-2469.652l63.269-30.287-63.269-29.745Z" transform="translate(17106.244 2808)"/></g><g class="b" transform="translate(-2878.27 -1838.47)"><path class="c" d="M3702.235,2381.715l-5.3,2.668v4.349l76.6-39.855v-4.349l-4.764,2.486v-5.305l-66.538,34.7Z" transform="translate(0 -2.214)"/><path class="c" d="M3765.458,2329.851V2298.37l2.172-1.133v-6.415l-16.358,8.531v6.415l2.172-1.134v31.481l-2.172,1.133v6.415l16.358-8.531v-6.415Z" transform="translate(-1.511 0)"/><path class="c" d="M3742.383,2342.083V2310.6l2.167-1.132v-6.414l-16.353,8.529V2318l2.167-1.129v31.481l-2.167,1.13v6.415l16.353-8.529v-6.415Z" transform="translate(-0.869 -0.532)"/><path class="c" d="M3719.3,2354.316v-31.48l2.172-1.132v-6.415l-16.358,8.53v6.415l2.172-1.132v31.48l-2.172,1.131v6.415l16.358-8.53v-6.415Z" transform="translate(-0.227 -1.064)"/></g><g class="b" transform="translate(744.793 456.978)"><path class="i" d="M-2919.864,5841.782v-66.989l49.485,24.791v66.279" transform="translate(2919.864 -5774.793)"/><path class="c" d="M-2911.91,5791.091v57.756l9.544,4.762-2.127-1.083v-27.346l.488.007c-1.63-2.115-3.781-6.348-3.781-9.424,0-13.051,15.12-11.359,15.12-11.359s15.119,14.52,15.119,26.446c0,4.1-2.06,5.267-4.8,5.071l-.325.3v27.212l8.9,4.441V5810.12Z" transform="translate(2917.571 -5779.492)"/></g></g><g transform="translate(363.695 -611.856)"><g transform="translate(179.836 796.913)"><path class="j" d="M195.623,831.125l96.469,47.866v54.264l-96.469-47.866Z" transform="translate(-195.623 -831.125)"/><line class="j" x2="7.537" y2="3.74" transform="translate(10.551 48.948)"/><line class="j" x2="7.537" y2="3.74" transform="translate(78.381 49.443)"/><g transform="translate(30.223 30.77)"><path class="j" d="M285.824,892.255v18.61s-.041,4.008,4.94,6.451c2.633,1.292,5.611,2.784,5.611,2.784s.337-6.4-1.507-9.792" transform="translate(-266.229 -889.263)"/><path class="j" d="M250.345,899.7c0,4.892,1.241,10.254,6.044,13.3,4.66,2.953,7.513.018,7.52-4.779q.006-4.23,0-8.466V886.837" transform="translate(-250.345 -886.837)"/><line class="j" x2="3.038" y2="6.029" transform="translate(19.572 36.142)"/><line class="j" x2="3.038" y2="6.029" transform="translate(27.132 39.893)"/><path class="j" d="M302.2,946.1c6.826,6.149,13.472,2.539,9.044-7.572" transform="translate(-273.56 -909.978)"/></g></g></g><g transform="translate(806.961 -451.684)"><g transform="translate(179.836 796.913)"><path class="k" d="M195.623,831.125l96.469,47.866v54.264l-96.469-47.866Z" transform="translate(-195.623 -831.125)"/><line class="k" x2="7.537" y2="3.74" transform="translate(10.551 48.948)"/><line class="k" x2="7.537" y2="3.74" transform="translate(78.381 49.443)"/><g transform="translate(30.223 30.77)"><path class="k" d="M285.824,892.255v18.61s-.041,4.008,4.94,6.451c2.633,1.292,5.611,2.784,5.611,2.784s.337-6.4-1.507-9.792" transform="translate(-266.229 -889.263)"/><path class="k" d="M250.345,899.7c0,4.892,1.241,10.254,6.044,13.3,4.66,2.953,7.513.018,7.52-4.779q.006-4.23,0-8.466V886.837" transform="translate(-250.345 -886.837)"/><line class="k" x2="3.038" y2="6.029" transform="translate(19.572 36.142)"/><line class="k" x2="3.038" y2="6.029" transform="translate(27.132 39.893)"/><path class="k" d="M302.2,946.1c6.826,6.149,13.472,2.539,9.044-7.572" transform="translate(-273.56 -909.978)"/></g></g></g></g></svg>