<svg xmlns="http://www.w3.org/2000/svg" width="48.26" height="29.653" viewBox="0 0 48.26 29.653"><defs><style>.a{opacity:0.498;}.b,.c,.d{fill:none;stroke-linecap:round;}.b{stroke:aqua;}.b,.c{stroke-miterlimit:10;stroke-width:0.1px;}.c{stroke:#dedede;}.d{stroke:#01dbff;}.e{fill:#ebebec;}</style></defs><g transform="translate(-35.032 -1140.117)"><g class="a" transform="translate(36.229 1140.703)"><g transform="translate(0 0)"><path class="b" d="M-693.056-1729.061l-7.688-4.731,7.688-4.731,7.688,4.731Z" transform="translate(708.432 1743.255)"/><path class="b" d="M-745.056-1697.061l-7.688-4.731,7.688-4.731,7.688,4.731Z" transform="translate(752.744 1715.986)"/><path class="b" d="M-693.056-1665.062l-7.688-4.731,7.688-4.731,7.688,4.731Z" transform="translate(708.432 1688.717)"/><path class="b" d="M-588.946-1729.061l-7.688-4.731,7.688-4.731,7.688,4.731Z" transform="translate(619.714 1743.255)"/><path class="b" d="M-536.946-1697.061l-7.688-4.731,7.688-4.731,7.688,4.731Z" transform="translate(575.403 1715.986)"/><path class="b" d="M-589.056-1665.062l-7.688-4.731,7.688-4.731,7.688,4.731Z" transform="translate(619.808 1688.717)"/><path class="b" d="M-641.056-1633.061l-7.688-4.731,7.688-4.731,7.688,4.731Z" transform="translate(664.12 1661.448)"/><path class="b" d="M-641.056-1761.061l-7.688-4.731,7.688-4.731,7.688,4.731Z" transform="translate(664.12 1770.524)"/><path class="b" d="M-641.056-1697.061l-7.688-4.731,7.688-4.731,7.688,4.731Z" transform="translate(664.12 1715.986)"/></g><line class="c" y2="28.387" transform="translate(23.064 0)"/><line class="c" y2="18.925" transform="translate(30.753 4.731)"/><line class="c" y2="18.925" transform="translate(15.376 4.731)"/><line class="c" y2="9.462" transform="translate(38.441 9.462)"/><line class="c" y2="9.462" transform="translate(7.688 9.462)"/><g transform="translate(0 4.731)"><line class="c" x2="15.376" transform="translate(15.376)"/><line class="c" x2="15.376" transform="translate(15.376 18.925)"/><line class="c" x2="30.785" transform="translate(7.672 4.731)"/><line class="c" x2="30.785" transform="translate(7.672 14.193)"/><line class="c" x2="46.129" transform="translate(0 9.462)"/></g></g><path class="d" d="M59.3,1169.08l-7.488-4.734L36,1154.914,59.3,1140.7l23.035,14.211L66.9,1164.346l-7.6-4.6"/><path class="e" d="M41.03,38.958a.609.609,0,0,1-.607.609H33.107a.609.609,0,0,1-.607-.609,4.265,4.265,0,0,1,8.53,0Zm-4.265-5.34a2.559,2.559,0,1,1,2.559-2.559A2.559,2.559,0,0,1,36.765,33.618Zm0-4.387Z" transform="translate(22.402 1120.351)"/></g></svg>