<svg xmlns="http://www.w3.org/2000/svg" width="504.099" height="309.256" viewBox="0 0 504.099 309.256"><defs><style>.a{opacity:0.403;}.b,.c,.d,.e{fill:none;}.b{stroke:aqua;}.b,.c,.i,.j,.k{stroke-linecap:round;}.b,.c{stroke-miterlimit:10;stroke-width:0.1px;}.c{stroke:#dedede;}.d,.e,.f,.g{stroke:#01dbff;}.d,.h{stroke-dasharray:4;}.e{stroke-dasharray:6;}.f{fill:#21252c;}.g,.k{fill:#ebebec;}.h{fill:#011e58;stroke:#579ff8;}.i{fill:#3de7bc;}.i,.j,.k{stroke:#000;stroke-linejoin:round;stroke-width:3px;}.j{fill:#01dbff;}</style></defs><g transform="translate(-451.172 -1541.814)"><g class="a" transform="translate(454.723 1541.873)"><g transform="translate(125.113 115.448)"><g transform="translate(0 0)"><path class="b" d="M-835.844-1616.869l-20.845-12.827,20.845-12.827L-815-1629.7Z" transform="translate(877.534 1655.351)"/><path class="b" d="M-887.844-1584.869l-20.845-12.827,20.845-12.828L-867-1597.7Z" transform="translate(908.689 1636.179)"/><path class="b" d="M-835.844-1552.869l-20.845-12.828,20.845-12.827L-815-1565.7Z" transform="translate(877.534 1617.006)"/><path class="b" d="M-731.734-1616.869l-20.845-12.827,20.845-12.827,20.845,12.827Z" transform="translate(815.157 1655.351)"/><path class="b" d="M-679.734-1584.869l-20.845-12.827,20.845-12.828,20.845,12.828Z" transform="translate(784.002 1636.179)"/><path class="b" d="M-731.844-1552.869l-20.845-12.828,20.845-12.827L-711-1565.7Z" transform="translate(815.223 1617.006)"/><path class="b" d="M-783.844-1520.868l-20.845-12.828,20.845-12.827L-763-1533.7Z" transform="translate(846.379 1597.834)"/><path class="b" d="M-783.844-1648.868l-20.845-12.828,20.845-12.828L-763-1661.7Z" transform="translate(846.379 1674.524)"/><path class="b" d="M-783.844-1584.869l-20.845-12.827,20.845-12.828L-763-1597.7Z" transform="translate(846.379 1636.179)"/></g><line class="c" y2="76.965" transform="translate(62.534 0)"/><line class="c" y2="51.31" transform="translate(83.379 12.828)"/><line class="c" y2="51.31" transform="translate(41.69 12.828)"/><line class="c" y2="25.655" transform="translate(104.224 25.655)"/><line class="c" y2="25.655" transform="translate(20.845 25.655)"/><g transform="translate(0 12.828)"><line class="c" x2="41.69" transform="translate(41.69)"/><line class="c" x2="41.69" transform="translate(41.69 51.31)"/><line class="c" x2="83.468" transform="translate(20.801 12.828)"/><line class="c" x2="83.468" transform="translate(20.801 38.483)"/><line class="c" x2="125.069" transform="translate(0 25.655)"/></g></g><g transform="translate(125.113 192.414)"><g transform="translate(0 0)"><path class="b" d="M-835.844-1424.868l-20.845-12.828,20.845-12.828L-815-1437.7Z" transform="translate(877.534 1463.351)"/><path class="b" d="M-887.844-1392.869l-20.845-12.827,20.845-12.828L-867-1405.7Z" transform="translate(908.689 1444.179)"/><path class="b" d="M-835.844-1360.869l-20.845-12.828,20.845-12.828L-815-1373.7Z" transform="translate(877.534 1425.006)"/><path class="b" d="M-731.734-1424.868l-20.845-12.828,20.845-12.828,20.845,12.828Z" transform="translate(815.157 1463.351)"/><path class="b" d="M-679.734-1392.869l-20.845-12.827,20.845-12.828,20.845,12.828Z" transform="translate(784.002 1444.179)"/><path class="b" d="M-731.844-1360.869l-20.845-12.828,20.845-12.828L-711-1373.7Z" transform="translate(815.223 1425.006)"/><path class="b" d="M-783.844-1328.869l-20.845-12.828,20.845-12.828L-763-1341.7Z" transform="translate(846.379 1405.834)"/><path class="b" d="M-783.844-1456.868l-20.845-12.828,20.845-12.828L-763-1469.7Z" transform="translate(846.379 1482.524)"/><path class="b" d="M-783.844-1392.869l-20.845-12.827,20.845-12.828L-763-1405.7Z" transform="translate(846.379 1444.179)"/></g><line class="c" y2="76.965" transform="translate(62.534 0)"/><line class="c" y2="51.31" transform="translate(83.379 12.828)"/><line class="c" y2="51.31" transform="translate(41.69 12.828)"/><line class="c" y2="25.655" transform="translate(104.224 25.655)"/><line class="c" y2="25.655" transform="translate(20.845 25.655)"/><g transform="translate(0 12.828)"><line class="c" x2="41.69" transform="translate(41.69)"/><line class="c" x2="41.69" transform="translate(41.69 51.31)"/><line class="c" x2="83.468" transform="translate(20.801 12.828)"/><line class="c" x2="83.468" transform="translate(20.801 38.483)"/><line class="c" x2="125.069" transform="translate(0 25.655)"/></g></g><g transform="translate(250.138 192.414)"><g transform="translate(0 0)"><path class="b" d="M-523.954-1424.868-544.8-1437.7l20.845-12.828,20.845,12.828Z" transform="translate(565.644 1463.351)"/><path class="b" d="M-575.954-1392.869-596.8-1405.7l20.845-12.828,20.845,12.828Z" transform="translate(596.799 1444.179)"/><path class="b" d="M-523.954-1360.869-544.8-1373.7l20.845-12.828,20.845,12.828Z" transform="translate(565.644 1425.006)"/><path class="b" d="M-419.844-1424.868l-20.845-12.828,20.845-12.828L-399-1437.7Z" transform="translate(503.268 1463.351)"/><path class="b" d="M-367.844-1392.869l-20.845-12.827,20.845-12.828L-347-1405.7Z" transform="translate(472.112 1444.179)"/><path class="b" d="M-419.954-1360.869-440.8-1373.7l20.845-12.828,20.845,12.828Z" transform="translate(503.334 1425.006)"/><path class="b" d="M-471.954-1328.869-492.8-1341.7l20.845-12.828,20.845,12.828Z" transform="translate(534.489 1405.834)"/><path class="b" d="M-471.954-1456.868-492.8-1469.7l20.845-12.828,20.845,12.828Z" transform="translate(534.489 1482.524)"/><path class="b" d="M-471.954-1392.869-492.8-1405.7l20.845-12.828,20.845,12.828Z" transform="translate(534.489 1444.179)"/></g><line class="c" y2="76.965" transform="translate(62.534 0)"/><line class="c" y2="51.31" transform="translate(83.379 12.828)"/><line class="c" y2="51.31" transform="translate(41.69 12.828)"/><line class="c" y2="25.655" transform="translate(104.224 25.655)"/><line class="c" y2="25.655" transform="translate(20.845 25.655)"/><g transform="translate(0 12.828)"><line class="c" x2="41.69" transform="translate(41.69)"/><line class="c" x2="41.69" transform="translate(41.69 51.31)"/><line class="c" x2="83.468" transform="translate(20.801 12.828)"/><line class="c" x2="83.468" transform="translate(20.801 38.483)"/><line class="c" x2="125.069" transform="translate(0 25.655)"/></g></g><g transform="translate(187.581 230.896)"><path class="b" d="M-680.01-1328.869l-20.845-12.828,20.845-12.828,20.845,12.828Z" transform="translate(721.699 1367.351)"/><path class="b" d="M-732.01-1296.868l-20.845-12.828,20.845-12.827,20.845,12.827Z" transform="translate(752.855 1348.179)"/><path class="b" d="M-680.01-1264.869l-20.845-12.828,20.845-12.828,20.845,12.828Z" transform="translate(721.699 1329.007)"/><path class="b" d="M-575.9-1328.869l-20.845-12.828,20.845-12.828,20.845,12.828Z" transform="translate(659.323 1367.351)"/><path class="b" d="M-523.9-1296.868l-20.845-12.828,20.845-12.827,20.845,12.827Z" transform="translate(628.167 1348.179)"/><path class="b" d="M-576.01-1264.869l-20.845-12.828,20.845-12.828,20.845,12.828Z" transform="translate(659.389 1329.007)"/><path class="b" d="M-628.01-1232.868l-20.845-12.828,20.845-12.828,20.845,12.828Z" transform="translate(690.544 1309.834)"/><path class="b" d="M-628.01-1360.869l-20.845-12.828,20.845-12.828,20.845,12.828Z" transform="translate(690.544 1386.524)"/><path class="b" d="M-628.01-1296.868l-20.845-12.828,20.845-12.827,20.845,12.827Z" transform="translate(690.544 1348.179)"/><line class="c" y2="76.965" transform="translate(62.534)"/><line class="c" y2="51.31" transform="translate(83.379 12.828)"/><line class="c" y2="51.31" transform="translate(41.69 12.828)"/><line class="c" y2="25.655" transform="translate(104.224 25.655)"/><line class="c" y2="25.655" transform="translate(20.845 25.655)"/><g transform="translate(0 12.828)"><line class="c" x2="41.69" transform="translate(41.69)"/><line class="c" x2="41.69" transform="translate(41.69 51.31)"/><line class="c" x2="83.468" transform="translate(20.801 12.828)"/><line class="c" x2="83.468" transform="translate(20.801 38.483)"/><line class="c" x2="125.069" transform="translate(0 25.655)"/></g></g><g transform="translate(0 115.448)"><g transform="translate(0 0)"><path class="b" d="M-1147.954-1616.869-1168.8-1629.7l20.845-12.827,20.845,12.827Z" transform="translate(1189.644 1655.351)"/><path class="b" d="M-1199.954-1584.869-1220.8-1597.7l20.845-12.828,20.845,12.828Z" transform="translate(1220.799 1636.179)"/><path class="b" d="M-1147.954-1552.869-1168.8-1565.7l20.845-12.827,20.845,12.827Z" transform="translate(1189.644 1617.006)"/><path class="b" d="M-1043.844-1616.869l-20.844-12.827,20.844-12.827L-1023-1629.7Z" transform="translate(1127.267 1655.351)"/><path class="b" d="M-991.844-1584.869l-20.845-12.827,20.845-12.828L-971-1597.7Z" transform="translate(1096.112 1636.179)"/><path class="b" d="M-1043.954-1552.869-1064.8-1565.7l20.845-12.827,20.845,12.827Z" transform="translate(1127.333 1617.006)"/><path class="b" d="M-1095.954-1520.868-1116.8-1533.7l20.845-12.827,20.845,12.827Z" transform="translate(1158.489 1597.834)"/><path class="b" d="M-1095.954-1648.868-1116.8-1661.7l20.845-12.828,20.845,12.828Z" transform="translate(1158.489 1674.524)"/><path class="b" d="M-1095.954-1584.869-1116.8-1597.7l20.845-12.828,20.845,12.828Z" transform="translate(1158.489 1636.179)"/></g><line class="c" y2="76.965" transform="translate(62.534 0)"/><line class="c" y2="51.31" transform="translate(83.379 12.828)"/><line class="c" y2="51.31" transform="translate(41.69 12.828)"/><line class="c" y2="25.655" transform="translate(104.224 25.655)"/><line class="c" y2="25.655" transform="translate(20.845 25.655)"/><g transform="translate(0 12.828)"><line class="c" x2="41.69" transform="translate(41.69)"/><line class="c" x2="41.69" transform="translate(41.69 51.31)"/><line class="c" x2="83.468" transform="translate(20.801 12.828)"/><line class="c" x2="83.468" transform="translate(20.801 38.483)"/><line class="c" x2="125.069" transform="translate(0 25.655)"/></g></g><g transform="translate(187.625 76.965)"><g transform="translate(0 0)"><path class="b" d="M-679.9-1712.868l-20.845-12.828,20.845-12.828,20.845,12.828Z" transform="translate(721.589 1751.351)"/><path class="b" d="M-731.9-1680.869l-20.845-12.827,20.845-12.828,20.845,12.828Z" transform="translate(752.744 1732.179)"/><path class="b" d="M-679.9-1648.868l-20.845-12.828,20.845-12.828,20.845,12.828Z" transform="translate(721.589 1713.006)"/><path class="b" d="M-575.789-1712.868l-20.845-12.828,20.845-12.828,20.845,12.828Z" transform="translate(659.212 1751.351)"/><path class="b" d="M-523.789-1680.869l-20.845-12.827,20.845-12.828,20.845,12.828Z" transform="translate(628.057 1732.179)"/><path class="b" d="M-575.9-1648.868l-20.845-12.828,20.845-12.828,20.845,12.828Z" transform="translate(659.279 1713.006)"/><path class="b" d="M-627.9-1616.869l-20.844-12.827,20.844-12.827,20.845,12.827Z" transform="translate(690.434 1693.834)"/><path class="b" d="M-627.9-1744.869l-20.844-12.828,20.844-12.827,20.845,12.827Z" transform="translate(690.434 1770.524)"/><path class="b" d="M-627.9-1680.869l-20.844-12.827,20.844-12.828,20.845,12.828Z" transform="translate(690.434 1732.179)"/></g><line class="c" y2="76.965" transform="translate(62.534 0)"/><line class="c" y2="51.31" transform="translate(83.379 12.828)"/><line class="c" y2="51.31" transform="translate(41.69 12.828)"/><line class="c" y2="25.655" transform="translate(104.224 25.655)"/><line class="c" y2="25.655" transform="translate(20.845 25.655)"/><g transform="translate(0 12.828)"><line class="c" x2="41.69" transform="translate(41.69)"/><line class="c" x2="41.69" transform="translate(41.69 51.31)"/><line class="c" x2="83.468" transform="translate(20.801 12.828)"/><line class="c" x2="83.468" transform="translate(20.801 38.483)"/><line class="c" x2="125.069" transform="translate(0 25.655)"/></g></g><g transform="translate(62.556 76.965)"><g transform="translate(0 0)"><path class="b" d="M-991.9-1712.868l-20.844-12.828,20.844-12.828,20.845,12.828Z" transform="translate(1033.589 1751.351)"/><path class="b" d="M-1043.9-1680.869l-20.845-12.827,20.845-12.828,20.845,12.828Z" transform="translate(1064.744 1732.179)"/><path class="b" d="M-991.9-1648.868l-20.844-12.828,20.844-12.828,20.845,12.828Z" transform="translate(1033.589 1713.006)"/><path class="b" d="M-887.789-1712.868l-20.845-12.828,20.845-12.828,20.845,12.828Z" transform="translate(971.212 1751.351)"/><path class="b" d="M-835.789-1680.869l-20.845-12.827,20.845-12.828,20.845,12.828Z" transform="translate(940.057 1732.179)"/><path class="b" d="M-887.9-1648.868l-20.845-12.828,20.845-12.828,20.845,12.828Z" transform="translate(971.279 1713.006)"/><path class="b" d="M-939.9-1616.869l-20.845-12.827,20.845-12.827,20.845,12.827Z" transform="translate(1002.434 1693.834)"/><path class="b" d="M-939.9-1744.869l-20.845-12.828,20.845-12.827,20.845,12.827Z" transform="translate(1002.434 1770.524)"/><path class="b" d="M-939.9-1680.869l-20.845-12.827,20.845-12.828,20.845,12.828Z" transform="translate(1002.434 1732.179)"/></g><line class="c" y2="76.965" transform="translate(62.534 0)"/><line class="c" y2="51.31" transform="translate(83.379 12.828)"/><line class="c" y2="51.31" transform="translate(41.69 12.828)"/><line class="c" y2="25.655" transform="translate(104.224 25.655)"/><line class="c" y2="25.655" transform="translate(20.845 25.655)"/><g transform="translate(0 12.828)"><line class="c" x2="41.69" transform="translate(41.69)"/><line class="c" x2="41.69" transform="translate(41.69 51.31)"/><line class="c" x2="83.468" transform="translate(20.801 12.828)"/><line class="c" x2="83.468" transform="translate(20.801 38.483)"/><line class="c" x2="125.069" transform="translate(0 25.655)"/></g></g><g transform="translate(312.783 76.965)"><g transform="translate(0 0)"><path class="b" d="M-367.678-1712.868l-20.845-12.828,20.845-12.828,20.845,12.828Z" transform="translate(409.368 1751.351)"/><path class="b" d="M-419.678-1680.869l-20.845-12.827,20.845-12.828,20.845,12.828Z" transform="translate(440.523 1732.179)"/><path class="b" d="M-367.678-1648.868l-20.845-12.828,20.845-12.828,20.845,12.828Z" transform="translate(409.368 1713.006)"/><path class="b" d="M-263.568-1712.868l-20.845-12.828,20.845-12.828,20.845,12.828Z" transform="translate(346.992 1751.351)"/><path class="b" d="M-211.568-1680.869l-20.845-12.827,20.845-12.828,20.845,12.828Z" transform="translate(315.836 1732.179)"/><path class="b" d="M-263.679-1648.868l-20.845-12.828,20.845-12.828,20.845,12.828Z" transform="translate(347.058 1713.006)"/><path class="b" d="M-315.679-1616.869l-20.845-12.827,20.845-12.827,20.845,12.827Z" transform="translate(378.213 1693.834)"/><path class="b" d="M-315.679-1744.869l-20.845-12.828,20.845-12.827,20.845,12.827Z" transform="translate(378.213 1770.524)"/><path class="b" d="M-315.679-1680.869l-20.845-12.827,20.845-12.828,20.845,12.828Z" transform="translate(378.213 1732.179)"/></g><line class="c" y2="76.965" transform="translate(62.534 0)"/><line class="c" y2="51.31" transform="translate(83.379 12.828)"/><line class="c" y2="51.31" transform="translate(41.69 12.828)"/><line class="c" y2="25.655" transform="translate(104.224 25.655)"/><line class="c" y2="25.655" transform="translate(20.845 25.655)"/><g transform="translate(0 12.828)"><line class="c" x2="41.69" transform="translate(41.69)"/><line class="c" x2="41.69" transform="translate(41.69 51.31)"/><line class="c" x2="83.468" transform="translate(20.801 12.828)"/><line class="c" x2="83.468" transform="translate(20.801 38.483)"/><line class="c" x2="125.069" transform="translate(0 25.655)"/></g></g><g transform="translate(250.093 38.483)"><g transform="translate(0)"><path class="b" d="M-524.065-1808.869-544.91-1821.7l20.845-12.827,20.845,12.827Z" transform="translate(565.754 1847.351)"/><path class="b" d="M-576.065-1776.868-596.91-1789.7l20.845-12.828,20.845,12.828Z" transform="translate(596.91 1828.179)"/><path class="b" d="M-524.065-1744.869-544.91-1757.7l20.845-12.827,20.845,12.827Z" transform="translate(565.754 1809.006)"/><path class="b" d="M-419.954-1808.869-440.8-1821.7l20.845-12.827,20.845,12.827Z" transform="translate(503.378 1847.351)"/><path class="b" d="M-367.954-1776.868-388.8-1789.7l20.845-12.828,20.845,12.828Z" transform="translate(472.223 1828.179)"/><path class="b" d="M-420.065-1744.869-440.91-1757.7l20.845-12.827,20.845,12.827Z" transform="translate(503.444 1809.006)"/><path class="b" d="M-472.065-1712.868-492.91-1725.7l20.845-12.828,20.845,12.828Z" transform="translate(534.599 1789.834)"/><path class="b" d="M-472.065-1840.869-492.91-1853.7l20.845-12.827,20.845,12.827Z" transform="translate(534.599 1866.524)"/><path class="b" d="M-472.065-1776.868-492.91-1789.7l20.845-12.828,20.845,12.828Z" transform="translate(534.599 1828.179)"/></g><line class="c" y2="76.965" transform="translate(62.534)"/><line class="c" y2="51.31" transform="translate(83.379 12.828)"/><line class="c" y2="51.31" transform="translate(41.69 12.828)"/><line class="c" y2="25.655" transform="translate(104.224 25.655)"/><line class="c" y2="25.655" transform="translate(20.845 25.655)"/><g transform="translate(0 12.828)"><line class="c" x2="41.69" transform="translate(41.69)"/><line class="c" x2="41.69" transform="translate(41.69 51.31)"/><line class="c" x2="83.468" transform="translate(20.801 12.828)"/><line class="c" x2="83.468" transform="translate(20.801 38.483)"/><line class="c" x2="125.069" transform="translate(0 25.655)"/></g></g><g transform="translate(187.537 0)"><g transform="translate(0)"><path class="b" d="M-680.12-1904.868l-20.845-12.828,20.845-12.827,20.845,12.827Z" transform="translate(721.81 1943.351)"/><path class="b" d="M-732.12-1872.869l-20.845-12.827,20.845-12.828,20.845,12.828Z" transform="translate(752.965 1924.179)"/><path class="b" d="M-680.12-1840.869l-20.845-12.827,20.845-12.827,20.845,12.827Z" transform="translate(721.81 1905.006)"/><path class="b" d="M-576.01-1904.868l-20.845-12.828,20.845-12.827,20.845,12.827Z" transform="translate(659.433 1943.351)"/><path class="b" d="M-524.01-1872.869l-20.845-12.827,20.845-12.828,20.845,12.828Z" transform="translate(628.278 1924.179)"/><path class="b" d="M-576.12-1840.869l-20.845-12.827,20.845-12.827,20.845,12.827Z" transform="translate(659.499 1905.006)"/><path class="b" d="M-628.12-1808.869l-20.845-12.828,20.845-12.827,20.845,12.827Z" transform="translate(690.655 1885.834)"/><path class="b" d="M-628.12-1936.868l-20.845-12.828,20.845-12.828,20.845,12.828Z" transform="translate(690.655 1962.524)"/><path class="b" d="M-628.12-1872.869l-20.845-12.827,20.845-12.828,20.845,12.828Z" transform="translate(690.655 1924.179)"/></g><line class="c" y2="76.965" transform="translate(62.534)"/><line class="c" y2="51.31" transform="translate(83.379 12.828)"/><line class="c" y2="51.31" transform="translate(41.69 12.828)"/><line class="c" y2="25.655" transform="translate(104.224 25.655)"/><line class="c" y2="25.655" transform="translate(20.845 25.655)"/><g transform="translate(0 12.828)"><line class="c" x2="41.69" transform="translate(41.69)"/><line class="c" x2="41.69" transform="translate(41.69 51.31)"/><line class="c" x2="83.468" transform="translate(20.801 12.828)"/><line class="c" x2="83.468" transform="translate(20.801 38.483)"/><line class="c" x2="125.069" transform="translate(0 25.655)"/></g></g><g transform="translate(125.024 38.483)"><path class="b" d="M-836.065-1808.869-856.91-1821.7l20.845-12.827,20.845,12.827Z" transform="translate(877.755 1847.351)"/><path class="b" d="M-888.065-1776.868-908.91-1789.7l20.845-12.828,20.845,12.828Z" transform="translate(908.91 1828.179)"/><path class="b" d="M-836.065-1744.869-856.91-1757.7l20.845-12.827,20.845,12.827Z" transform="translate(877.755 1809.006)"/><path class="b" d="M-731.955-1808.869-752.8-1821.7l20.845-12.827,20.845,12.827Z" transform="translate(815.378 1847.351)"/><path class="b" d="M-679.954-1776.868-700.8-1789.7l20.845-12.828,20.845,12.828Z" transform="translate(784.223 1828.179)"/><path class="b" d="M-732.065-1744.869-752.91-1757.7l20.845-12.827,20.845,12.827Z" transform="translate(815.444 1809.006)"/><path class="b" d="M-784.065-1712.868-804.91-1725.7l20.845-12.828,20.845,12.828Z" transform="translate(846.599 1789.834)"/><path class="b" d="M-784.065-1840.869-804.91-1853.7l20.845-12.827,20.845,12.827Z" transform="translate(846.599 1866.524)"/><path class="b" d="M-784.065-1776.868-804.91-1789.7l20.845-12.828,20.845,12.828Z" transform="translate(846.599 1828.179)"/><line class="c" y2="76.965" transform="translate(62.534)"/><line class="c" y2="51.31" transform="translate(83.379 12.828)"/><line class="c" y2="51.31" transform="translate(41.69 12.828)"/><line class="c" y2="25.655" transform="translate(104.224 25.655)"/><line class="c" y2="25.655" transform="translate(20.845 25.655)"/><g transform="translate(0 12.828)"><line class="c" x2="41.69" transform="translate(41.69)"/><line class="c" x2="41.69" transform="translate(41.69 51.31)"/><line class="c" x2="83.468" transform="translate(20.801 12.828)"/><line class="c" x2="83.468" transform="translate(20.801 38.483)"/><line class="c" x2="125.069" transform="translate(0 25.655)"/></g></g><g transform="translate(187.67 153.931)"><g transform="translate(0 0)"><path class="b" d="M-679.789-1520.868l-20.845-12.828,20.845-12.827,20.845,12.827Z" transform="translate(721.479 1559.351)"/><path class="b" d="M-731.789-1488.869l-20.845-12.827,20.845-12.828,20.845,12.828Z" transform="translate(752.634 1540.179)"/><path class="b" d="M-679.789-1456.868l-20.845-12.828,20.845-12.828,20.845,12.828Z" transform="translate(721.479 1521.006)"/><path class="b" d="M-575.679-1520.868l-20.845-12.828,20.845-12.827,20.845,12.827Z" transform="translate(659.102 1559.351)"/><path class="b" d="M-523.679-1488.869l-20.845-12.827,20.845-12.828,20.845,12.828Z" transform="translate(627.947 1540.179)"/><path class="b" d="M-575.789-1456.868l-20.845-12.828,20.845-12.828,20.845,12.828Z" transform="translate(659.168 1521.006)"/><path class="b" d="M-627.789-1424.868l-20.845-12.828,20.845-12.828,20.845,12.828Z" transform="translate(690.323 1501.834)"/><path class="b" d="M-627.789-1552.869l-20.845-12.828,20.845-12.827,20.845,12.827Z" transform="translate(690.323 1578.524)"/><path class="b" d="M-627.789-1488.869l-20.845-12.827,20.845-12.828,20.845,12.828Z" transform="translate(690.323 1540.179)"/></g><line class="c" y2="76.965" transform="translate(62.534 0)"/><line class="c" y2="51.31" transform="translate(83.379 12.828)"/><line class="c" y2="51.31" transform="translate(41.69 12.828)"/><line class="c" y2="25.655" transform="translate(104.224 25.655)"/><line class="c" y2="25.655" transform="translate(20.845 25.655)"/><g transform="translate(0 12.828)"><line class="c" x2="41.69" transform="translate(41.69)"/><line class="c" x2="41.69" transform="translate(41.69 51.31)"/><line class="c" x2="83.468" transform="translate(20.801 12.828)"/><line class="c" x2="83.468" transform="translate(20.801 38.483)"/><line class="c" x2="125.069" transform="translate(0 25.655)"/></g></g><g transform="translate(62.629 153.931)"><g transform="translate(0 0)"><path class="b" d="M-991.718-1520.868l-20.845-12.828,20.845-12.827,20.845,12.827Z" transform="translate(1033.408 1559.351)"/><path class="b" d="M-1043.718-1488.869l-20.845-12.827,20.845-12.828,20.845,12.828Z" transform="translate(1064.563 1540.179)"/><path class="b" d="M-991.718-1456.868l-20.845-12.828,20.845-12.828,20.845,12.828Z" transform="translate(1033.408 1521.006)"/><path class="b" d="M-887.608-1520.868l-20.845-12.828,20.845-12.827,20.845,12.827Z" transform="translate(971.031 1559.351)"/><path class="b" d="M-835.608-1488.869l-20.845-12.827,20.845-12.828,20.845,12.828Z" transform="translate(939.876 1540.179)"/><path class="b" d="M-887.718-1456.868l-20.845-12.828,20.845-12.828,20.845,12.828Z" transform="translate(971.098 1521.006)"/><path class="b" d="M-939.718-1424.868l-20.845-12.828,20.845-12.828,20.845,12.828Z" transform="translate(1002.253 1501.834)"/><path class="b" d="M-939.718-1552.869l-20.845-12.828,20.845-12.827,20.845,12.827Z" transform="translate(1002.253 1578.524)"/><path class="b" d="M-939.718-1488.869l-20.845-12.827,20.845-12.828,20.845,12.828Z" transform="translate(1002.253 1540.179)"/></g><line class="c" y2="76.965" transform="translate(62.534 0)"/><line class="c" y2="51.31" transform="translate(83.379 12.828)"/><line class="c" y2="51.31" transform="translate(41.69 12.828)"/><line class="c" y2="25.655" transform="translate(104.224 25.655)"/><line class="c" y2="25.655" transform="translate(20.845 25.655)"/><g transform="translate(0 12.828)"><line class="c" x2="41.69" transform="translate(41.69)"/><line class="c" x2="41.69" transform="translate(41.69 51.31)"/><line class="c" x2="83.468" transform="translate(20.801 12.828)"/><line class="c" x2="83.468" transform="translate(20.801 38.483)"/><line class="c" x2="125.069" transform="translate(0 25.655)"/></g></g><g transform="translate(312.738 153.931)"><g transform="translate(0 0)"><path class="b" d="M-367.789-1520.868l-20.845-12.828,20.845-12.827,20.845,12.827Z" transform="translate(409.479 1559.351)"/><path class="b" d="M-419.789-1488.869l-20.845-12.827,20.845-12.828,20.845,12.828Z" transform="translate(440.634 1540.179)"/><path class="b" d="M-367.789-1456.868l-20.845-12.828,20.845-12.828,20.845,12.828Z" transform="translate(409.479 1521.006)"/><path class="b" d="M-263.679-1520.868l-20.845-12.828,20.845-12.827,20.845,12.827Z" transform="translate(347.102 1559.351)"/><path class="b" d="M-211.679-1488.869l-20.845-12.827,20.845-12.828,20.845,12.828Z" transform="translate(315.947 1540.179)"/><path class="b" d="M-263.789-1456.868l-20.845-12.828,20.845-12.828,20.845,12.828Z" transform="translate(347.168 1521.006)"/><path class="b" d="M-315.789-1424.868l-20.845-12.828,20.845-12.828,20.845,12.828Z" transform="translate(378.323 1501.834)"/><path class="b" d="M-315.789-1552.869l-20.845-12.828,20.845-12.827,20.845,12.827Z" transform="translate(378.323 1578.524)"/><path class="b" d="M-315.789-1488.869l-20.845-12.827,20.845-12.828,20.845,12.828Z" transform="translate(378.323 1540.179)"/></g><line class="c" y2="76.965" transform="translate(62.534 0)"/><line class="c" y2="51.31" transform="translate(83.379 12.828)"/><line class="c" y2="51.31" transform="translate(41.69 12.828)"/><line class="c" y2="25.655" transform="translate(104.224 25.655)"/><line class="c" y2="25.655" transform="translate(20.845 25.655)"/><g transform="translate(0 12.828)"><line class="c" x2="41.69" transform="translate(41.69)"/><line class="c" x2="41.69" transform="translate(41.69 51.31)"/><line class="c" x2="83.468" transform="translate(20.801 12.828)"/><line class="c" x2="83.468" transform="translate(20.801 38.483)"/><line class="c" x2="125.069" transform="translate(0 25.655)"/></g></g><g transform="translate(250.226 115.448)"><g transform="translate(0 0)"><path class="b" d="M-523.734-1616.869l-20.845-12.827,20.845-12.827,20.845,12.827Z" transform="translate(565.423 1655.351)"/><path class="b" d="M-575.734-1584.869l-20.845-12.827,20.845-12.828,20.845,12.828Z" transform="translate(596.579 1636.179)"/><path class="b" d="M-523.734-1552.869l-20.845-12.828,20.845-12.827,20.845,12.827Z" transform="translate(565.423 1617.006)"/><path class="b" d="M-419.623-1616.869l-20.845-12.827,20.845-12.827,20.845,12.827Z" transform="translate(503.047 1655.351)"/><path class="b" d="M-367.623-1584.869l-20.845-12.827,20.845-12.828,20.845,12.828Z" transform="translate(471.892 1636.179)"/><path class="b" d="M-419.734-1552.869l-20.845-12.828,20.845-12.827,20.845,12.827Z" transform="translate(503.113 1617.006)"/><path class="b" d="M-471.734-1520.868l-20.845-12.828,20.845-12.827,20.845,12.827Z" transform="translate(534.268 1597.834)"/><path class="b" d="M-471.734-1648.868l-20.845-12.828,20.845-12.828,20.845,12.828Z" transform="translate(534.268 1674.524)"/><path class="b" d="M-471.734-1584.869l-20.845-12.827,20.845-12.828,20.845,12.828Z" transform="translate(534.268 1636.179)"/></g><line class="c" y2="76.965" transform="translate(62.534 0)"/><line class="c" y2="51.31" transform="translate(83.379 12.828)"/><line class="c" y2="51.31" transform="translate(41.69 12.828)"/><line class="c" y2="25.655" transform="translate(104.224 25.655)"/><line class="c" y2="25.655" transform="translate(20.845 25.655)"/><g transform="translate(0 12.828)"><line class="c" x2="41.69" transform="translate(41.69)"/><line class="c" x2="41.69" transform="translate(41.69 51.31)"/><line class="c" x2="83.468" transform="translate(20.801 12.828)"/><line class="c" x2="83.468" transform="translate(20.801 38.483)"/><line class="c" x2="125.069" transform="translate(0 25.655)"/></g></g><g transform="translate(375.339 115.448)"><g transform="translate(0 0)"><path class="b" d="M-211.623-1616.869l-20.845-12.827,20.845-12.827,20.845,12.827Z" transform="translate(253.313 1655.351)"/><path class="b" d="M-263.623-1584.869l-20.845-12.827,20.845-12.828,20.845,12.828Z" transform="translate(284.468 1636.179)"/><path class="b" d="M-211.623-1552.869l-20.845-12.828,20.845-12.827,20.845,12.827Z" transform="translate(253.313 1617.006)"/><path class="b" d="M-107.513-1616.869l-20.845-12.827,20.845-12.827,20.845,12.827Z" transform="translate(190.936 1655.351)"/><path class="b" d="M-55.513-1584.869-76.358-1597.7l20.845-12.828,20.845,12.828Z" transform="translate(159.781 1636.179)"/><path class="b" d="M-107.623-1552.869l-20.845-12.828,20.845-12.827,20.845,12.827Z" transform="translate(191.003 1617.006)"/><path class="b" d="M-159.623-1520.868l-20.845-12.828,20.845-12.827,20.845,12.827Z" transform="translate(222.158 1597.834)"/><path class="b" d="M-159.623-1648.868l-20.845-12.828,20.845-12.828,20.845,12.828Z" transform="translate(222.158 1674.524)"/><path class="b" d="M-159.623-1584.869l-20.845-12.827,20.845-12.828,20.845,12.828Z" transform="translate(222.158 1636.179)"/></g><line class="c" y2="76.965" transform="translate(62.534 0)"/><line class="c" y2="51.31" transform="translate(83.379 12.828)"/><line class="c" y2="51.31" transform="translate(41.69 12.828)"/><line class="c" y2="25.655" transform="translate(104.224 25.655)"/><line class="c" y2="25.655" transform="translate(20.845 25.655)"/><g transform="translate(0 12.828)"><line class="c" x2="41.69" transform="translate(41.69)"/><line class="c" x2="41.69" transform="translate(41.69 51.31)"/><line class="c" x2="83.468" transform="translate(20.801 12.828)"/><line class="c" x2="83.468" transform="translate(20.801 38.483)"/><line class="c" x2="125.069" transform="translate(0 25.655)"/></g></g></g><g transform="translate(451.173 1543.476)"><g transform="translate(0 0)"><path class="d" d="M-18179.5,20751.369v-91.908" transform="translate(18431.943 -20443.775)"/><path class="d" d="M-18179.5,20789.676v-130.215" transform="translate(18431.943 -20659.461)"/><path class="d" d="M-18219.209,20613.473h-149.449" transform="translate(18368.658 -20459.162)"/><path class="d" d="M-18284.371,20613.473h-144.8" transform="translate(18787.047 -20459.162)"/><g transform="translate(127.539 77.097)"><path class="e" d="M302.57,1947.615l-83.736,51.5" transform="translate(-52.113 -1947.615)"/><path class="e" d="M308.9,1947.615,199.91,2015.271" transform="translate(-199.908 -1862.204)"/><path class="e" d="M93.908,1948.443l83.611,50.883" transform="translate(-93.908 -1947.338)"/><path class="e" d="M119.02,1962.717l83.736,53.45" transform="translate(47.701 -1861.155)"/></g></g><g transform="translate(148.703 90.137)"><path class="d" d="M-18320.268,20590.3l103.713-63.758,105.359,63.758" transform="translate(18320.566 -20526.547)"/><path class="d" d="M-18112.844,20612.984l-103.34,64.4-104.488-64.4" transform="translate(18320.672 -20549.209)"/></g><g transform="translate(127.312 78.082)"><path class="f" d="M-18174.34,20516.943l-21.131,12.8,21.131,12.846,20.939-12.846Z" transform="translate(18299.566 -20390.127)"/><path class="g" d="M-18174.34,20516.943l-21.131,12.8,21.131,12.846,20.939-12.846Z" transform="translate(18403.662 -20454.219)"/><path class="h" d="M-18174.34,20516.943l-21.131,12.8,21.131,12.846,20.939-12.846Z" transform="translate(18299.566 -20516.943)"/><path class="g" d="M-18174.34,20516.943l-21.131,12.8,21.131,12.846,20.939-12.846Z" transform="translate(18195.471 -20454.186)"/></g><g transform="translate(62.99 37.665)"><path class="d" d="M-18320.268,20642.508l188.621-115.959,191.633,115.959" transform="translate(18320.813 -20526.549)"/><path class="d" d="M-17942.682,20612.986l-187.949,117.127-190.041-117.127" transform="translate(18320.672 -20496.992)"/></g><g transform="translate(43.545 25.484)"><path class="f" d="M-18174.34,20516.943l-21.131,12.8,21.131,12.846,20.939-12.846Z" transform="translate(18383.055 -20516.943)"/><path class="g" d="M-18174.34,20516.943l-21.131,12.8,21.131,12.846,20.939-12.846Z" transform="translate(18570.84 -20401.588)"/><path class="f" d="M-18174.34,20516.943l-21.131,12.8,21.131,12.846,20.939-12.846Z" transform="translate(18383.334 -20286.816)"/><path class="f" d="M-18174.34,20516.943l-21.131,12.8,21.131,12.846,20.939-12.846Z" transform="translate(18478.088 -20342.867)"/><path class="f" d="M-18174.34,20516.943l-21.131,12.8,21.131,12.846,20.939-12.846Z" transform="translate(18291.248 -20458.973)"/><path class="f" d="M-18174.34,20516.943l-21.131,12.8,21.131,12.846,20.939-12.846Z" transform="translate(18478.088 -20458.973)"/><path class="f" d="M-18174.34,20516.943l-21.131,12.8,21.131,12.846,20.939-12.846Z" transform="translate(18287.246 -20344.201)"/><path class="g" d="M-18174.34,20516.943l-21.131,12.8,21.131,12.846,20.939-12.846Z" transform="translate(18195.471 -20401.621)"/></g></g><g transform="translate(663.905 1598.475)"><g transform="translate(0)"><path class="i" d="M-560.949-1248.226v35.346l-32.3-16.4Z" transform="translate(654.891 1265.696)"/><path class="j" d="M-646.365-1227.313l61.589-35.966,32.4,17.486-62.788,36.7Z" transform="translate(646.365 1263.279)"/><path class="j" d="M-646.365-1159.573V-1232.4l31.29,18.378v72.524Z" transform="translate(646.365 1268.236)"/><path class="k" d="M-588.086-1200.609l-31.234,17.518v36.7l62.716-36.316Z" transform="translate(650.706 1273.339)"/></g></g></g></svg>