<svg xmlns="http://www.w3.org/2000/svg" width="48.116" height="29.892" viewBox="0 0 48.116 29.892"><defs><style>.a{opacity:0.546;}.b,.c,.d,.e{fill:none;}.b{stroke:aqua;}.b,.c{stroke-linecap:round;stroke-miterlimit:10;stroke-width:0.1px;}.c{stroke:#dedede;}.d{stroke:#ebebec;stroke-width:2px;}.e{stroke:#01dbff;}</style></defs><g transform="translate(-35.047 -1438.499)"><g class="a" transform="translate(36.229 1439.217)"><g transform="translate(0 0)"><path class="b" d="M-693.056-1729.061l-7.688-4.731,7.688-4.731,7.688,4.731Z" transform="translate(708.432 1743.255)"/><path class="b" d="M-745.056-1697.061l-7.688-4.731,7.688-4.731,7.688,4.731Z" transform="translate(752.744 1715.986)"/><path class="b" d="M-693.056-1665.062l-7.688-4.731,7.688-4.731,7.688,4.731Z" transform="translate(708.432 1688.717)"/><path class="b" d="M-588.946-1729.061l-7.688-4.731,7.688-4.731,7.688,4.731Z" transform="translate(619.714 1743.255)"/><path class="b" d="M-536.946-1697.061l-7.688-4.731,7.688-4.731,7.688,4.731Z" transform="translate(575.403 1715.986)"/><path class="b" d="M-589.056-1665.062l-7.688-4.731,7.688-4.731,7.688,4.731Z" transform="translate(619.808 1688.717)"/><path class="b" d="M-641.056-1633.061l-7.688-4.731,7.688-4.731,7.688,4.731Z" transform="translate(664.12 1661.448)"/><path class="b" d="M-641.056-1761.061l-7.688-4.731,7.688-4.731,7.688,4.731Z" transform="translate(664.12 1770.524)"/><path class="b" d="M-641.056-1697.061l-7.688-4.731,7.688-4.731,7.688,4.731Z" transform="translate(664.12 1715.986)"/></g><line class="c" y2="28.387" transform="translate(23.064 0)"/><line class="c" y2="18.925" transform="translate(30.753 4.731)"/><line class="c" y2="18.925" transform="translate(15.376 4.731)"/><line class="c" y2="9.462" transform="translate(38.441 9.462)"/><line class="c" y2="9.462" transform="translate(7.688 9.462)"/><g transform="translate(0 4.731)"><line class="c" x2="15.376" transform="translate(15.376)"/><line class="c" x2="15.376" transform="translate(15.376 18.925)"/><line class="c" x2="30.785" transform="translate(7.672 4.731)"/><line class="c" x2="30.785" transform="translate(7.672 14.193)"/><line class="c" x2="46.129" transform="translate(0 9.462)"/></g></g><path class="d" d="M59.4,1448.611v9.457l15.307-9.457"/><path class="e" d="M59.3,1439.088,36,1453.43,59.3,1467.8l22.92-14.373Z"/></g></svg>