<svg xmlns="http://www.w3.org/2000/svg" width="46.336" height="28.505" viewBox="0 0 46.336 28.505"><defs><style>.a{opacity:0.498;}.b,.c{fill:none;stroke-linecap:round;stroke-miterlimit:10;stroke-width:0.1px;}.b{stroke:aqua;}.c{stroke:#dedede;}</style></defs><g class="a" transform="translate(0.095 0.059)"><g transform="translate(0 0)"><path class="b" d="M-693.056-1729.061l-7.688-4.731,7.688-4.731,7.688,4.731Z" transform="translate(708.432 1743.255)"/><path class="b" d="M-745.056-1697.061l-7.688-4.731,7.688-4.731,7.688,4.731Z" transform="translate(752.744 1715.986)"/><path class="b" d="M-693.056-1665.062l-7.688-4.731,7.688-4.731,7.688,4.731Z" transform="translate(708.432 1688.717)"/><path class="b" d="M-588.946-1729.061l-7.688-4.731,7.688-4.731,7.688,4.731Z" transform="translate(619.714 1743.255)"/><path class="b" d="M-536.946-1697.061l-7.688-4.731,7.688-4.731,7.688,4.731Z" transform="translate(575.403 1715.986)"/><path class="b" d="M-589.056-1665.062l-7.688-4.731,7.688-4.731,7.688,4.731Z" transform="translate(619.808 1688.717)"/><path class="b" d="M-641.056-1633.061l-7.688-4.731,7.688-4.731,7.688,4.731Z" transform="translate(664.12 1661.448)"/><path class="b" d="M-641.056-1761.061l-7.688-4.731,7.688-4.731,7.688,4.731Z" transform="translate(664.12 1770.524)"/><path class="b" d="M-641.056-1697.061l-7.688-4.731,7.688-4.731,7.688,4.731Z" transform="translate(664.12 1715.986)"/></g><line class="c" y2="28.387" transform="translate(23.064 0)"/><line class="c" y2="18.925" transform="translate(30.753 4.731)"/><line class="c" y2="18.925" transform="translate(15.376 4.731)"/><line class="c" y2="9.462" transform="translate(38.441 9.462)"/><line class="c" y2="9.462" transform="translate(7.688 9.462)"/><g transform="translate(0 4.731)"><line class="c" x2="15.376" transform="translate(15.376)"/><line class="c" x2="15.376" transform="translate(15.376 18.925)"/><line class="c" x2="30.785" transform="translate(7.672 4.731)"/><line class="c" x2="30.785" transform="translate(7.672 14.193)"/><line class="c" x2="46.129" transform="translate(0 9.462)"/></g></g></svg>