<svg xmlns="http://www.w3.org/2000/svg" width="14.11" height="21.389" viewBox="0 0 14.11 21.389"><defs><style>.a{fill:#01dbff;}.b{fill:#282f3a;}</style></defs><g transform="translate(-46 -230)"><path class="a" d="M54.582,231.005l-7.876,10.426,5.4.52-1.291,8.965,8.929-11.989-5.871-.221,1.192-8.065"/><path class="b" d="M33.709,14.336l-1.5,7.92,5.447.033L30.234,33.017l1.5-8.722-5.447-.033,7.418-9.926m0-1.337h-.1a1.085,1.085,0,0,0-.569.234,1.947,1.947,0,0,0-.268.234c-.033.033-.033.067-.067.1l-7.518,9.927a1.328,1.328,0,0,0-.1,1.4,1.394,1.394,0,0,0,1.2.735l3.843.033-1.2,7.151a1.331,1.331,0,0,0,.8,1.471,1.51,1.51,0,0,0,.535.1,1.232,1.232,0,0,0,1.036-.569l7.487-10.728a1.328,1.328,0,0,0,.1-1.4,1.394,1.394,0,0,0-1.2-.735H33.845l1.2-6.283a.939.939,0,0,0,.033-.3,1.335,1.335,0,0,0-1.3-1.337A.109.109,0,0,0,33.709,13Z" transform="translate(21.066 217.001)"/></g></svg>