<svg xmlns="http://www.w3.org/2000/svg" width="459.646" height="233.822" viewBox="0 0 459.646 233.822"><defs><style>.a,.b{fill:none;stroke:#293a59;}.a,.e{stroke-dasharray:4;}.b{stroke-dasharray:6;}.c,.e{fill:#d3d7dd;}.c,.d,.e,.f,.g,.h{stroke:#282f3a;}.d,.f{fill:#01dbff;}.f,.g,.h{stroke-linecap:round;stroke-linejoin:round;stroke-width:2px;}.g{fill:#282f3a;}.h{fill:#ebebec;}</style></defs><g transform="translate(-585.078 -171.768)"><g transform="translate(538.473 149.81)"><g transform="translate(59.43 28.959)"><path class="a" d="M-18179.5,20707.477v-48.014" transform="translate(18396.697 -20492.855)"/><path class="a" d="M-18179.5,20748.3v-88.84" transform="translate(18396.697 -20659.463)"/><path class="a" d="M-18264.32,20613.473h-104.338" transform="translate(18368.658 -20502.709)"/><path class="a" d="M-18323.3,20613.473h-105.873" transform="translate(18761.902 -20502.709)"/><g transform="translate(111.561 56.924)"><path class="b" d="M355.74,1963.55,218.834,2031.2" transform="translate(-145.501 -1963.55)"/><path class="b" d="M319.343,1947.615l-88.2,43.952" transform="translate(-231.141 -1886.314)"/><path class="b" d="M127.217,1963.546l63.855,34.962" transform="translate(-125.142 -1963.397)"/><path class="b" d="M34.955,1916.2l151.133,77.281" transform="translate(32.44 -1881.925)"/></g></g><g transform="translate(162.949 81.34)"><path class="a" d="M-18320.266,20584.553l113.648-58.01,115.453,58.01" transform="translate(18320.592 -20526.543)"/><path class="a" d="M-18092.932,20612.986l-113.24,58.592-114.5-58.592" transform="translate(18320.672 -20554.963)"/></g><g transform="translate(69.025 33.6)"><path class="a" d="M-18320.266,20632.045l206.691-105.5,209.992,105.5" transform="translate(18320.863 -20526.547)"/><path class="a" d="M-17906.467,20612.986l-205.957,106.563-208.248-106.562" transform="translate(18320.672 -20507.455)"/></g><g transform="translate(139.509 70.372)"><path class="c" d="M-18172.314,20516.939l-23.154,11.645,23.154,11.688,22.947-11.687Z" transform="translate(18309.537 -20401.561)"/><path class="d" d="M-18172.314,20516.939l-23.154,11.645,23.154,11.688,22.947-11.687Z" transform="translate(18423.605 -20459.873)"/><path class="e" d="M-18172.314,20516.939l-23.154,11.645,23.154,11.688,22.947-11.687Z" transform="translate(18309.537 -20516.939)"/><path class="d" d="M-18172.314,20516.939l-23.154,11.645,23.154,11.688,22.947-11.687Z" transform="translate(18195.469 -20459.84)"/></g><g transform="translate(47.717 22.518)"><path class="c" d="M-18172.314,20516.939l-23.154,11.645,23.154,11.688,22.947-11.687Z" transform="translate(18401.023 -20516.939)"/><path class="d" d="M-18172.314,20516.939l-23.154,11.645,23.154,11.688,22.947-11.687Z" transform="translate(18606.799 -20411.99)"/><path class="c" d="M-18172.314,20516.939l-23.154,11.645,23.154,11.688,22.947-11.687Z" transform="translate(18401.33 -20307.57)"/><path class="c" d="M-18172.314,20516.939l-23.154,11.645,23.154,11.688,22.947-11.687Z" transform="translate(18505.16 -20358.564)"/><path class="c" d="M-18172.314,20516.939l-23.154,11.645,23.154,11.688,22.947-11.687Z" transform="translate(18300.422 -20464.195)"/><path class="c" d="M-18172.314,20516.939l-23.154,11.645,23.154,11.688,22.947-11.687Z" transform="translate(18505.16 -20464.195)"/><path class="c" d="M-18172.314,20516.939l-23.154,11.645,23.154,11.688,22.947-11.687Z" transform="translate(18296.037 -20359.777)"/><path class="d" d="M-18172.314,20516.939l-23.154,11.645,23.154,11.688,22.947-11.687Z" transform="translate(18195.469 -20412.018)"/></g></g><g transform="translate(759.801 185.975)"><g transform="translate(13 24)"><path class="f" d="M-567.173-1248.226v28.536l-26.08-13.238Z" transform="translate(643.015 1262.33)"/><path class="g" d="M-646.365-1234.243l49.723-29.036,26.157,14.117-50.691,29.632Z" transform="translate(646.365 1263.279)"/><path class="g" d="M-646.365-1173.6v-58.8l25.261,14.837v58.551Z" transform="translate(646.365 1261.332)"/><path class="h" d="M-594.1-1200.609l-25.216,14.143v29.629l50.633-29.319Z" transform="translate(644.659 1259.326)"/></g></g></g></svg>