<svg xmlns="http://www.w3.org/2000/svg" xmlns:xlink="http://www.w3.org/1999/xlink" width="500.084" height="404.266" viewBox="0 0 500.084 404.266"><defs><style>.a{fill:url(#a);}.b,.d,.g,.j,.m,.p,.q{fill:none;}.b{stroke:#41516c;}.b,.g,.j,.q{stroke-linecap:round;}.b,.j{stroke-linejoin:round;}.c,.n{mix-blend-mode:overlay;}.c,.f,.n{isolation:isolate;}.d,.j,.o,.p,.q{stroke:#fff;}.d,.g,.o,.p,.q{stroke-miterlimit:10;}.e,.n,.o{fill:#fff;}.g{stroke:#4b5a74;}.g,.j{stroke-width:2px;}.h{fill:url(#l);}.i{fill:#677489;}.k{fill:url(#m);}.l{fill:#01a68a;}.p,.q{stroke-linejoin:bevel;stroke-width:3px;}</style><linearGradient id="a" x1="1" y1="0.762" x2="-0.367" y2="0.156" gradientUnits="objectBoundingBox"><stop offset="0" stop-color="#fff"/><stop offset="1" stop-color="#243655"/></linearGradient><linearGradient id="l" x1="0.5" y1="0.771" x2="0.5" y2="-0.375" xlink:href="#a"/><linearGradient id="m" x1="0.5" y1="0" x2="0.5" y2="1" xlink:href="#a"/></defs><g transform="translate(0.45 1)"><g transform="translate(0 191.302)"><g transform="translate(0 22.108)"><path class="a" d="M-2898.05,5514.147l-40.987,20.679,40.987,20.269,40.471-20.269Z" transform="translate(2979.766 -5514.147)"/><g transform="translate(0 20.474)"><path class="a" d="M-2898.05,5514.147l-40.987,20.679,40.987,20.269,40.471-20.269Z" transform="translate(2939.036 -5514.147)"/><path class="a" d="M-2898.05,5514.147l-40.987,20.679,40.987,20.269,40.471-20.269Z" transform="translate(2979.766 -5493.673)"/><path class="a" d="M-2898.05,5514.147l-40.987,20.679,40.987,20.269,40.471-20.269Z" transform="translate(3020.495 -5514.147)"/></g></g><g transform="translate(0.05 0)"><line class="b" y2="22.364" transform="translate(0 40.799)"/><g transform="translate(0.03)"><path class="b" d="M1959.226-1264.8l-81.56-40.78,81.56-40.78,81.663,40.78Z" transform="translate(-1877.666 1368.798)"/><path class="b" d="M1959.226-1326.8l-81.56-40.78,81.56-40.78,81.663,40.78Z" transform="translate(-1877.666 1408.355)"/><line class="b" y2="22.364" transform="translate(163.133 40.799)"/><line class="b" y2="21.92" transform="translate(81.284 0.943)"/><line class="b" y2="22.205" transform="translate(81.462 81.794)"/></g></g></g><g transform="translate(-653.436 -122.763)"><g transform="translate(1004.546 324.795)"><g transform="translate(0 20.04)"><path class="a" d="M-2901.884,5514.147l-37.152,18.744,37.152,18.372,36.685-18.372Z" transform="translate(2975.955 -5514.147)"/><g transform="translate(0 18.558)"><path class="a" d="M-2901.884,5514.147l-37.152,18.744,37.152,18.372,36.685-18.372Z" transform="translate(2939.036 -5514.147)"/><path class="a" d="M-2901.884,5514.147l-37.152,18.744,37.152,18.372,36.685-18.372Z" transform="translate(2975.955 -5495.589)"/><path class="a" d="M-2901.884,5514.147l-37.152,18.744,37.152,18.372,36.685-18.372Z" transform="translate(3012.874 -5514.147)"/></g></g><g transform="translate(0.046)"><g transform="translate(0 0)"><line class="b" y2="20.272" transform="translate(0 36.982)"/><g transform="translate(0.027)"><path class="b" d="M1951.6-1272.426l-73.929-36.964,73.929-36.964,74.022,36.964Z" transform="translate(-1877.667 1366.698)"/><path class="b" d="M1951.6-1334.426l-73.929-36.964,73.929-36.964,74.022,36.964Z" transform="translate(-1877.667 1408.355)"/><line class="b" y2="20.272" transform="translate(147.871 36.982)"/><line class="b" y2="19.869" transform="translate(73.679 0.855)"/><line class="b" y2="20.128" transform="translate(73.841 74.141)"/></g></g></g></g></g><g transform="translate(-512.865 -151.51)"><g transform="translate(594.637 179.186)"><path class="a" d="M-2725.278,5581v220.839l-94.928,47.971V5628.546" transform="translate(2914.806 -5533.352)"/><path class="a" d="M-2939.036,5582.154V5802.19l94.6,47.62V5627.173L-2939.008,5581" transform="translate(2939.036 -5533.352)"/><path class="a" d="M-2843.716,5514.148l-95.32,48.09,95.32,47.139,94.12-47.139Z" transform="translate(2938.916 -5514.115)"/><g class="c" transform="translate(15.262 201.925)"><path class="d" d="M-2919.864,5849.727v-74.934l54.6,27.731v74.139" transform="translate(2919.864 -5774.793)"/><path class="e" d="M-2911.91,5791.091V5855.7l10.488,5.326-2.338-1.211v-30.589l.536.008c-1.792-2.366-4.155-7.1-4.155-10.542,0-14.6,16.614-12.706,16.614-12.706s16.613,16.241,16.613,29.582c0,4.586-2.264,5.892-5.271,5.673l-.357.338v30.439l9.781,4.968v-64.606Z" transform="translate(2918.242 -5778.116)"/></g><g class="c" transform="translate(3 -25)"><g transform="translate(15.587 156.802)"><path class="e" d="M-2919.457,5718.112l12.331,6.338V5752.5l-12.331-6.336Z" transform="translate(2919.457 -5718.112)"/><path class="e" d="M-2893.985,5730.956l12.332,6.339v28.048l-12.332-6.336Z" transform="translate(2914.263 -5720.73)"/><path class="e" d="M-2866.49,5744.586l12.331,6.338v28.049l-12.331-6.338Z" transform="translate(2908.657 -5723.51)"/></g><g transform="translate(15.587 115.405)"><path class="e" d="M-2919.457,5666.112l12.331,6.337V5700.5l-12.331-6.336Z" transform="translate(2919.457 -5666.112)"/><path class="e" d="M-2893.985,5678.957l12.332,6.337v28.049l-12.332-6.336Z" transform="translate(2914.263 -5668.731)"/><path class="e" d="M-2866.49,5692.586l12.331,6.338v28.048l-12.331-6.337Z" transform="translate(2908.657 -5671.51)"/></g></g><g class="f" transform="translate(47.3 -27.675)"><path class="g" d="M869,3105.282V3075" transform="translate(-821.929 -3075)"/><path class="h" d="M13796.064,2704.591c0-44.062,46.03-47.1,46.03-47.1s45.452,5.89,45.452,47.1c-37.053-8.26-45.452,22.926-45.452,22.926S13830.077,2694.18,13796.064,2704.591Z" transform="translate(-13795.063 -2633.226)"/><path class="i" d="M882.629,3088.2V3075l-42.017,10.68Z" transform="translate(-835.123 -3075)"/></g></g><g transform="translate(758.681 191.186)"><line class="j" x2="88.748" y2="44.579" transform="translate(0.626 259.65)"/><path class="k" d="M-843.985,4887.449v176.879l-89.221,44.757V4931.257" transform="translate(1023.589 -4806.878)"/><path class="k" d="M-1052.036,4887.084v176.879l88.913,44.757V4930.9L-1052.009,4886" transform="translate(1053.506 -4806.514)"/><path class="l" d="M-963.447,4829.149l-89.589,45.2,89.589,44.3,88.462-44.3Z" transform="translate(1053.758 -4792.201)"/><path class="k" d="M-962.446,4826.148l-89.59,45.2,89.59,44.3,88.462-44.3Z" transform="translate(1053.506 -4791.444)"/><path class="j" d="M-963.667,4829l-89.5,45.48,89.5,44.58,88.37-44.58Z" transform="translate(1053.79 -4792.163)"/><g transform="translate(0 0)"><g transform="translate(54.198)"><path class="m" d="M-943.47,4809.6l-30.02,14.881v-29.832l30.02-14.881Z" transform="translate(979.533 -4779.768)"/><ellipse class="m" cx="19.139" cy="11.698" rx="19.139" ry="11.698" transform="translate(0 30.098) rotate(-51.62)"/></g><path class="e" d="M-949.51,4812.59v-5.98l-6.017,2.984v-5.98l-6.018,2.984v5.978l-6.017,2.984v5.979l-6.017,2.984v5.979l18.052-8.948.843-.418,5.175-2.564,6.017-2.983v-5.979Z" transform="translate(1033.753 -4785.771)"/><path class="e" d="M-989.72,4832.523v-5.98l-6.017,2.984v-5.979l-6.017,2.983v5.98l-6.017,2.982v5.979l-6.017,2.984v5.98l18.052-8.949.843-.417,5.174-2.565,6.017-2.983v-5.979Z" transform="translate(1043.877 -4790.79)"/><path class="e" d="M-1029.931,4852.458v-5.98l-6.017,2.983v-5.979l-6.017,2.983v5.979l-6.017,2.983v5.979l-6.017,2.984v5.979l18.052-8.948.843-.417,5.174-2.566,6.017-2.982v-5.98Z" transform="translate(1054 -4795.808)"/><path class="e" d="M-963.545,4827.3v-7.752l-89.682,44.5v7.752Z" transform="translate(1053.805 -4789.782)"/><g transform="translate(89.696 45.799)"><g transform="translate(53.843)"><path class="m" d="M-824.284,4870.809l-29.832,14.881v-29.832l29.832-14.882Z" transform="translate(860.137 -4840.977)"/><ellipse class="m" cx="19.093" cy="11.653" rx="19.093" ry="11.653" transform="translate(0 30.23) rotate(-52.003)"/></g><path class="e" d="M-830.287,4873.8v-5.979l-5.98,2.983v-5.98l-5.98,2.982v5.981l-5.98,2.982v5.98l-5.98,2.982v5.98l17.939-8.949.838-.418,5.142-2.565,5.98-2.983v-5.979Z" transform="translate(914.003 -4846.979)"/><path class="e" d="M-870.246,4893.732v-5.979l-5.98,2.983v-5.98l-5.98,2.982v5.98l-5.98,2.982v5.981l-5.98,2.982v5.98l17.939-8.95.838-.417,5.142-2.566,5.98-2.982v-5.98Z" transform="translate(924.063 -4851.998)"/><path class="e" d="M-910.2,4913.667v-5.98l-5.98,2.982v-5.979l-5.98,2.983v5.979l-5.98,2.983v5.98l-5.98,2.983v5.979l17.939-8.949.838-.418,5.142-2.565,5.98-2.983v-5.98Z" transform="translate(934.123 -4857.018)"/><path class="e" d="M-844.422,4888.5v-7.751l-89.682,44.5V4933Z" transform="translate(934.119 -4850.991)"/></g><g transform="translate(0 63.861)"><g transform="translate(53.843 11.967)"><path class="m" d="M-944.161,4925.791l-29.832-14.848v-29.832l29.832,14.848Z" transform="translate(980.014 -4881.111)"/><ellipse class="m" cx="11.659" cy="19.083" rx="11.659" ry="19.083" transform="matrix(0.788, -0.616, 0.616, 0.788, 0, 14.485)"/></g><path class="e" d="M-950.164,4922.806v-5.979l-5.979-2.977v-5.98l-5.98-2.976v5.979l-5.98-2.976v5.98l-5.98-2.977v5.98l17.939,8.929.838.417,5.142,2.559,5.98,2.977v-5.979Z" transform="translate(1033.88 -4875.131)"/><path class="e" d="M-990.122,4902.918v-5.98l-5.98-2.977v-5.979l-5.98-2.977v5.98l-5.98-2.977v5.98l-5.98-2.977v5.98l17.939,8.928.838.417,5.142,2.559,5.98,2.978v-5.98Z" transform="translate(1043.94 -4870.124)"/><path class="e" d="M-1030.081,4883.028v-5.979l-5.98-2.977v-5.979l-5.98-2.977v5.979l-5.979-2.976v5.979l-5.98-2.976v5.979l17.939,8.929.838.417,5.142,2.56,5.98,2.976V4886Z" transform="translate(1054 -4865.117)"/><path class="e" d="M-964.3,4933.383v-7.751l-89.682-44.878v7.751Z" transform="translate(1053.995 -4869.054)"/></g><g transform="translate(89.696 17.983)"><g transform="translate(53.843 11.967)"><path class="m" d="M-824.284,4864.476l-29.832-14.848V4819.8l29.832,14.848Z" transform="translate(860.138 -4819.795)"/><ellipse class="m" cx="11.659" cy="19.083" rx="11.659" ry="19.083" transform="matrix(0.788, -0.616, 0.616, 0.788, 0, 14.485)"/></g><path class="e" d="M-830.287,4861.49v-5.979l-5.98-2.977v-5.979l-5.98-2.977v5.98l-5.98-2.977v5.98l-5.98-2.977v5.979l17.939,8.929.838.417,5.142,2.559,5.98,2.977v-5.979Z" transform="translate(914.003 -4813.815)"/><path class="e" d="M-870.246,4841.6v-5.98l-5.98-2.977v-5.98l-5.98-2.976v5.979l-5.98-2.976v5.979l-5.98-2.976v5.98l17.939,8.929.838.416,5.142,2.56,5.98,2.976v-5.98Z" transform="translate(924.063 -4808.809)"/><path class="e" d="M-910.2,4821.714v-5.98l-5.98-2.976v-5.98l-5.98-2.976v5.979l-5.98-2.975v5.979l-5.98-2.977v5.979l17.939,8.93.838.417,5.142,2.56,5.98,2.976v-5.979Z" transform="translate(934.123 -4803.802)"/><path class="e" d="M-844.422,4872.068v-7.752l-89.682-44.878v7.752Z" transform="translate(934.119 -4807.738)"/></g></g><g class="c"><g transform="translate(111.063 126.296)"><path class="e" d="M-832.318,4923.112l-18.452,9.483v41.971l18.452-9.483Z" transform="translate(881.114 -4923.112)"/><path class="e" d="M-867.274,4939.367l-18.452,9.483v41.971l18.452-9.483Z" transform="translate(885.727 -4925.256)"/></g><g transform="translate(111.063 188.769)"><path class="e" d="M-832.318,4923.112l-18.452,9.483v41.971l18.452-9.483Z" transform="translate(881.114 -4923.112)"/><path class="e" d="M-867.274,4939.367l-18.452,9.483v41.971l18.452-9.483Z" transform="translate(885.727 -4925.256)"/></g></g></g><g transform="translate(-12.802 11)"><g transform="translate(702.143 336.511)"><path class="a" d="M-2739.042,5581v80.639l-81.165,41.015v-81.146" transform="translate(2901.09 -5514.484)"/><path class="a" d="M-2939.036,5581.987v78.947l80.884,40.716v-81.17l-80.86-39.479" transform="translate(2939.036 -5514.484)"/><path class="a" d="M-2857.537,5514.148l-81.5,41.118,81.5,40.3,80.474-40.3Z" transform="translate(2939.036 -5488.372)"/><g transform="translate(13.327 159.843)"><path class="e" d="M-2919.457,5718.112l10.543,5.418v23.982l-10.543-5.418Z" transform="translate(2919.457 -5718.112)"/><path class="e" d="M-2893.985,5730.956l10.544,5.419v23.982l-10.544-5.418Z" transform="translate(2911.323 -5722.213)"/><path class="e" d="M-2866.49,5744.586l10.543,5.419v23.983l-10.543-5.419Z" transform="translate(2902.543 -5726.566)"/></g><g class="c" transform="translate(17.144 103.131)"><path class="e" d="M-2919.457,5666.112l10.543,5.418v23.982l-10.543-5.417Z" transform="translate(2919.457 -5666.112)"/><path class="e" d="M-2893.985,5678.957l10.544,5.418v23.982l-10.544-5.417Z" transform="translate(2911.323 -5670.214)"/><path class="e" d="M-2866.49,5692.586l10.543,5.419v23.981l-10.543-5.419Z" transform="translate(2902.543 -5674.566)"/></g><path class="n" d="M468.812,3276.177v-31.292a12.431,12.431,0,0,1,12.4-12.385h0c6.823,0,12.406,4.685,12.406,11.5v23.437" transform="translate(-357.153 -3115.333)"/></g><g transform="translate(691.857 353.819)"><g transform="translate(61.304 23.872)"><path class="o" d="M253.819,4988.609l-31.2,15.856,31.2,15.542,30.808-15.542Z" transform="translate(-222.618 -4988.609)"/><path class="p" d="M288.5,5038.724v13.789l30.985-15.777V5023" transform="translate(-258.032 -5007.095)"/><path class="q" d="M253.7,5052.4l-30.735-15.368-.349-13.629,31.2,15.135Z" transform="translate(-222.618 -5007.313)"/></g></g></g></g></g></svg>