<svg xmlns="http://www.w3.org/2000/svg" width="26.741" height="30.795" viewBox="0 0 26.741 30.795"><defs><style>.a{fill:#916df6;stroke:#fff;stroke-width:0.4px;}</style></defs><path class="a" d="M24.17,5a3.394,3.394,0,0,0-3.377,3.377v6.11L11.57,18.945a1.016,1.016,0,0,0-.57.919v4.052a1.014,1.014,0,0,0,1.277.971l8.854-2.364v6.332l-2.353,2.058a1.014,1.014,0,0,0-.348.77v2.7a1.013,1.013,0,0,0,1.287.971l4.454-1.277,4.454,1.277a1.013,1.013,0,0,0,1.287-.971v-2.7a1.014,1.014,0,0,0-.348-.77L27.21,28.855V22.524l8.854,2.364a1.014,1.014,0,0,0,1.277-.971V19.864a1.013,1.013,0,0,0-.57-.918l-9.223-4.454V8.382a3.394,3.394,0,0,0-3.377-3.377Zm0,2.026a1.357,1.357,0,0,1,1.351,1.351v6.754a1.014,1.014,0,0,0,.57.908L35.314,20.5v2.1L26.46,20.233a1.012,1.012,0,0,0-1.277.981v8.1a1.012,1.012,0,0,0,.348.76l2.353,2.058v.9l-3.44-.981a1,1,0,0,0-.549,0l-3.44.981v-.9l2.353-2.058a1.012,1.012,0,0,0,.348-.76v-8.1a1.012,1.012,0,0,0-1.277-.981L13.026,22.6V20.5l9.223-4.454a1.015,1.015,0,0,0,.57-.908V8.382A1.357,1.357,0,0,1,24.17,7.031Z" transform="translate(-10.8 -4.804)"/></svg>