<svg xmlns="http://www.w3.org/2000/svg" width="16.174" height="14.273" viewBox="0 0 16.174 14.273"><defs><style>.a{fill:#282f3a;}</style></defs><g transform="translate(0)"><path class="a" d="M48.651,20.712a.423.423,0,0,0-.126-.295l-4.192-4.17a.421.421,0,0,0-.716.3v2.085a5.241,5.241,0,0,0-3.37,1.116A6.219,6.219,0,0,0,38.1,25.3l.084.485a.423.423,0,0,0,.337.337h.063a.421.421,0,0,0,.358-.211l.253-.421c1.516-2.527,3.475-2.781,4.4-2.738v2.169a.421.421,0,0,0,.717.3L48.5,21.007a.42.42,0,0,0,.147-.3Zm-4.212,3.2V22.376a.42.42,0,0,0-.358-.421,4.884,4.884,0,0,0-2.317.231,6.074,6.074,0,0,0-2.907,2.3h0A5.244,5.244,0,0,1,40.775,20.4H40.8a4.832,4.832,0,0,1,3.159-.926h.063a.421.421,0,0,0,.421-.421v-1.5l3.181,3.159Z" transform="translate(-32.477 -16.127)"/><path class="a" d="M13.287,41.271H24.239a1.684,1.684,0,0,0,1.685-1.685V38.428a.421.421,0,0,0-.842,0v1.158a.843.843,0,0,1-.842.842H13.287a.842.842,0,0,1-.842-.842v-8a.842.842,0,0,1,.842-.842h3.159a.421.421,0,1,0,0-.842H13.287A1.685,1.685,0,0,0,11.6,31.583v8a1.682,1.682,0,0,0,1.685,1.685Z" transform="translate(-11.602 -26.998)"/></g></svg>