<svg xmlns="http://www.w3.org/2000/svg" xmlns:xlink="http://www.w3.org/1999/xlink" width="385.947" height="320.801" viewBox="0 0 385.947 320.801"><defs><style>.a{fill:none;}.b{fill:#243655;}.c{fill:url(#a);}.d{fill:#00dfbf;}.e{opacity:0.998;fill:url(#b);}.f{mix-blend-mode:overlay;isolation:isolate;}.g{fill:#f5f5f5;}.h{clip-path:url(#c);}.i{fill:#fff;}.j{fill:#ececec;}.k{fill:url(#d);}.l{fill:url(#e);}.m{fill:url(#f);}.n{fill:#b7bec9;}.o{fill:#9ab0d3;}.p{fill:url(#g);}.q{fill:url(#h);}</style><linearGradient id="a" x1="1.085" y1="1.135" x2="0.195" y2="0.197" gradientUnits="objectBoundingBox"><stop offset="0" stop-color="#243655"/><stop offset="1" stop-color="#fff"/></linearGradient><linearGradient id="b" x1="1.017" x2="-1.025" y2="2.21" gradientUnits="objectBoundingBox"><stop offset="0" stop-color="#fff"/><stop offset="1" stop-color="#243655"/></linearGradient><clipPath id="c"><path class="a" d="M2971.492,1019.023c-1.819.889-4.748,2.331-6.659,3.064-11.712,4.479-27.446,4.879-38.445.979a32.857,32.857,0,0,1-6.522-3.245c-7.662-5.342-6.859-12.9,2.031-18.563,1.686-1.069,4.643-2.485,6.448-3.373L3119.993,904c1.594-.786,1.85-1.957.729-2.794a5.83,5.83,0,0,1,2.548,4.4l39.861,19.524Z" transform="translate(-2914.629 -901.206)"/></clipPath><linearGradient id="d" x1="1.207" y1="-0.083" x2="-0.925" y2="1.258" gradientUnits="objectBoundingBox"><stop offset="0" stop-color="#fff"/><stop offset="1" stop-color="#62d8fb"/></linearGradient><linearGradient id="e" x1="1.207" y1="-0.083" x2="-0.925" y2="1.258" xlink:href="#b"/><linearGradient id="f" x1="1.717" y1="-0.733" x2="-0.278" y2="0.454" xlink:href="#a"/><linearGradient id="g" x1="0.338" y1="1" x2="1" y2="0" xlink:href="#a"/><linearGradient id="h" x1="0.5" y1="0" x2="0.5" y2="1" xlink:href="#a"/></defs><g transform="translate(-632.054 -123.015)"><g transform="translate(632.054 123.015)"><path class="b" d="M3088.192,954.821l11.363,6.031v18.115l-11.363-6.038Z" transform="translate(-2822.343 -886.288)"/><path class="c" d="M3164.777,925.324l-39.635,19.525V905.8a5.833,5.833,0,0,0-3.064-4.728,8.085,8.085,0,0,0-6.332.1l-196.059,96.579c-7.576,3.731-11.365,8.624-11.365,13.516V1174.3c0,4.892,3.79,9.784,11.365,13.516l.281.139c15.154,7.465,39.724,7.465,54.879,0l196.057-96.579a6.075,6.075,0,0,0,3.268-4.829V926.734l-3.065-1.51A8.092,8.092,0,0,0,3164.777,925.324Z" transform="translate(-2908.321 -900.475)"/><g transform="translate(0.043)"><path class="d" d="M2919.677,1024.785c-15.1-7.434-15.1-19.6,0-27.033l196.162-96.579a8.093,8.093,0,0,1,6.335-.1c1.693.833,1.6,2.229-.2,3.119l-190.685,93.882c-1.806.888-4.753,2.308-6.42,3.375-8.849,5.667-9.652,13.226-2.026,18.568a32.874,32.874,0,0,0,6.491,3.241c10.938,3.9,26.606,3.5,38.251-.976,1.9-.731,4.823-2.184,6.627-3.073L3164.9,925.324a8.1,8.1,0,0,1,6.334-.1c1.693.833,1.6,2.231-.2,3.119l-196.162,96.58c-15.1,7.434-39.809,7.434-54.909,0Z" transform="translate(-2908.353 -900.475)"/><path class="e" d="M2919.677,1024.785c-15.1-7.434-15.1-19.6,0-27.033l196.162-96.579a8.093,8.093,0,0,1,6.335-.1c1.693.833,1.6,2.229-.2,3.119l-190.685,93.882c-1.806.888-4.753,2.308-6.42,3.375-8.849,5.667-9.652,13.226-2.026,18.568a32.874,32.874,0,0,0,6.491,3.241c10.938,3.9,26.606,3.5,38.251-.976,1.9-.731,4.823-2.184,6.627-3.073L3164.9,925.324a8.1,8.1,0,0,1,6.334-.1c1.693.833,1.6,2.231-.2,3.119l-196.162,96.58c-15.1,7.434-39.809,7.434-54.909,0Z" transform="translate(-2908.353 -900.475)"/></g><g class="f" transform="translate(2.892 43.72)"><g transform="translate(0 86.817)"><path class="g" d="M2913.521,1007.492a.726.726,0,0,1-.45-.155,21.547,21.547,0,0,1-2.48-2.312.6.6,0,0,1,.086-.888.723.723,0,0,1,.965.08,20.186,20.186,0,0,0,2.328,2.168.6.6,0,0,1,.067.89A.706.706,0,0,1,2913.521,1007.492Z" transform="translate(-2910.433 -1003.99)"/></g><g transform="translate(8.11 4.762)"><path class="g" d="M2946.259,1033.133a.7.7,0,0,1-.746-.608.687.687,0,0,1,.721-.652c2.5-.074,5-.269,7.408-.575a.742.742,0,0,1,.849.53.655.655,0,0,1-.628.718c-2.468.314-5.018.512-7.577.588Zm-7.523-.127h-.058c-2.561-.164-5.1-.45-7.541-.853a.645.645,0,0,1-.591-.74.752.752,0,0,1,.877-.5c2.386.392,4.865.673,7.371.834a.674.674,0,0,1,.687.676A.708.708,0,0,1,2938.736,1033.006Zm22.377-1.783a.742.742,0,0,1-.72-.458.624.624,0,0,1,.517-.778,54.685,54.685,0,0,0,6.957-2.144.808.808,0,0,1,.989.312.594.594,0,0,1-.367.836,56.18,56.18,0,0,1-7.173,2.208A.8.8,0,0,1,2961.112,1031.223Zm-37.107-.678a.868.868,0,0,1-.239-.033,50.244,50.244,0,0,1-7.021-2.557.585.585,0,0,1-.3-.855.82.82,0,0,1,1.011-.255,48.8,48.8,0,0,0,6.79,2.473.613.613,0,0,1,.469.8A.751.751,0,0,1,2924.005,1030.544Zm50.779-4.539a.782.782,0,0,1-.646-.315.581.581,0,0,1,.273-.861l6.52-3.179a.825.825,0,0,1,1.02.231.579.579,0,0,1-.274.861l-6.52,3.179A.864.864,0,0,1,2974.784,1026.006Zm13.04-6.357a.78.78,0,0,1-.645-.315.579.579,0,0,1,.271-.861l6.52-3.179a.823.823,0,0,1,1.019.231.579.579,0,0,1-.272.861l-6.52,3.179A.861.861,0,0,1,2987.824,1019.649Zm13.04-6.358a.778.778,0,0,1-.647-.315.581.581,0,0,1,.273-.861l6.52-3.178a.824.824,0,0,1,1.02.231.58.58,0,0,1-.273.861l-6.52,3.178A.846.846,0,0,1,3000.864,1013.291Zm13.04-6.357a.78.78,0,0,1-.645-.315.579.579,0,0,1,.272-.861l6.52-3.179a.823.823,0,0,1,1.019.231.58.58,0,0,1-.272.861l-6.52,3.179A.865.865,0,0,1,3013.9,1006.934Zm13.04-6.357a.78.78,0,0,1-.646-.315.58.58,0,0,1,.273-.861l6.52-3.179a.825.825,0,0,1,1.021.231.581.581,0,0,1-.274.861l-6.52,3.179A.864.864,0,0,1,3026.944,1000.577Zm13.039-6.358a.775.775,0,0,1-.645-.315.579.579,0,0,1,.272-.861l6.52-3.178a.825.825,0,0,1,1.021.231.579.579,0,0,1-.274.861l-6.52,3.178A.847.847,0,0,1,3039.982,994.219Zm13.042-6.357a.778.778,0,0,1-.647-.315.579.579,0,0,1,.273-.861l6.519-3.179a.826.826,0,0,1,1.019.231.58.58,0,0,1-.272.861l-6.519,3.179A.843.843,0,0,1,3053.024,987.861Zm13.038-6.357a.776.776,0,0,1-.645-.315.579.579,0,0,1,.272-.861l6.52-3.179a.825.825,0,0,1,1.02.231.579.579,0,0,1-.273.861l-6.52,3.179A.864.864,0,0,1,3066.062,981.5Zm13.04-6.358a.778.778,0,0,1-.646-.315.579.579,0,0,1,.273-.861l6.52-3.178a.819.819,0,0,1,1.019.231.579.579,0,0,1-.272.861l-6.52,3.178A.851.851,0,0,1,3079.1,975.146Zm13.04-6.357a.779.779,0,0,1-.647-.315.58.58,0,0,1,.273-.861l6.519-3.178a.822.822,0,0,1,1.02.231.58.58,0,0,1-.273.861l-6.519,3.178A.845.845,0,0,1,3092.143,968.789Zm13.038-6.357a.781.781,0,0,1-.645-.315.579.579,0,0,1,.272-.861l6.521-3.179a.821.821,0,0,1,1.019.231.579.579,0,0,1-.272.861l-6.522,3.179A.862.862,0,0,1,3105.181,962.432Zm13.04-6.357a.781.781,0,0,1-.647-.315.581.581,0,0,1,.273-.861l6.521-3.179a.823.823,0,0,1,1.02.231.581.581,0,0,1-.273.861l-6.521,3.179A.859.859,0,0,1,3118.221,956.075Zm13.039-6.358a.774.774,0,0,1-.645-.315.579.579,0,0,1,.272-.861l6.52-3.178a.821.821,0,0,1,1.019.231.579.579,0,0,1-.273.861l-6.52,3.178A.846.846,0,0,1,3131.26,949.717Zm13.04-6.357a.782.782,0,0,1-.646-.315.579.579,0,0,1,.273-.861l6.52-3.179a.827.827,0,0,1,1.02.231.581.581,0,0,1-.273.861l-6.521,3.179A.86.86,0,0,1,3144.3,943.36Z" transform="translate(-2916.353 -938.92)"/></g><g transform="translate(247.948)"><path class="g" d="M3080.886,939.558a.659.659,0,0,1-.685-.63v-2.059l-1.938,1.029a.717.717,0,0,1-.936-.231.6.6,0,0,1,.251-.861l2.965-1.576a.739.739,0,0,1,.685,0,.626.626,0,0,1,.342.546v3.153A.658.658,0,0,1,3080.886,939.558Z" transform="translate(-3077.235 -935.144)"/></g><g transform="translate(250.914 9.466)"><path class="g" d="M3080.085,1063.88a.66.66,0,0,1-.685-.63v-6.314a.687.687,0,0,1,1.37,0v6.314A.659.659,0,0,1,3080.085,1063.88Zm0-12.628a.66.66,0,0,1-.685-.63v-6.314a.687.687,0,0,1,1.37,0v6.314A.659.659,0,0,1,3080.085,1051.252Zm0-12.628a.66.66,0,0,1-.685-.63v-6.314a.687.687,0,0,1,1.37,0v6.314A.659.659,0,0,1,3080.085,1038.624Zm0-12.628a.66.66,0,0,1-.685-.63v-6.314a.687.687,0,0,1,1.37,0v6.314A.659.659,0,0,1,3080.085,1026Zm0-12.628a.66.66,0,0,1-.685-.631v-6.314a.687.687,0,0,1,1.37,0v6.314A.659.659,0,0,1,3080.085,1013.367Zm0-12.628a.66.66,0,0,1-.685-.631v-6.314a.687.687,0,0,1,1.37,0v6.314A.659.659,0,0,1,3080.085,1000.739Zm0-12.628a.66.66,0,0,1-.685-.63v-6.314a.687.687,0,0,1,1.37,0v6.314A.659.659,0,0,1,3080.085,988.111Zm0-12.628a.66.66,0,0,1-.685-.631v-6.314a.687.687,0,0,1,1.37,0v6.314A.659.659,0,0,1,3080.085,975.483Zm0-12.628a.659.659,0,0,1-.685-.63V955.91a.687.687,0,0,1,1.37,0v6.314A.659.659,0,0,1,3080.085,962.854Zm0-12.628a.66.66,0,0,1-.685-.631v-6.314a.687.687,0,0,1,1.37,0V949.6A.659.659,0,0,1,3080.085,950.226Z" transform="translate(-3079.4 -942.651)"/></g><g transform="translate(247.948 135.748)"><path class="g" d="M3077.92,1048.781a.7.7,0,0,1-.594-.315.6.6,0,0,1,.251-.861l2.623-1.395v-2.788a.687.687,0,0,1,1.37,0v3.153a.623.623,0,0,1-.342.546l-2.965,1.576A.735.735,0,0,1,3077.92,1048.781Z" transform="translate(-3077.235 -1042.791)"/></g><g transform="translate(8.122 143.655)"><path class="g" d="M2946.274,1143.282a.7.7,0,0,1-.747-.608.686.686,0,0,1,.721-.653c2.494-.073,4.987-.267,7.409-.575a.74.74,0,0,1,.848.53.654.654,0,0,1-.627.716c-2.476.315-5.027.515-7.578.59Zm-7.523-.125h-.057c-2.559-.163-5.1-.45-7.546-.851a.645.645,0,0,1-.59-.74.754.754,0,0,1,.877-.5,73.883,73.883,0,0,0,7.37.831.677.677,0,0,1,.69.677A.709.709,0,0,1,2938.751,1143.157Zm22.373-1.788a.744.744,0,0,1-.719-.459.626.626,0,0,1,.515-.779,54.636,54.636,0,0,0,6.958-2.144.806.806,0,0,1,.989.31.593.593,0,0,1-.367.835,55.9,55.9,0,0,1-7.171,2.213A.869.869,0,0,1,2961.124,1141.369Zm-37.108-.672a.857.857,0,0,1-.239-.033,50.708,50.708,0,0,1-7.022-2.555.586.586,0,0,1-.3-.855.825.825,0,0,1,1.013-.256,48.967,48.967,0,0,0,6.792,2.472.614.614,0,0,1,.469.8A.75.75,0,0,1,2924.016,1140.7Zm50.778-4.55a.783.783,0,0,1-.647-.315.581.581,0,0,1,.274-.861l6.518-3.178a.824.824,0,0,1,1.021.229.581.581,0,0,1-.273.861l-6.519,3.179A.859.859,0,0,1,2974.794,1136.147Zm13.039-6.357a.776.776,0,0,1-.645-.315.579.579,0,0,1,.271-.861l6.52-3.178a.821.821,0,0,1,1.02.229.578.578,0,0,1-.273.861l-6.52,3.179A.861.861,0,0,1,2987.833,1129.79Zm13.04-6.357a.782.782,0,0,1-.646-.315.579.579,0,0,1,.273-.861l6.52-3.179a.824.824,0,0,1,1.02.229.58.58,0,0,1-.273.861l-6.52,3.18A.86.86,0,0,1,3000.873,1123.433Zm13.041-6.358a.777.777,0,0,1-.645-.315.579.579,0,0,1,.272-.861l6.519-3.178a.82.82,0,0,1,1.02.229.579.579,0,0,1-.273.861l-6.519,3.179A.862.862,0,0,1,3013.913,1117.075Zm13.04-6.357a.782.782,0,0,1-.647-.315.579.579,0,0,1,.273-.861l6.52-3.178a.818.818,0,0,1,1.019.23.578.578,0,0,1-.272.861l-6.52,3.178A.855.855,0,0,1,3026.953,1110.718Zm13.038-6.357a.78.78,0,0,1-.646-.315.581.581,0,0,1,.273-.861l6.52-3.178a.823.823,0,0,1,1.02.23.579.579,0,0,1-.273.861l-6.52,3.178A.846.846,0,0,1,3039.991,1104.361Zm13.04-6.358a.781.781,0,0,1-.645-.315.58.58,0,0,1,.271-.861l6.522-3.178a.819.819,0,0,1,1.018.23.578.578,0,0,1-.271.861l-6.522,3.178A.845.845,0,0,1,3053.031,1098Zm13.04-6.357a.782.782,0,0,1-.647-.315.581.581,0,0,1,.273-.861l6.52-3.179a.826.826,0,0,1,1.02.231.58.58,0,0,1-.273.861l-6.52,3.178A.849.849,0,0,1,3066.072,1091.646Zm13.04-6.358a.774.774,0,0,1-.645-.315.579.579,0,0,1,.271-.861l6.52-3.178a.82.82,0,0,1,1.019.231.58.58,0,0,1-.272.861l-6.52,3.178A.848.848,0,0,1,3079.111,1085.287Zm13.04-6.357a.779.779,0,0,1-.647-.315.58.58,0,0,1,.273-.861l6.52-3.179a.826.826,0,0,1,1.02.231.581.581,0,0,1-.273.861l-6.52,3.179A.848.848,0,0,1,3092.151,1078.93Zm13.038-6.357a.777.777,0,0,1-.645-.315.579.579,0,0,1,.271-.861l6.52-3.179a.826.826,0,0,1,1.02.231.578.578,0,0,1-.274.861l-6.52,3.179A.86.86,0,0,1,3105.19,1072.573Zm13.042-6.357a.782.782,0,0,1-.647-.315.579.579,0,0,1,.273-.861l6.519-3.179a.821.821,0,0,1,1.018.231.579.579,0,0,1-.272.861l-6.519,3.179A.862.862,0,0,1,3118.232,1066.217Zm13.038-6.358a.779.779,0,0,1-.647-.315.581.581,0,0,1,.273-.861l6.52-3.178a.823.823,0,0,1,1.02.231.579.579,0,0,1-.273.861l-6.52,3.178A.842.842,0,0,1,3131.27,1059.858Zm13.04-6.357a.782.782,0,0,1-.646-.315.578.578,0,0,1,.273-.861l6.52-3.179a.823.823,0,0,1,1.019.231.58.58,0,0,1-.272.861l-6.52,3.179A.87.87,0,0,1,3144.31,1053.5Z" transform="translate(-2916.362 -1049.061)"/></g><g transform="translate(0 225.718)"><path class="g" d="M2913.521,1117.638a.725.725,0,0,1-.45-.154,21.666,21.666,0,0,1-2.48-2.312.6.6,0,0,1,.086-.889.726.726,0,0,1,.965.078,19.972,19.972,0,0,0,2.328,2.169.6.6,0,0,1,.069.89A.717.717,0,0,1,2913.521,1117.638Z" transform="translate(-2910.433 -1114.136)"/></g></g><g transform="translate(8.641 0.922)"><g class="h"><g transform="translate(-7.05 10.999)"><path class="i" d="M3125.583,933.77v-19a4.844,4.844,0,0,0-2.628-3.861l-.908-.445a6.748,6.748,0,0,0-5.255,0l-206.907,101.362,30.813,15.094,182.257-89.284A4.841,4.841,0,0,0,3125.583,933.77Z" transform="translate(-2909.885 -909.928)"/><path class="j" d="M3116.792,910.46l-206.907,101.362,6.163,3.018,206.906-101.36c1.45-.711,1.45-1.864,0-2.575l-.908-.445A6.748,6.748,0,0,0,3116.792,910.46Z" transform="translate(-2909.885 -909.928)"/><g transform="translate(12.325 6.037)"><path class="i" d="M3133.877,938.558v-19a4.843,4.843,0,0,0-2.627-3.863l-.908-.444a6.739,6.739,0,0,0-5.256,0l-206.908,101.361,30.815,15.095,182.257-89.285A4.841,4.841,0,0,0,3133.877,938.558Z" transform="translate(-2918.178 -914.715)"/><path class="j" d="M3125.086,915.248l-206.908,101.361,6.164,3.019L3131.25,918.267c1.45-.711,1.45-1.864,0-2.575l-.908-.444A6.739,6.739,0,0,0,3125.086,915.248Z" transform="translate(-2918.178 -914.715)"/></g><g transform="translate(24.65 12.071)"><path class="i" d="M3142.17,943.343v-19a4.84,4.84,0,0,0-2.628-3.863l-.907-.444a6.74,6.74,0,0,0-5.256,0l-206.906,101.361,30.813,15.095L3139.542,947.2A4.841,4.841,0,0,0,3142.17,943.343Z" transform="translate(-2926.471 -919.5)"/><path class="j" d="M3133.378,920.033l-206.906,101.361,6.165,3.019,206.9-101.361c1.452-.711,1.452-1.864,0-2.575l-.907-.444A6.74,6.74,0,0,0,3133.378,920.033Z" transform="translate(-2926.471 -919.5)"/></g></g></g></g><g transform="translate(186.323 68.533)"><path class="k" d="M3132.389,969.471v37.113a4.89,4.89,0,0,1-2.419,3.863l-73.556,39.1a.717.717,0,0,1-.14.064c-5.557,2.923-10.6,3.3-14.295,1.546-1.12-.534-5.429-2.843-6.48-3.469-3.333-1.984-5.362-5.894-5.362-11.375,0-11.3,8.643-25.129,19.508-31.476l.014-.013,68.942-36.637a4.015,4.015,0,0,0,.363-.232c.966-.707.84-1.7-.363-2.343l-8.936-4.75v-6.037l20.306,10.787a4.961,4.961,0,0,1,2.377,3.425A2.225,2.225,0,0,1,3132.389,969.471Z" transform="translate(-3030.137 -954.821)"/><path class="l" d="M3132.389,969.471v37.113a4.89,4.89,0,0,1-2.419,3.863l-73.556,39.1a.717.717,0,0,1-.14.064c-5.557,2.923-10.6,3.3-14.295,1.546-1.12-.534-5.429-2.843-6.48-3.469-3.333-1.984-5.362-5.894-5.362-11.375,0-11.3,8.643-25.129,19.508-31.476l.014-.013,68.942-36.637a4.015,4.015,0,0,0,.363-.232c.966-.707.84-1.7-.363-2.343l-8.936-4.75v-6.037l20.306,10.787a4.961,4.961,0,0,1,2.377,3.425A2.225,2.225,0,0,1,3132.389,969.471Z" transform="translate(-3030.137 -954.821)"/></g><path class="m" d="M3130.856,966.769v37.113a4.89,4.89,0,0,1-2.419,3.863l-73.556,39.1a.726.726,0,0,1-.14.064c-7.244,3.81-13.621,3.3-17.258-.63-2.027-2.2-3.2-5.459-3.2-9.629,0-11.676,9.229-26.031,20.6-32.08l70.3-37.359,3.259-1.725c1.188-.644,2.181-.257,2.376.85A2.225,2.225,0,0,1,3130.856,966.769Z" transform="translate(-2842.281 -883.586)"/><g transform="translate(204.393 129.346)"><path class="n" d="M3046.726,1017.7c0,5,3.815,7.029,8.521,4.528s8.52-8.584,8.52-13.587-3.814-7.029-8.52-4.528S3046.726,1012.7,3046.726,1017.7Z" transform="translate(-3046.726 -1003.045)"/><path class="o" d="M3063.389,1004.91l-2.526-1.328-12.32,19.054,2.894,1.535Z" transform="translate(-3046.054 -1002.905)"/><path class="p" d="M3048.8,1018.9c0,5,3.813,7.029,8.52,4.529s8.521-8.584,8.521-13.587-3.815-7.029-8.522-4.529S3048.8,1013.9,3048.8,1018.9Z" transform="translate(-3045.959 -1002.732)"/></g></g></g><g transform="translate(-627.523 -2339.507)"><path class="q" d="M1012.351,2536.788l-29.477,15.153-30.14-15.153c0-1.195.14-19.027.14-19.027l29.93,15.152,29.547-15.152Z" transform="translate(0 4.025)"/><path class="q" d="M983.212,2484l30.228,31.071L983.4,2530.223l-30.419-15.152Z" transform="translate(0.03)"/></g><g transform="translate(-776.788 -2235.165)"><path class="q" d="M1012.351,2536.788l-29.477,15.153-30.14-15.153c0-1.195.14-19.027.14-19.027l29.93,15.152,29.547-15.152Z" transform="translate(0 4.025)"/><path class="q" d="M983.212,2484l30.228,31.071L983.4,2530.223l-30.419-15.152Z" transform="translate(0.03)"/></g></svg>